<?xml version="1.0" encoding="UTF-8"?>
<svg version="1.1" xmlns="http://www.w3.org/2000/svg" width="129" height="129">
<path d="M0 0 C2.71645906 0.10079229 5.43320256 0.19220182 8.14999199 0.28358269 C11.39481561 0.39381284 14.63935018 0.51184283 17.88391113 0.6295166 C19.10037323 0.67123993 20.31683533 0.71296326 21.57015991 0.75595093 C23.23922897 0.82074142 23.23922897 0.82074142 24.9420166 0.88684082 C26.41636673 0.94132889 26.41636673 0.94132889 27.92050171 0.99691772 C30.14172363 1.1998291 30.14172363 1.1998291 31.14172363 2.1998291 C32.34710861 13.15246298 32.26669154 24.26181683 32.31796265 35.26940918 C32.32544964 36.76063958 32.33611346 38.25185752 32.3500061 39.74304199 C32.36797721 41.87067899 32.37203427 43.99790589 32.37219238 46.12561035 C32.37630127 47.36738037 32.38041016 48.60915039 32.38464355 49.8885498 C32.14522384 53.15211722 31.71823432 55.34209893 30.14172363 58.1998291 C24.33200284 60.81989926 22.66043937 60.06231931 16.14172363 58.1998291 C17.13172363 71.5648291 17.13172363 71.5648291 18.14172363 85.1998291 C20.12172363 85.1998291 22.10172363 85.1998291 24.14172363 85.1998291 C24.14172363 86.8498291 24.14172363 88.4998291 24.14172363 90.1998291 C12.75672363 90.6948291 12.75672363 90.6948291 1.14172363 91.1998291 C0.48172363 93.1798291 -0.17827637 95.1598291 -0.85827637 97.1998291 C0.79172363 97.8598291 2.44172363 98.5198291 4.14172363 99.1998291 C4.14172363 99.5298291 4.14172363 99.8598291 4.14172363 100.1998291 C0.85052428 100.3962322 -2.44124571 100.58043655 -5.73327637 100.7623291 C-7.13899902 100.84644043 -7.13899902 100.84644043 -8.57312012 100.93225098 C-9.46901855 100.98059082 -10.36491699 101.02893066 -11.28796387 101.07873535 C-12.52908936 101.14943237 -12.52908936 101.14943237 -13.79528809 101.22155762 C-15.85827637 101.1998291 -15.85827637 101.1998291 -17.85827637 100.1998291 C-19.50174588 100.10443556 -21.14905302 100.07187817 -22.79528809 100.07043457 C-23.82330536 100.06728241 -24.85132263 100.06413025 -25.91049194 100.06088257 C-27.02505768 100.0629068 -28.13962341 100.06493103 -29.28796387 100.0670166 C-30.42984161 100.06605988 -31.57171936 100.06510315 -32.74819946 100.06411743 C-35.16754206 100.06343589 -37.58688648 100.06528839 -40.00622559 100.06945801 C-43.71085731 100.07479679 -47.41536724 100.06951718 -51.11999512 100.06311035 C-53.46765164 100.06377133 -55.81530808 100.0650529 -58.16296387 100.0670166 C-59.27348114 100.06499237 -60.38399841 100.06296814 -61.52816772 100.06088257 C-62.56248932 100.06403473 -63.59681091 100.06718689 -64.66247559 100.07043457 C-65.57133514 100.07123016 -66.4801947 100.07202576 -67.41659546 100.07284546 C-69.71703047 100.19248338 -71.64228884 100.61058201 -73.85827637 101.1998291 C-81.38682149 101.60314402 -81.38682149 101.60314402 -84.85827637 99.1998291 C-85.18827637 98.5398291 -85.51827637 97.8798291 -85.85827637 97.1998291 C-88.38560872 96.54427791 -88.38560872 96.54427791 -90.85827637 96.1998291 C-90.98327637 93.8248291 -90.98327637 93.8248291 -90.85827637 91.1998291 C-89.86827637 90.2098291 -89.86827637 90.2098291 -88.85827637 89.1998291 C-87.86827637 89.1998291 -86.87827637 89.1998291 -85.85827637 89.1998291 C-86.01425293 88.53596191 -86.17022949 87.87209473 -86.33093262 87.18811035 C-86.62290527 85.86359863 -86.62290527 85.86359863 -86.92077637 84.5123291 C-87.11800293 83.64221191 -87.31522949 82.77209473 -87.51843262 81.87561035 C-87.88515376 78.98820828 -87.47174309 77.02859232 -86.85827637 74.1998291 C-86.79174782 71.92987492 -86.77283886 69.65814216 -86.79577637 67.3873291 C-86.8047998 66.22588379 -86.81382324 65.06443848 -86.82312012 63.86779785 C-86.83472168 62.98736816 -86.84632324 62.10693848 -86.85827637 61.1998291 C-85.86827637 60.7048291 -85.86827637 60.7048291 -84.85827637 60.1998291 C-84.23407189 49.87816226 -83.80913077 39.58047353 -83.86218262 29.2388916 C-83.86571747 28.4723526 -83.86925232 27.7058136 -83.87289429 26.91604614 C-83.89398364 23.06124584 -83.93037463 19.20715184 -83.98327637 15.35266113 C-83.99521706 13.92151062 -84.00694554 12.49035832 -84.01843262 11.0592041 C-84.035271 9.78528809 -84.05210938 8.51137207 -84.06945801 7.19885254 C-83.85827637 4.1998291 -83.85827637 4.1998291 -81.85827637 2.1998291 C-72.59989905 -0.26235211 -63.27531512 -0.04654368 -53.85827637 1.1998291 C-51.77623278 3.28187268 -52.60006345 7.7336847 -52.54187012 10.60998535 C-52.52108902 11.45202011 -52.50030792 12.29405487 -52.47889709 13.16160583 C-52.41330825 15.86176089 -52.35447361 18.56201627 -52.29577637 21.2623291 C-52.2526 23.08851151 -52.20898601 24.91468364 -52.16491699 26.74084473 C-52.05761742 31.22706902 -51.95637671 35.7133946 -51.85827637 40.1998291 C-50.86827637 39.5398291 -49.87827637 38.8798291 -48.85827637 38.1998291 C-47.86827637 38.1998291 -46.87827637 38.1998291 -45.85827637 38.1998291 C-45.85827637 25.9898291 -45.85827637 13.7798291 -45.85827637 1.1998291 C-31.91648319 -3.44743529 -14.36556943 -0.54588288 0 0 Z M-52.85827637 52.1998291 C-51.85827637 54.1998291 -51.85827637 54.1998291 -51.85827637 54.1998291 Z M-35.85827637 59.1998291 C-35.52827637 60.1898291 -35.19827637 61.1798291 -34.85827637 62.1998291 C-32.54827637 61.5398291 -30.23827637 60.8798291 -27.85827637 60.1998291 C-28.51827637 59.5398291 -29.17827637 58.8798291 -29.85827637 58.1998291 C-33.63466957 57.9016867 -33.63466957 57.9016867 -35.85827637 59.1998291 Z M8.14172363 58.1998291 C7.80555138 61.94958028 7.47327917 65.69966711 7.14172363 69.4498291 C7.04633301 70.51330566 6.95094238 71.57678223 6.85266113 72.67248535 C6.76242676 73.69729004 6.67219238 74.72209473 6.57922363 75.7779541 C6.49543457 76.72058105 6.41164551 77.66320801 6.32531738 78.63439941 C6.16903856 80.8181466 6.14172363 83.01049705 6.14172363 85.1998291 C9.21709218 84.54082156 11.21907929 83.66115127 14.14172363 82.1998291 C12.49172363 74.2798291 10.84172363 66.3598291 9.14172363 58.1998291 C8.81172363 58.1998291 8.48172363 58.1998291 8.14172363 58.1998291 Z M-9.85827637 59.1998291 C-10.28856428 62.2118445 -10.4618529 64.34180364 -8.66296387 66.89904785 C-5.86418931 69.80330387 -3.89857126 71.45325287 0.14172363 72.1998291 C0.47172363 74.1798291 0.80172363 76.1598291 1.14172363 78.1998291 C1.47172363 78.1998291 1.80172363 78.1998291 2.14172363 78.1998291 C2.24545128 71.76871488 1.86200175 65.59229737 1.14172363 59.1998291 C-2.48827637 59.1998291 -6.11827637 59.1998291 -9.85827637 59.1998291 Z M-36.85827637 63.1998291 C-37.18827637 66.4998291 -37.51827637 69.7998291 -37.85827637 73.1998291 C-36.86827637 73.5298291 -35.87827637 73.8598291 -34.85827637 74.1998291 C-35.18827637 70.5698291 -35.51827637 66.9398291 -35.85827637 63.1998291 C-36.18827637 63.1998291 -36.51827637 63.1998291 -36.85827637 63.1998291 Z M-61.85827637 64.1998291 C-62.18827637 65.1898291 -62.51827637 66.1798291 -62.85827637 67.1998291 C-64.17827637 67.1998291 -65.49827637 67.1998291 -66.85827637 67.1998291 C-66.90081993 69.19937656 -66.8990842 71.20024546 -66.85827637 73.1998291 C-65.73293532 74.55601409 -65.73293532 74.55601409 -62.79577637 74.2623291 C-61.82640137 74.2417041 -60.85702637 74.2210791 -59.85827637 74.1998291 C-60.18827637 70.8998291 -60.51827637 67.5998291 -60.85827637 64.1998291 C-61.18827637 64.1998291 -61.51827637 64.1998291 -61.85827637 64.1998291 Z M-11.85827637 69.1998291 C-11.85827637 70.8498291 -11.85827637 72.4998291 -11.85827637 74.1998291 C-9.87827637 74.1998291 -7.89827637 74.1998291 -5.85827637 74.1998291 C-7.50371417 72.51220059 -9.17116214 70.84579421 -10.85827637 69.1998291 C-11.18827637 69.1998291 -11.51827637 69.1998291 -11.85827637 69.1998291 Z M-84.85827637 74.1998291 C-84.85827637 74.8598291 -84.85827637 75.5198291 -84.85827637 76.1998291 C-82.38327637 77.1898291 -82.38327637 77.1898291 -79.85827637 78.1998291 C-79.85827637 77.2098291 -79.85827637 76.2198291 -79.85827637 75.1998291 C-81.50827637 74.8698291 -83.15827637 74.5398291 -84.85827637 74.1998291 Z M-57.85827637 74.1998291 C-57.21890137 74.4885791 -56.57952637 74.7773291 -55.92077637 75.0748291 C-53.85827637 76.1998291 -53.85827637 76.1998291 -52.85827637 78.1998291 C-52.85827637 77.2098291 -52.85827637 76.2198291 -52.85827637 75.1998291 C-54.50827637 74.8698291 -56.15827637 74.5398291 -57.85827637 74.1998291 Z M-78.85827637 84.1998291 C-78.85827637 85.1898291 -78.85827637 86.1798291 -78.85827637 87.1998291 C-77.86827637 86.8698291 -76.87827637 86.5398291 -75.85827637 86.1998291 C-75.85827637 85.5398291 -75.85827637 84.8798291 -75.85827637 84.1998291 C-76.84827637 84.1998291 -77.83827637 84.1998291 -78.85827637 84.1998291 Z M-67.85827637 84.1998291 C-68.09336833 89.01921434 -67.31012115 92.66281417 -65.85827637 97.1998291 C-66.84827637 97.6948291 -66.84827637 97.6948291 -67.85827637 98.1998291 C-65.38327637 98.6948291 -65.38327637 98.6948291 -62.85827637 99.1998291 C-62.83124255 97.2624057 -62.81186512 95.32487431 -62.79577637 93.3873291 C-62.7841748 92.30838379 -62.77257324 91.22943848 -62.76062012 90.11779785 C-62.7220287 87.13470741 -62.7220287 87.13470741 -63.85827637 84.1998291 C-65.17827637 84.1998291 -66.49827637 84.1998291 -67.85827637 84.1998291 Z M-57.85827637 84.1998291 C-57.85827637 88.4898291 -57.85827637 92.7798291 -57.85827637 97.1998291 C-56.86827637 97.1998291 -55.87827637 97.1998291 -54.85827637 97.1998291 C-54.85827637 93.2398291 -54.85827637 89.2798291 -54.85827637 85.1998291 C-55.84827637 84.8698291 -56.83827637 84.5398291 -57.85827637 84.1998291 Z M-49.85827637 84.1998291 C-49.43570361 85.6833292 -48.99471314 87.16159334 -48.54577637 88.6373291 C-48.30214355 89.46104004 -48.05851074 90.28475098 -47.80749512 91.13342285 C-47.49425293 91.81533691 -47.18101074 92.49725098 -46.85827637 93.1998291 C-45.86827637 93.5298291 -44.87827637 93.8598291 -43.85827637 94.1998291 C-43.85827637 90.8998291 -43.85827637 87.5998291 -43.85827637 84.1998291 C-45.83827637 84.1998291 -47.81827637 84.1998291 -49.85827637 84.1998291 Z M-40.85827637 84.1998291 C-40.85827637 87.8298291 -40.85827637 91.4598291 -40.85827637 95.1998291 C-40.52827637 95.1998291 -40.19827637 95.1998291 -39.85827637 95.1998291 C-39.71390137 94.1273291 -39.56952637 93.0548291 -39.42077637 91.9498291 C-39.02078194 89.28319961 -38.58235713 86.78583181 -37.85827637 84.1998291 C-38.84827637 84.1998291 -39.83827637 84.1998291 -40.85827637 84.1998291 Z M-32.85827637 84.1998291 C-32.88522488 86.15808783 -32.90464855 88.11645136 -32.92077637 90.0748291 C-32.93237793 91.16537598 -32.94397949 92.25592285 -32.95593262 93.3795166 C-33.0557194 96.15160456 -33.0557194 96.15160456 -31.85827637 98.1998291 C-30.86827637 98.1998291 -29.87827637 98.1998291 -28.85827637 98.1998291 C-28.70852397 91.14331658 -28.70852397 91.14331658 -29.85827637 84.1998291 C-30.84827637 84.1998291 -31.83827637 84.1998291 -32.85827637 84.1998291 Z M-24.85827637 84.1998291 C-24.88539703 85.63722423 -24.90472704 87.07476773 -24.92077637 88.5123291 C-24.93237793 89.31283691 -24.94397949 90.11334473 -24.95593262 90.93811035 C-24.95485491 93.36844244 -24.95485491 93.36844244 -23.85827637 96.1998291 C-22.20827637 96.5298291 -20.55827637 96.8598291 -18.85827637 97.1998291 C-18.85827637 92.9098291 -18.85827637 88.6198291 -18.85827637 84.1998291 C-20.83827637 84.1998291 -22.81827637 84.1998291 -24.85827637 84.1998291 Z M-15.85827637 84.1998291 C-16.05218366 86.51180065 -16.23824003 88.824432 -16.42077637 91.1373291 C-16.52519043 92.42510254 -16.62960449 93.71287598 -16.73718262 95.03967285 C-16.77714355 96.08252441 -16.81710449 97.12537598 -16.85827637 98.1998291 C-15.73293532 99.55601409 -15.73293532 99.55601409 -12.79577637 99.2623291 C-11.82640137 99.2417041 -10.85702637 99.2210791 -9.85827637 99.1998291 C-8.71597758 95.77293274 -8.94966561 93.58880692 -9.29577637 90.0123291 C-9.44853027 88.38230957 -9.44853027 88.38230957 -9.60437012 86.71936035 C-9.68815918 85.88791504 -9.77194824 85.05646973 -9.85827637 84.1998291 C-11.83827637 84.1998291 -13.81827637 84.1998291 -15.85827637 84.1998291 Z M-53.85827637 89.1998291 C-54.18827637 92.4998291 -54.51827637 95.7998291 -54.85827637 99.1998291 C-51.22827637 99.1998291 -47.59827637 99.1998291 -43.85827637 99.1998291 C-43.85827637 98.5398291 -43.85827637 97.8798291 -43.85827637 97.1998291 C-45.17827637 97.1998291 -46.49827637 97.1998291 -47.85827637 97.1998291 C-49.30749512 95.4498291 -49.30749512 95.4498291 -50.54577637 93.1998291 C-51.299064 91.85650503 -52.06545909 90.52020881 -52.85827637 89.1998291 C-53.18827637 89.1998291 -53.51827637 89.1998291 -53.85827637 89.1998291 Z M-34.85827637 90.1998291 C-36.31890487 92.84721827 -36.85827637 94.09431244 -36.85827637 97.1998291 C-35.86827637 97.5298291 -34.87827637 97.8598291 -33.85827637 98.1998291 C-33.85827637 95.5598291 -33.85827637 92.9198291 -33.85827637 90.1998291 C-34.18827637 90.1998291 -34.51827637 90.1998291 -34.85827637 90.1998291 Z M-4.85827637 90.1998291 C-5.18827637 92.5098291 -5.51827637 94.8198291 -5.85827637 97.1998291 C-5.19827637 96.8698291 -4.53827637 96.5398291 -3.85827637 96.1998291 C-3.85827637 94.2198291 -3.85827637 92.2398291 -3.85827637 90.1998291 C-4.18827637 90.1998291 -4.51827637 90.1998291 -4.85827637 90.1998291 Z M-83.85827637 95.1998291 C-83.52827637 96.1898291 -83.19827637 97.1798291 -82.85827637 98.1998291 C-82.19827637 98.1998291 -81.53827637 98.1998291 -80.85827637 98.1998291 C-81.18827637 97.2098291 -81.51827637 96.2198291 -81.85827637 95.1998291 C-82.51827637 95.1998291 -83.17827637 95.1998291 -83.85827637 95.1998291 Z M-72.85827637 95.1998291 C-73.18827637 96.5198291 -73.51827637 97.8398291 -73.85827637 99.1998291 C-72.53827637 98.8698291 -71.21827637 98.5398291 -69.85827637 98.1998291 C-70.18827637 97.2098291 -70.51827637 96.2198291 -70.85827637 95.1998291 C-71.51827637 95.1998291 -72.17827637 95.1998291 -72.85827637 95.1998291 Z M-59.85827637 95.1998291 C-58.85827637 97.1998291 -58.85827637 97.1998291 -58.85827637 97.1998291 Z " fill="#7B79D9" transform="translate(93.8582763671875,13.8001708984375)"/>
<path d="M0 0 C2.71645906 0.10079229 5.43320256 0.19220182 8.14999199 0.28358269 C11.39481561 0.39381284 14.63935018 0.51184283 17.88391113 0.6295166 C19.10037323 0.67123993 20.31683533 0.71296326 21.57015991 0.75595093 C23.23922897 0.82074142 23.23922897 0.82074142 24.9420166 0.88684082 C26.41636673 0.94132889 26.41636673 0.94132889 27.92050171 0.99691772 C30.14172363 1.1998291 30.14172363 1.1998291 31.14172363 2.1998291 C32.34710861 13.15246298 32.26669154 24.26181683 32.31796265 35.26940918 C32.32544964 36.76063958 32.33611346 38.25185752 32.3500061 39.74304199 C32.36797721 41.87067899 32.37203427 43.99790589 32.37219238 46.12561035 C32.37630127 47.36738037 32.38041016 48.60915039 32.38464355 49.8885498 C32.14522384 53.15211722 31.71823432 55.34209893 30.14172363 58.1998291 C24.71039414 60.64925221 21.48687199 60.16335299 16.14172363 58.1998291 C16.14172363 61.1698291 16.14172363 64.1398291 16.14172363 67.1998291 C15.81172363 67.1998291 15.48172363 67.1998291 15.14172363 67.1998291 C14.64672363 59.7748291 14.64672363 59.7748291 14.14172363 52.1998291 C13.15172363 52.1998291 12.16172363 52.1998291 11.14172363 52.1998291 C11.14172363 50.8798291 11.14172363 49.5598291 11.14172363 48.1998291 C9.49172363 48.1998291 7.84172363 48.1998291 6.14172363 48.1998291 C6.14172363 49.5198291 6.14172363 50.8398291 6.14172363 52.1998291 C5.15172363 52.1998291 4.16172363 52.1998291 3.14172363 52.1998291 C2.81172363 57.8098291 2.48172363 63.4198291 2.14172363 69.1998291 C1.81172363 69.1998291 1.48172363 69.1998291 1.14172363 69.1998291 C1.14172363 65.8998291 1.14172363 62.5998291 1.14172363 59.1998291 C-2.48827637 59.1998291 -6.11827637 59.1998291 -9.85827637 59.1998291 C-10.18827637 60.1898291 -10.51827637 61.1798291 -10.85827637 62.1998291 C-11.19858887 60.5601416 -11.19858887 60.5601416 -11.54577637 58.8873291 C-12.51574832 55.07494699 -12.51574832 55.07494699 -15.48327637 53.2623291 C-16.26702637 52.9117041 -17.05077637 52.5610791 -17.85827637 52.1998291 C-17.36327637 51.4573291 -17.36327637 51.4573291 -16.85827637 50.6998291 C-15.42191279 47.10892016 -15.72976174 44.05526783 -15.85827637 40.1998291 C-18.75900818 39.52181876 -18.75900818 39.52181876 -21.85827637 39.1998291 C-24.23047327 41.14441224 -24.23047327 41.14441224 -24.17077637 44.6998291 C-24.06765137 45.8548291 -23.96452637 47.0098291 -23.85827637 48.1998291 C-22.86827637 48.8598291 -21.87827637 49.5198291 -20.85827637 50.1998291 C-20.85827637 50.8598291 -20.85827637 51.5198291 -20.85827637 52.1998291 C-22.06483887 52.8804541 -22.06483887 52.8804541 -23.29577637 53.5748291 C-26.31595471 55.07722647 -26.31595471 55.07722647 -26.85827637 59.1998291 C-29.82827637 59.1998291 -32.79827637 59.1998291 -35.85827637 59.1998291 C-35.52827637 62.1698291 -35.19827637 65.1398291 -34.85827637 68.1998291 C-35.84827637 68.6948291 -35.84827637 68.6948291 -36.85827637 69.1998291 C-37.51827637 70.1898291 -38.17827637 71.1798291 -38.85827637 72.1998291 C-40.18540247 68.2184508 -39.9274355 64.34937683 -39.85827637 60.1998291 C-39.19827637 60.1998291 -38.53827637 60.1998291 -37.85827637 60.1998291 C-38.02327637 59.4779541 -38.18827637 58.7560791 -38.35827637 58.0123291 C-38.83414756 55.33555365 -38.93571937 52.91033423 -38.85827637 50.1998291 C-40.83827637 50.6948291 -40.83827637 50.6948291 -42.85827637 51.1998291 C-43.51827637 49.2198291 -44.17827637 47.2398291 -44.85827637 45.1998291 C-43.86827637 44.7048291 -43.86827637 44.7048291 -42.85827637 44.1998291 C-42.85827637 42.5498291 -42.85827637 40.8998291 -42.85827637 39.1998291 C-43.84827637 38.8698291 -44.83827637 38.5398291 -45.85827637 38.1998291 C-45.85827637 25.9898291 -45.85827637 13.7798291 -45.85827637 1.1998291 C-31.91648319 -3.44743529 -14.36556943 -0.54588288 0 0 Z " fill="#CBCBFB" transform="translate(93.8582763671875,13.8001708984375)"/>
<path d="M0 0 C2.07190699 2.07190699 1.23388856 6.47987005 1.28125 9.33984375 C1.30886414 10.59578087 1.30886414 10.59578087 1.33703613 11.87709045 C1.3959741 14.56382004 1.44870251 17.2506143 1.5 19.9375 C1.56752825 23.46758663 1.64122755 26.99746409 1.71875 30.52734375 C1.73232544 31.34508774 1.74590088 32.16283173 1.7598877 33.00535583 C1.75086507 37.13579212 1.75086507 37.13579212 3 41 C3.14901491 43.10053716 3.22138453 45.20687825 3.25 47.3125 C3.27578125 48.44300781 3.3015625 49.57351562 3.328125 50.73828125 C2.96756225 54.32244663 2.18450333 56.16325161 0 59 C-0.86625 59.309375 -1.7325 59.61875 -2.625 59.9375 C-3.40875 60.288125 -4.1925 60.63875 -5 61 C-5.89830839 64.05272465 -5.89830839 64.05272465 -6 67 C-9.36544857 63.27396765 -11.12984198 59.62385725 -12.875 54.98828125 C-14.23691924 52.58127816 -15.46340529 51.98821502 -18 51 C-17.67 50.505 -17.34 50.01 -17 49.5 C-15.56363642 45.90909106 -15.87148538 42.85543873 -16 39 C-17.98 38.67 -19.96 38.34 -22 38 C-22 38.66 -22 39.32 -22 40 C-22.66 40 -23.32 40 -24 40 C-23.690625 41.0725 -23.38125 42.145 -23.0625 43.25 C-22.33187904 45.82866222 -21.62517096 48.39512102 -21 51 C-21.598125 51.185625 -22.19625 51.37125 -22.8125 51.5625 C-26.09981799 53.72273753 -26.64854687 56.35107655 -28 60 C-28.99 59.67 -29.98 59.34 -31 59 C-30.9278125 57.80632812 -30.855625 56.61265625 -30.78125 55.3828125 C-30.27973676 46.26406367 -29.95705543 37.17185684 -30.00390625 28.0390625 C-30.0074411 27.2725235 -30.01097595 26.5059845 -30.01461792 25.71621704 C-30.03570727 21.86141674 -30.07209826 18.00732274 -30.125 14.15283203 C-30.13694069 12.72168152 -30.14866918 11.29052922 -30.16015625 9.859375 C-30.17699463 8.58545898 -30.19383301 7.31154297 -30.21118164 5.99902344 C-30 3 -30 3 -28 1 C-18.84828511 -1.70751427 -9.35516711 -1.13919009 0 0 Z M1 51 C2 53 2 53 2 53 Z " fill="#E9E8FC" transform="translate(40,15)"/>
<path d="M0 0 C1.99954746 -0.04254356 4.00041636 -0.04080783 6 0 C7 1 7 1 7.25 4.8125 C7.22395215 8.43966299 6.63994297 10.36005703 4 13 C4.7425 13.144375 5.485 13.28875 6.25 13.4375 C10.3995714 15.79521102 11.63675932 19.53710036 13 24 C13 25.32 13 26.64 13 28 C11.68 28 10.36 28 9 28 C9.33 29.98 9.66 31.96 10 34 C11.98 34.33 13.96 34.66 16 35 C16.33 34.34 16.66 33.68 17 33 C17.33 33.99 17.66 34.98 18 36 C20.01508358 36.73323796 20.01508358 36.73323796 22 37 C21.67 36.67 21.34 36.34 21 36 C21 35.67 21 35.34 21 35 C24.63 35 28.26 35 32 35 C32.495 38.465 32.495 38.465 33 42 C30.03 42 27.06 42 24 42 C24 42.66 24 43.32 24 44 C25.98567708 43.96744792 27.97135417 43.93489583 29.95703125 43.90234375 C32 44 32 44 35 45 C35.02578125 45.98742187 35.0515625 46.97484375 35.078125 47.9921875 C35.13484375 49.27351563 35.1915625 50.55484375 35.25 51.875 C35.29640625 53.15117188 35.3428125 54.42734375 35.390625 55.7421875 C35.69226562 57.35480469 35.69226562 57.35480469 36 59 C37.97642594 60.23468901 37.97642594 60.23468901 40 61 C38.99098633 60.99476318 37.98197266 60.98952637 36.94238281 60.98413086 C33.19271738 60.96600738 29.44305582 60.95454112 25.69335938 60.94506836 C24.07160796 60.94004495 22.44986105 60.93322506 20.828125 60.92456055 C18.49478031 60.91240771 16.1614956 60.90675172 13.828125 60.90234375 C13.10506165 60.89718246 12.38199829 60.89202118 11.63702393 60.88670349 C8.25410205 60.88632796 5.24744662 61.05061237 2 62 C-5.52854512 62.40331492 -5.52854512 62.40331492 -9 60 C-9.33 59.34 -9.66 58.68 -10 58 C-12.52733235 57.34444881 -12.52733235 57.34444881 -15 57 C-15.125 54.625 -15.125 54.625 -15 52 C-14.34 51.34 -13.68 50.68 -13 50 C-12.01 50 -11.02 50 -10 50 C-10.23396484 49.00419922 -10.23396484 49.00419922 -10.47265625 47.98828125 C-10.66730469 47.10527344 -10.86195312 46.22226563 -11.0625 45.3125 C-11.25972656 44.44238281 -11.45695313 43.57226562 -11.66015625 42.67578125 C-12.02687739 39.78837918 -11.61346672 37.82876322 -11 35 C-10.93347145 32.73004581 -10.91456249 30.45831305 -10.9375 28.1875 C-10.94652344 27.02605469 -10.95554687 25.86460938 -10.96484375 24.66796875 C-10.97644531 23.78753906 -10.98804688 22.90710938 -11 22 C-9.35 22 -7.7 22 -6 22 C-5.9175 21.2575 -5.835 20.515 -5.75 19.75 C-4.85190201 16.45697405 -3.61583926 15.14023212 -1 13 C-0.34 13 0.32 13 1 13 C0.505 12.113125 0.01 11.22625 -0.5 10.3125 C-1.94378674 7.12413762 -2.30159922 5.41812454 -2 2 C-1.34 2 -0.68 2 0 2 C0 1.34 0 0.68 0 0 Z M-9 35 C-9 35.66 -9 36.32 -9 37 C-6.525 37.99 -6.525 37.99 -4 39 C-4 38.01 -4 37.02 -4 36 C-5.65 35.67 -7.3 35.34 -9 35 Z M-3 45 C-3 45.99 -3 46.98 -3 48 C-2.01 47.67 -1.02 47.34 0 47 C0 46.34 0 45.68 0 45 C-0.99 45 -1.98 45 -3 45 Z M8 45 C7.76490804 49.81938524 8.54815522 53.46298506 10 58 C9.01 58.495 9.01 58.495 8 59 C10.475 59.495 10.475 59.495 13 60 C13.02703381 58.06257659 13.04641125 56.12504521 13.0625 54.1875 C13.07410156 53.10855469 13.08570313 52.02960938 13.09765625 50.91796875 C13.13624766 47.93487831 13.13624766 47.93487831 12 45 C10.68 45 9.36 45 8 45 Z M18 45 C18 49.29 18 53.58 18 58 C18.99 58 19.98 58 21 58 C21 54.04 21 50.08 21 46 C20.01 45.67 19.02 45.34 18 45 Z M26 45 C26.42257276 46.4835001 26.86356322 47.96176424 27.3125 49.4375 C27.55613281 50.26121094 27.79976562 51.08492187 28.05078125 51.93359375 C28.36402344 52.61550781 28.67726562 53.29742187 29 54 C29.99 54.33 30.98 54.66 32 55 C32 51.7 32 48.4 32 45 C30.02 45 28.04 45 26 45 Z M22 50 C21.67 53.3 21.34 56.6 21 60 C24.63 60 28.26 60 32 60 C32 59.34 32 58.68 32 58 C30.68 58 29.36 58 28 58 C26.55078125 56.25 26.55078125 56.25 25.3125 54 C24.55921237 52.65667593 23.79281728 51.32037971 23 50 C22.67 50 22.34 50 22 50 Z M-8 56 C-7.67 56.99 -7.34 57.98 -7 59 C-6.34 59 -5.68 59 -5 59 C-5.33 58.01 -5.66 57.02 -6 56 C-6.66 56 -7.32 56 -8 56 Z M3 56 C2.67 57.32 2.34 58.64 2 60 C3.32 59.67 4.64 59.34 6 59 C5.67 58.01 5.34 57.02 5 56 C4.34 56 3.68 56 3 56 Z M16 56 C17 58 17 58 17 58 Z " fill="#6F6DCF" transform="translate(18,53)"/>
<path d="M0 0 C2.71645906 0.10079229 5.43320256 0.19220182 8.14999199 0.28358269 C11.39481561 0.39381284 14.63935018 0.51184283 17.88391113 0.6295166 C19.10037323 0.67123993 20.31683533 0.71296326 21.57015991 0.75595093 C23.23922897 0.82074142 23.23922897 0.82074142 24.9420166 0.88684082 C26.41636673 0.94132889 26.41636673 0.94132889 27.92050171 0.99691772 C30.14172363 1.1998291 30.14172363 1.1998291 31.14172363 2.1998291 C32.34710861 13.15246298 32.26669154 24.26181683 32.31796265 35.26940918 C32.32544964 36.76063958 32.33611346 38.25185752 32.3500061 39.74304199 C32.36797721 41.87067899 32.37203427 43.99790589 32.37219238 46.12561035 C32.37630127 47.36738037 32.38041016 48.60915039 32.38464355 49.8885498 C32.14522384 53.15211722 31.71823432 55.34209893 30.14172363 58.1998291 C24.71039414 60.64925221 21.48687199 60.16335299 16.14172363 58.1998291 C16.14172363 61.1698291 16.14172363 64.1398291 16.14172363 67.1998291 C15.81172363 67.1998291 15.48172363 67.1998291 15.14172363 67.1998291 C14.64672363 59.7748291 14.64672363 59.7748291 14.14172363 52.1998291 C13.15172363 52.1998291 12.16172363 52.1998291 11.14172363 52.1998291 C10.18795797 48.99200824 10.02551182 46.11795515 10.04406738 42.7779541 C10.04729004 41.75314941 10.0505127 40.72834473 10.05383301 39.67248535 C10.06640137 38.07727051 10.06640137 38.07727051 10.07922363 36.4498291 C10.08373535 35.37088379 10.08824707 34.29193848 10.09289551 33.18029785 C10.10466636 30.52008527 10.12110964 27.85998545 10.14172363 25.1998291 C10.76240723 25.28216797 11.38309082 25.36450684 12.02258301 25.44934082 C12.83533691 25.55004883 13.64809082 25.65075684 14.48547363 25.7545166 C15.29178223 25.85748047 16.09809082 25.96044434 16.92883301 26.06652832 C19.23363506 26.34843229 19.23363506 26.34843229 21.64172363 25.3248291 C24.05888152 21.9005221 24.44383326 18.33873101 24.14172363 14.1998291 C22.70857403 11.84735925 22.70857403 11.84735925 20.14172363 10.1998291 C18.92847031 9.14295065 17.72043806 8.08005906 16.51672363 7.0123291 C12.78433173 3.79334482 10.74127972 3.07246787 5.77404785 2.99450684 C4.09253128 2.964589 4.09253128 2.964589 2.37704468 2.93406677 C0.55513107 2.90899803 0.55513107 2.90899803 -1.30358887 2.88342285 C-2.54373749 2.86264175 -3.78388611 2.84186066 -5.06161499 2.82044983 C-8.35939459 2.76605205 -11.65720357 2.71582815 -14.95507812 2.66760254 C-18.32000279 2.61737676 -21.6848378 2.56174912 -25.04968262 2.50646973 C-31.65247866 2.39839431 -38.2553238 2.29936046 -44.85827637 2.1998291 C-44.85827637 14.0798291 -44.85827637 25.9598291 -44.85827637 38.1998291 C-45.18827637 38.1998291 -45.51827637 38.1998291 -45.85827637 38.1998291 C-45.85827637 25.9898291 -45.85827637 13.7798291 -45.85827637 1.1998291 C-31.91648319 -3.44743529 -14.36556943 -0.54588288 0 0 Z " fill="#CDCDFA" transform="translate(93.8582763671875,13.8001708984375)"/>
<path d="M0 0 C1 1 1 1 1.0625 3.5625 C1.041875 4.366875 1.02125 5.17125 1 6 C0.01 6.33 -0.98 6.66 -2 7 C-1.34 8.98 -0.68 10.96 0 13 C1.32 12.67 2.64 12.34 4 12 C4.77842938 15.40562852 5.09978121 18.50765756 5 22 C4.34 22 3.68 22 3 22 C3.2548029 23.96048352 3.52936944 25.91840673 3.8125 27.875 C3.96332031 28.96554688 4.11414063 30.05609375 4.26953125 31.1796875 C4.74665741 34.31238846 4.74665741 34.31238846 8 36 C8 31.71 8 27.42 8 23 C10.45898655 22.91923037 12.91533742 22.85962857 15.375 22.8125 C16.07367188 22.78736328 16.77234375 22.76222656 17.4921875 22.73632812 C19.5234375 22.70703125 19.5234375 22.70703125 23 23 C25.13586678 26.20380017 25.23132175 27.01939967 25.125 30.6875 C25.10695312 31.49574219 25.08890625 32.30398437 25.0703125 33.13671875 C25.04710937 33.75160156 25.02390625 34.36648437 25 35 C22.53879159 36.23060421 20.74223134 36.2057723 17.9921875 36.31640625 C16.51298828 36.37924805 16.51298828 36.37924805 15.00390625 36.44335938 C13.97136719 36.48267578 12.93882813 36.52199219 11.875 36.5625 C10.31458984 36.62727539 10.31458984 36.62727539 8.72265625 36.69335938 C6.14857472 36.7996288 3.57439492 36.90166583 1 37 C1 38.98 1 40.96 1 43 C5.62 43 10.24 43 15 43 C15 43.66 15 44.32 15 45 C13.35 45 11.7 45 10 45 C10 49.62 10 54.24 10 59 C9.34 57.68 8.68 56.36 8 55 C7.34 56.32 6.68 57.64 6 59 C7.485 59.495 7.485 59.495 9 60 C9 60.66 9 61.32 9 62 C6.0625 61.1875 6.0625 61.1875 3 60 C1.74742108 56.24226324 2.25434996 53.86382292 3 50 C3.66 48.68 4.32 47.36 5 46 C-1.93 45.505 -1.93 45.505 -9 45 C-9 44.34 -9 43.68 -9 43 C-6.03 43 -3.06 43 0 43 C-0.33 40.69 -0.66 38.38 -1 36 C-1.98742188 36.02320313 -2.97484375 36.04640625 -3.9921875 36.0703125 C-5.27351563 36.08835938 -6.55484375 36.10640625 -7.875 36.125 C-9.15117188 36.14820313 -10.42734375 36.17140625 -11.7421875 36.1953125 C-15 36 -15 36 -17 34 C-17.265625 31.6875 -17.265625 31.6875 -17.25 29 C-17.25515625 28.113125 -17.2603125 27.22625 -17.265625 26.3125 C-17 24 -17 24 -15 22 C-13.68 22 -12.36 22 -11 22 C-9.07128654 17.96104711 -8.80961233 14.82549078 -8.9375 10.375 C-9.09756098 4.29268293 -9.09756098 4.29268293 -8 1 C-5.26752652 -0.36623674 -3.01801098 -0.128426 0 0 Z " fill="#9291F1" transform="translate(51,52)"/>
<path d="M0 0 C2.64 0 5.28 0 8 0 C8.04898438 0.62648438 8.09796875 1.25296875 8.1484375 1.8984375 C8.22320312 2.71570313 8.29796875 3.53296875 8.375 4.375 C8.44460937 5.18710937 8.51421875 5.99921875 8.5859375 6.8359375 C8.82892588 9.20334191 8.82892588 9.20334191 11 11 C11.04125 10.278125 11.0825 9.55625 11.125 8.8125 C12.37395147 4.79801312 14.5905383 3.33982666 18 1 C19.32 1 20.64 1 22 1 C22.0270043 2.45823212 22.04639787 3.91660675 22.0625 5.375 C22.07410156 6.18710937 22.08570312 6.99921875 22.09765625 7.8359375 C22 10 22 10 21 12 C21.66 12 22.32 12 23 12 C23 8.7 23 5.4 23 2 C26.36275219 2.2882359 28.07297707 3.05076665 30.875 5 C33.12545531 8.17711338 33.34411208 8.86802688 33.125 12.5625 C32.53564455 15.89847427 32.06180805 16.92960749 29.75 19.5625 C26.75566447 21.12772085 25.3150937 21.51001442 22 21 C20.68 20.34 19.36 19.68 18 19 C18 26.59 18 34.18 18 42 C16.68 42 15.36 42 14 42 C13.90071918 34.24506486 13.93940512 26.68931285 15 19 C11.73539027 20.80412643 10.11070205 21.83394693 8 25 C4.4375 25.25 4.4375 25.25 1 25 C0 24 0 24 -0.11352539 21.68334961 C-0.10828857 20.68311768 -0.10305176 19.68288574 -0.09765625 18.65234375 C-0.09443359 17.57275391 -0.09121094 16.49316406 -0.08789062 15.38085938 C-0.07951172 14.24455078 -0.07113281 13.10824219 -0.0625 11.9375 C-0.05798828 10.79732422 -0.05347656 9.65714844 -0.04882812 8.48242188 C-0.03699747 5.65489649 -0.0205141 2.8274736 0 0 Z " fill="#C2C2F9" transform="translate(86,20)"/>
<path d="M0 0 C1.65 0 3.3 0 5 0 C5 1.32 5 2.64 5 4 C6.32 3.67 7.64 3.34 9 3 C9.07347656 4.48886719 9.07347656 4.48886719 9.1484375 6.0078125 C9.58396887 14.13102581 10.31693866 22.06983393 11.59765625 30.109375 C12 33 12 33 12 37 C13.98 37 15.96 37 18 37 C18 38.32 18 39.64 18 41 C13.38 41 8.76 41 4 41 C4 39.02 4 37.04 4 35 C4.99 34.34 5.98 33.68 7 33 C5.68 26.73 4.36 20.46 3 14 C2.08991777 16.73024668 1.82951265 18.58431254 1.71875 21.4140625 C1.68136719 22.25710937 1.64398438 23.10015625 1.60546875 23.96875 C1.53484654 25.74738356 1.46453674 27.52602956 1.39453125 29.3046875 C1.35714844 30.14515625 1.31976563 30.985625 1.28125 31.8515625 C1.25095703 32.62322754 1.22066406 33.39489258 1.18945312 34.18994141 C1 36 1 36 0 37 C-1.66617115 37.04063832 -3.33388095 37.042721 -5 37 C-4.67 36.34 -4.34 35.68 -4 35 C-3.91360131 32.59161322 -3.88432236 30.21266119 -3.90234375 27.8046875 C-3.90446617 26.74352219 -3.90446617 26.74352219 -3.90663147 25.66091919 C-3.912234 23.39890331 -3.92478682 21.13698602 -3.9375 18.875 C-3.94251468 17.34244935 -3.94707764 15.80989714 -3.95117188 14.27734375 C-3.96220423 10.51819112 -3.97947048 6.75911228 -4 3 C-2.02 3.495 -2.02 3.495 0 4 C0 2.68 0 1.36 0 0 Z " fill="#353584" transform="translate(100,62)"/>
<path d="M0 0 C13.75 -0.125 13.75 -0.125 16 1 C16 8.59 16 16.18 16 24 C10.72 24 5.44 24 0 24 C0 16.08 0 8.16 0 0 Z " fill="#BEBEF6" transform="translate(51,19)"/>
<path d="M0 0 C0.99 1.32 1.98 2.64 3 4 C2.67 4.66 2.34 5.32 2 6 C3.32 6.33 4.64 6.66 6 7 C6.33 6.34 6.66 5.68 7 5 C6.34 4.67 5.68 4.34 5 4 C5.99 4 6.98 4 8 4 C8.33 6.31 8.66 8.62 9 11 C8.01 11 7.02 11 6 11 C6 11.99 6 12.98 6 14 C6.66 14 7.32 14 8 14 C8 14.99 8 15.98 8 17 C11.44216672 14.3401439 11.99504674 11.09711714 13 7 C16.75 5.875 16.75 5.875 19 7 C19 8.98 19 10.96 19 13 C20.65 13 22.3 13 24 13 C23.67 14.32 23.34 15.64 23 17 C23 16.01 23 15.02 23 14 C21.68 14 20.36 14 19 14 C19.33 17.96 19.66 21.92 20 26 C17.69 26 15.38 26 13 26 C13 25.34 13 24.68 13 24 C10.69 24 8.38 24 6 24 C5.67 24.66 5.34 25.32 5 26 C4.01 25.67 3.02 25.34 2 25 C1.67 25.66 1.34 26.32 1 27 C-0.65 26.67 -2.3 26.34 -4 26 C-4.125 23.625 -4.125 23.625 -4 21 C-3.34 20.34 -2.68 19.68 -2 19 C-1.01 19 -0.02 19 1 19 C0.84402344 18.33613281 0.68804688 17.67226562 0.52734375 16.98828125 C0.23537109 15.66376953 0.23537109 15.66376953 -0.0625 14.3125 C-0.25972656 13.44238281 -0.45695313 12.57226562 -0.66015625 11.67578125 C-1.02403234 8.81077985 -0.64566498 6.79487149 0 4 C0 2.68 0 1.36 0 0 Z " fill="#DDBD86" transform="translate(7,84)"/>
<path d="M0 0 C0 8.58 0 17.16 0 26 C-7.875 28.25 -7.875 28.25 -14 26 C-14 28.97 -14 31.94 -14 35 C-14.33 35 -14.66 35 -15 35 C-15 25.43 -15 15.86 -15 6 C-14.67 6.66 -14.34 7.32 -14 8 C-9.62417944 6.71299395 -7.36997115 4.56391336 -4.4296875 1.2421875 C-3 0 -3 0 0 0 Z " fill="#CBCBF9" transform="translate(124,46)"/>
<path d="M0 0 C1 1 1 1 1.25 4.8125 C1.22395215 8.43966299 0.63994297 10.36005703 -2 13 C-1.21625 13.268125 -0.4325 13.53625 0.375 13.8125 C3 15 3 15 5 18 C5.4221853 19.42998247 5.8159117 20.86854279 6.1875 22.3125 C7.61207122 26.87557971 9.72361712 28.98442454 13.57421875 31.7109375 C14.04472656 32.13632813 14.51523438 32.56171875 15 33 C15 33.99 15 34.98 15 36 C8.32264932 34.29184052 4.87680487 30.50914377 1 25 C-0.96822886 26.96822886 -0.66248381 30.34808709 -1 33 C-1.33 33 -1.66 33 -2 33 C-2.66 29.7 -3.32 26.4 -4 23 C-10.93 22.505 -10.93 22.505 -18 22 C-18 21.67 -18 21.34 -18 21 C-17.05125 20.938125 -16.1025 20.87625 -15.125 20.8125 C-14.09375 20.544375 -13.0625 20.27625 -12 20 C-10.67518454 17.60470331 -10.67518454 17.60470331 -10 15 C-9.34 14.34 -8.68 13.68 -8 13 C-7.01 13 -6.02 13 -5 13 C-5.66 12.484375 -6.32 11.96875 -7 11.4375 C-9 9 -9 9 -9.4375 5.4375 C-9 2 -9 2 -7.875 0 C-5.042116 -1.51087147 -3.01987426 -0.78779328 0 0 Z " fill="#8F91E9" transform="translate(78,53)"/>
<path d="M0 0 C0.33 0 0.66 0 1 0 C1.04950925 4.62644904 1.08577116 9.25274318 1.10986328 13.87939453 C1.11990887 15.45266405 1.13354781 17.02591496 1.15087891 18.59912109 C1.17519096 20.86300252 1.18649747 23.12663666 1.1953125 25.390625 C1.20563507 26.09181458 1.21595764 26.79300415 1.22659302 27.51544189 C1.22750579 31.50569803 0.84594271 33.30811458 -1 37 C-1 28.75 -1 20.5 -1 12 C-5.86006436 14.61507176 -5.86006436 14.61507176 -8.5625 17.6875 C-11 20 -11 20 -15 20 C-15 23.63 -15 27.26 -15 31 C-16.65 31.33 -18.3 31.66 -20 32 C-20.95376567 28.79217914 -21.11621181 25.91812604 -21.09765625 22.578125 C-21.09443359 21.55332031 -21.09121094 20.52851562 -21.08789062 19.47265625 C-21.07951172 18.40917969 -21.07113281 17.34570312 -21.0625 16.25 C-21.05798828 15.17105469 -21.05347656 14.09210937 -21.04882812 12.98046875 C-21.03705727 10.32025617 -21.02061399 7.66015635 -21 5 C-17.203125 5.7109375 -17.203125 5.7109375 -15.375 8.3125 C-14.92125 9.199375 -14.4675 10.08625 -14 11 C-13.4121875 12.1446875 -13.4121875 12.1446875 -12.8125 13.3125 C-12.544375 13.869375 -12.27625 14.42625 -12 15 C-11.484375 14.38125 -10.96875 13.7625 -10.4375 13.125 C-7.45541385 10.52523258 -4.81553799 9.88050877 -1 9 C-0.67 6.03 -0.34 3.06 0 0 Z " fill="#F8F8FD" transform="translate(125,34)"/>
<path d="M0 0 C1.29808594 -0.00257812 2.59617187 -0.00515625 3.93359375 -0.0078125 C6.96361541 0.10308173 9.62748638 0.41245334 12.5625 1.125 C11.9025 2.775 11.2425 4.425 10.5625 6.125 C9.9025 6.125 9.2425 6.125 8.5625 6.125 C8.5625 6.785 8.5625 7.445 8.5625 8.125 C7.9025 8.125 7.2425 8.125 6.5625 8.125 C6.57410156 8.75148438 6.58570312 9.37796875 6.59765625 10.0234375 C6.60667969 10.84070313 6.61570312 11.65796875 6.625 12.5 C6.63660156 13.31210938 6.64820312 14.12421875 6.66015625 14.9609375 C6.5625 17.125 6.5625 17.125 5.5625 19.125 C4.5725 19.125 3.5825 19.125 2.5625 19.125 C2.5625 15.495 2.5625 11.865 2.5625 8.125 C-3.0475 8.125 -8.6575 8.125 -14.4375 8.125 C-14.4375 7.465 -14.4375 6.805 -14.4375 6.125 C-13.1175 6.125 -11.7975 6.125 -10.4375 6.125 C-10.4375 5.465 -10.4375 4.805 -10.4375 4.125 C-11.0975 4.125 -11.7575 4.125 -12.4375 4.125 C-12.1075 3.135 -11.7775 2.145 -11.4375 1.125 C-7.85396736 -0.39953467 -3.82611339 -0.00758397 0 0 Z " fill="#6A68DB" transform="translate(82.4375,88.875)"/>
<path d="M0 0 C2.45898655 -0.08076963 4.91533742 -0.14037143 7.375 -0.1875 C8.07367188 -0.21263672 8.77234375 -0.23777344 9.4921875 -0.26367188 C11.5234375 -0.29296875 11.5234375 -0.29296875 15 0 C17.13586678 3.20380017 17.23132175 4.01939967 17.125 7.6875 C17.10695313 8.49574219 17.08890625 9.30398437 17.0703125 10.13671875 C17.04710938 10.75160156 17.02390625 11.36648437 17 12 C14.15504507 13.42247747 11.6688204 13.20793601 8.5 13.25 C7.3346875 13.27578125 6.169375 13.3015625 4.96875 13.328125 C3.49921875 13.16570312 3.49921875 13.16570312 2 13 C-0.20914 9.68629 -0.22481553 8.6553979 -0.125 4.8125 C-0.10695312 3.91144531 -0.08890625 3.01039062 -0.0703125 2.08203125 C-0.04710937 1.39496094 -0.02390625 0.70789063 0 0 Z " fill="#151A28" transform="translate(59,75)"/>
<path d="M0 0 C2.45862401 -0.05383848 4.9160755 -0.09359038 7.375 -0.125 C8.42300781 -0.15013672 8.42300781 -0.15013672 9.4921875 -0.17578125 C11.32897486 -0.19344267 13.16601963 -0.10303261 15 0 C17 2 17 2 17.23046875 4.34765625 C17.20919922 5.69150391 17.20919922 5.69150391 17.1875 7.0625 C17.18105469 7.96097656 17.17460937 8.85945313 17.16796875 9.78515625 C17 12 17 12 16 13 C13.87991884 13.17813354 11.75208388 13.26789228 9.625 13.3125 C7.88089844 13.36857422 7.88089844 13.36857422 6.1015625 13.42578125 C3 13 3 13 1.09765625 11.27734375 C-0.14419714 8.70082941 -0.31284517 7.09115729 -0.1875 4.25 C-0.16042969 3.45078125 -0.13335938 2.6515625 -0.10546875 1.828125 C-0.07066406 1.22484375 -0.03585938 0.6215625 0 0 Z " fill="#0E1417" transform="translate(7,75)"/>
<path d="M0 0 C1.76150391 -0.02126953 1.76150391 -0.02126953 3.55859375 -0.04296875 C6.5625 0.1875 6.5625 0.1875 8.5625 2.1875 C8.79296875 4.53515625 8.79296875 4.53515625 8.75 7.25 C8.74355469 8.14847656 8.73710938 9.04695313 8.73046875 9.97265625 C8.5625 12.1875 8.5625 12.1875 7.5625 13.1875 C5.41942104 13.31287741 3.27171114 13.36324364 1.125 13.375 C-0.04933594 13.38917969 -1.22367188 13.40335938 -2.43359375 13.41796875 C-5.4375 13.1875 -5.4375 13.1875 -7.4375 11.1875 C-7.66796875 8.83984375 -7.66796875 8.83984375 -7.625 6.125 C-7.61855469 5.22652344 -7.61210938 4.32804687 -7.60546875 3.40234375 C-7.25628321 -1.20203297 -3.92031477 0.02146941 0 0 Z " fill="#10151D" transform="translate(41.4375,74.8125)"/>
<path d="M0 0 C-0.33 8.91 -0.66 17.82 -1 27 C-2.65 26.67 -4.3 26.34 -6 26 C-6 25.34 -6 24.68 -6 24 C-7.32 24 -8.64 24 -10 24 C-9.24522846 6.92654714 -9.24522846 6.92654714 -4.5859375 1.2890625 C-3 0 -3 0 0 0 Z " fill="#F6F6FC" transform="translate(101,39)"/>
<path d="M0 0 C1.32 0 2.64 0 4 0 C5.79399364 8.27997064 3.66696829 13.5011133 0 21 C-0.66 21 -1.32 21 -2 21 C-2 21.66 -2 22.32 -2 23 C-2.99 23 -3.98 23 -5 23 C-5 22.34 -5 21.68 -5 21 C-6.32 21.33 -7.64 21.66 -9 22 C-9.66 20.02 -10.32 18.04 -11 16 C-10.34 15.67 -9.68 15.34 -9 15 C-7.37265234 11.65489648 -7 9.81164166 -7 6 C-6.34 5.67 -5.68 5.34 -5 5 C-5 5.99 -5 6.98 -5 8 C-4.01 7.67 -3.02 7.34 -2 7 C-0.77030122 3.48809191 -0.77030122 3.48809191 0 0 Z " fill="#D0CBF7" transform="translate(60,43)"/>
<path d="M0 0 C3.36275219 0.2882359 5.07297707 1.05076665 7.875 3 C10.12545531 6.17711338 10.34411208 6.86802688 10.125 10.5625 C9.53564455 13.89847427 9.06180805 14.92960749 6.75 17.5625 C3.75566447 19.12772085 2.3150937 19.51001442 -1 19 C-3.3125 18 -3.3125 18 -5 17 C-5 15.35 -5 13.7 -5 12 C-4.01 12 -3.02 12 -2 12 C-2 11.34 -2 10.68 -2 10 C-1.34 10 -0.68 10 0 10 C0 6.7 0 3.4 0 0 Z " fill="#9090F7" transform="translate(109,22)"/>
<path d="M0 0 C1.99954746 -0.04254356 4.00041636 -0.04080783 6 0 C7 1 7 1 7.25 4.8125 C7.22395215 8.43966299 6.63994297 10.36005703 4 13 C4.99 13.33 5.98 13.66 7 14 C6.67 16.31 6.34 18.62 6 21 C2.04 21 -1.92 21 -6 21 C-5.3125 18.125 -5.3125 18.125 -4 15 C-1.375 13.625 -1.375 13.625 1 13 C0.505 12.113125 0.01 11.22625 -0.5 10.3125 C-1.94378674 7.12413762 -2.30159922 5.41812454 -2 2 C-1.34 2 -0.68 2 0 2 C0 1.34 0 0.68 0 0 Z " fill="#9190F5" transform="translate(18,53)"/>
<path d="M0 0 C0.99 0 1.98 0 3 0 C3.02578125 0.98742187 3.0515625 1.97484375 3.078125 2.9921875 C3.13484375 4.27351563 3.1915625 5.55484375 3.25 6.875 C3.29640625 8.15117188 3.3428125 9.42734375 3.390625 10.7421875 C3.69226562 12.35480469 3.69226562 12.35480469 4 14 C5.97642594 15.23468901 5.97642594 15.23468901 8 16 C6.99098633 15.99476318 5.98197266 15.98952637 4.94238281 15.98413086 C1.19271738 15.96600738 -2.55694418 15.95454112 -6.30664062 15.94506836 C-7.92839204 15.94004495 -9.55013895 15.93322506 -11.171875 15.92456055 C-13.50521969 15.91240771 -15.8385044 15.90675172 -18.171875 15.90234375 C-18.89493835 15.89718246 -19.61800171 15.89202118 -20.36297607 15.88670349 C-23.74589795 15.88632796 -26.75255338 16.05061237 -30 17 C-34.25425693 17.22790662 -37.35008475 17.33594576 -41 15 C-40.67 13.68 -40.34 12.36 -40 11 C-39.01 11.99 -38.02 12.98 -37 14 C-37 12.68 -37 11.36 -37 10 C-34.69 10 -32.38 10 -30 10 C-30 11.65 -30 13.3 -30 15 C-29.01 14.67 -28.02 14.34 -27 14 C-26.67 13.34 -26.34 12.68 -26 12 C-25.01 12 -24.02 12 -23 12 C-23.33 10.02 -23.66 8.04 -24 6 C-23.34 6.33 -22.68 6.66 -22 7 C-21.95745644 8.99954746 -21.95919217 11.00041636 -22 13 C-22.33 13.33 -22.66 13.66 -23 14 C-17.555 14.495 -17.555 14.495 -12 15 C-11.67 11.04 -11.34 7.08 -11 3 C-10.34 3 -9.68 3 -9 3 C-9.33 6.63 -9.66 10.26 -10 14 C-6.7 14.33 -3.4 14.66 0 15 C0 14.34 0 13.68 0 13 C-0.66 12.67 -1.32 12.34 -2 12 C-1.01 11.67 -0.02 11.34 1 11 C0.505 10.505 0.505 10.505 0 10 C-0.07205511 8.31391034 -0.08386068 6.62499341 -0.0625 4.9375 C-0.05347656 4.01839844 -0.04445312 3.09929687 -0.03515625 2.15234375 C-0.02355469 1.44207031 -0.01195312 0.73179688 0 0 Z " fill="#9899B0" transform="translate(50,98)"/>
<path d="M0 0 C0.33 0 0.66 0 1 0 C1.02688151 1.64574566 1.04634123 3.29161413 1.0625 4.9375 C1.07410156 5.85402344 1.08570312 6.77054687 1.09765625 7.71484375 C1 10 1 10 0 11 C2.64 11 5.28 11 8 11 C8 12.65 8 14.3 8 16 C12.62 16 17.24 16 22 16 C22 16.33 22 16.66 22 17 C14.41 17.33 6.82 17.66 -1 18 C-1.66 19.98 -2.32 21.96 -3 24 C-2.34 24.33 -1.68 24.66 -1 25 C-2.98 25 -4.96 25 -7 25 C-7 20.05 -7 15.1 -7 10 C-6.34 10 -5.68 10 -5 10 C-5 9.34 -5 8.68 -5 8 C-4.34 8 -3.68 8 -3 8 C-2.67 6.68 -2.34 5.36 -2 4 C-1.34 4.33 -0.68 4.66 0 5 C0 3.35 0 1.7 0 0 Z " fill="#9595DD" transform="translate(96,87)"/>
<path d="M0 0 C0.33 0 0.66 0 1 0 C1.33 5.28 1.66 10.56 2 16 C6.62 16 11.24 16 16 16 C16 16.66 16 17.32 16 18 C14.35 18 12.7 18 11 18 C11 22.62 11 27.24 11 32 C10.34 30.68 9.68 29.36 9 28 C8.34 29.32 7.68 30.64 7 32 C7.99 32.33 8.98 32.66 10 33 C10 33.66 10 34.32 10 35 C7.0625 34.1875 7.0625 34.1875 4 33 C2.74742108 29.24226324 3.25434996 26.86382292 4 23 C4.66 21.68 5.32 20.36 6 19 C-0.93 18.505 -0.93 18.505 -8 18 C-8 17.34 -8 16.68 -8 16 C-5.03 16 -2.06 16 1 16 C0.649375 14.845 0.29875 13.69 -0.0625 12.5 C-1.20737585 8.0165701 -0.80854536 4.527854 0 0 Z " fill="#3F41A5" transform="translate(50,79)"/>
<path d="M0 0 C1.7074998 1.28062485 3.37373596 2.61767557 5 4 C5 4.66 5 5.32 5 6 C4.195625 6.45375 3.39125 6.9075 2.5625 7.375 C-0.45767834 8.87739737 -0.45767834 8.87739737 -1 13 C-3.97 13 -6.94 13 -10 13 C-9.67 15.97 -9.34 18.94 -9 22 C-9.66 22.33 -10.32 22.66 -11 23 C-11.66 23.99 -12.32 24.98 -13 26 C-14.3271261 22.0186217 -14.06915913 18.14954773 -14 14 C-13.34 14 -12.68 14 -12 14 C-12.33 12.35 -12.66 10.7 -13 9 C-12.01 8.67 -11.02 8.34 -10 8 C-9.67 7.01 -9.34 6.02 -9 5 C-8.34 5 -7.68 5 -7 5 C-6.67 4.01 -6.34 3.02 -6 2 C-5.34 2.33 -4.68 2.66 -4 3 C-4 2.34 -4 1.68 -4 1 C-3.01 1.33 -2.02 1.66 -1 2 C-0.67 1.34 -0.34 0.68 0 0 Z " fill="#C8C8F9" transform="translate(68,60)"/>
<path d="M0 0 C3.39934551 0.13295136 6.79901776 0.25694393 10.19866943 0.3817749 C16.82724915 0.62693672 23.45545158 0.88078051 30.08343506 1.14154053 C30.08343506 1.47154053 30.08343506 1.80154053 30.08343506 2.14154053 C5.33343506 2.14154053 -19.41656494 2.14154053 -44.91656494 2.14154053 C-44.91656494 14.02154053 -44.91656494 25.90154053 -44.91656494 38.14154053 C-45.24656494 38.14154053 -45.57656494 38.14154053 -45.91656494 38.14154053 C-45.91656494 25.93154053 -45.91656494 13.72154053 -45.91656494 1.14154053 C-31.94597787 -3.51532183 -14.39032343 -0.5700049 0 0 Z " fill="#E6E6F7" transform="translate(93.91656494140625,13.85845947265625)"/>
<path d="M0 0 C1.32 0 2.64 0 4 0 C3.67 3.63 3.34 7.26 3 11 C2.34 11 1.68 11 1 11 C0.67 11.99 0.34 12.98 0 14 C-2.64 14 -5.28 14 -8 14 C-8.33 14.99 -8.66 15.98 -9 17 C-9.99 16.67 -10.98 16.34 -12 16 C-12.33 16.66 -12.66 17.32 -13 18 C-14.65 17.67 -16.3 17.34 -18 17 C-18 15.35 -18 13.7 -18 12 C-12.6408575 10.28963537 -7.60474681 9.51736124 -2 9 C-1.34 6.03 -0.68 3.06 0 0 Z " fill="#F7D570" transform="translate(21,93)"/>
<path d="M0 0 C1 1 1 1 1.0625 3.5625 C1.041875 4.366875 1.02125 5.17125 1 6 C0.01 6.33 -0.98 6.66 -2 7 C-1.649375 7.556875 -1.29875 8.11375 -0.9375 8.6875 C0.21845993 11.53886783 -0.19032562 13.08517222 -1 16 C-3.3125 16.6875 -3.3125 16.6875 -6 17 C-7.65234375 15.83203125 -7.65234375 15.83203125 -9 14 C-9.328125 11.625 -9.328125 11.625 -9.25 9 C-9.23453125 8.13375 -9.2190625 7.2675 -9.203125 6.375 C-9 4 -9 4 -8 1 C-5.26752652 -0.36623674 -3.01801098 -0.128426 0 0 Z " fill="#634945" transform="translate(51,52)"/>
<path d="M0 0 C1.32 0 2.64 0 4 0 C4 1.65 4 3.3 4 5 C2.68 5 1.36 5 0 5 C0.185625 6.0725 0.37125 7.145 0.5625 8.25 C0.95741425 11.63497925 0.82445674 12.89720177 0 16 C-0.08765291 17.33248961 -0.13057168 18.66853867 -0.1328125 20.00390625 C-0.13410156 20.74447266 -0.13539062 21.48503906 -0.13671875 22.24804688 C-0.13285156 23.01181641 -0.12898438 23.77558594 -0.125 24.5625 C-0.12886719 25.33013672 -0.13273437 26.09777344 -0.13671875 26.88867188 C-0.130981 30.17927139 -0.04747031 32.85758907 1 36 C0 37 0 37 -2.5625 37.0625 C-3.366875 37.041875 -4.17125 37.02125 -5 37 C-4.67 36.34 -4.34 35.68 -4 35 C-3.91360131 32.59161322 -3.88432236 30.21266119 -3.90234375 27.8046875 C-3.90446617 26.74352219 -3.90446617 26.74352219 -3.90663147 25.66091919 C-3.912234 23.39890331 -3.92478682 21.13698602 -3.9375 18.875 C-3.94251468 17.34244935 -3.94707764 15.80989714 -3.95117188 14.27734375 C-3.96220423 10.51819112 -3.97947048 6.75911228 -4 3 C-2.02 3.495 -2.02 3.495 0 4 C0 2.68 0 1.36 0 0 Z " fill="#1F1F7D" transform="translate(100,62)"/>
<path d="M0 0 C2.4375 0.8125 2.4375 0.8125 5 2 C5.33 2.99 5.66 3.98 6 5 C5.34 5 4.68 5 4 5 C4.309375 6.0725 4.61875 7.145 4.9375 8.25 C5.66812096 10.82866222 6.37482904 13.39512102 7 16 C6.401875 16.185625 5.80375 16.37125 5.1875 16.5625 C1.90018201 18.72273753 1.35145313 21.35107655 0 25 C-0.99 24.67 -1.98 24.34 -3 24 C-2.69408272 20.37441264 -2.37915282 16.74966425 -2.0625 13.125 C-1.97548828 12.09246094 -1.88847656 11.05992188 -1.79882812 9.99609375 C-1.71181641 9.00996094 -1.62480469 8.02382813 -1.53515625 7.0078125 C-1.456604 6.09660645 -1.37805176 5.18540039 -1.29711914 4.24658203 C-1 2 -1 2 0 0 Z " fill="#E1E2F9" transform="translate(12,50)"/>
<path d="M0 0 C2.64 0 5.28 0 8 0 C8 5.28 8 10.56 8 16 C5.36 16 2.72 16 0 16 C0 10.72 0 5.44 0 0 Z " fill="#B5B5FC" transform="translate(86,20)"/>
<path d="M0 0 C0.33 1.32 0.66 2.64 1 4 C2.32 4 3.64 4 5 4 C6.1482685 6.296537 6.11561175 7.58313167 6.09765625 10.1328125 C6.09443359 10.93847656 6.09121094 11.74414062 6.08789062 12.57421875 C6.07951172 13.41597656 6.07113281 14.25773437 6.0625 15.125 C6.05798828 15.97449219 6.05347656 16.82398437 6.04882812 17.69921875 C6.03702874 19.79950909 6.01909306 21.8997633 6 24 C5.67 24 5.34 24 5 24 C5 20.7 5 17.4 5 14 C1.37 14 -2.26 14 -6 14 C-6.33 14.99 -6.66 15.98 -7 17 C-7.33 14.03 -7.66 11.06 -8 8 C-4.535 7.505 -4.535 7.505 -1 7 C-0.67 4.69 -0.34 2.38 0 0 Z " fill="#D9D6FA" transform="translate(90,59)"/>
<path d="M0 0 C0.99 0 1.98 0 3 0 C3 4.62 3 9.24 3 14 C5.97 14.495 5.97 14.495 9 15 C9.33 14.34 9.66 13.68 10 13 C10 13.99 10 14.98 10 16 C3.25 17.125 3.25 17.125 1 16 C-1.71760108 15.92818179 -4.40859388 15.90700494 -7.125 15.9375 C-8.25615234 15.94426758 -8.25615234 15.94426758 -9.41015625 15.95117188 C-11.27347127 15.96296501 -13.13674555 15.98090058 -15 16 C-14.67 14.68 -14.34 13.36 -14 12 C-13.67 12.66 -13.34 13.32 -13 14 C-12.01 14 -11.02 14 -10 14 C-10 12.02 -10 10.04 -10 8 C-9.67 8.66 -9.34 9.32 -9 10 C-7.68 9.67 -6.36 9.34 -5 9 C-5 9.99 -5 10.98 -5 12 C-3.35 12.33 -1.7 12.66 0 13 C0 8.71 0 4.42 0 0 Z " fill="#BEBED2" transform="translate(75,98)"/>
<path d="M0 0 C3.32983051 2.69557708 4.54451694 6.04940313 6 10 C6 11.32 6 12.64 6 14 C4.68 14 3.36 14 2 14 C2.33 15.98 2.66 17.96 3 20 C4.98 20.33 6.96 20.66 9 21 C9.33 20.34 9.66 19.68 10 19 C10.33 19.99 10.66 20.98 11 22 C11.66 22.33 12.32 22.66 13 23 C8.71 22.67 4.42 22.34 0 22 C-0.48828125 18.90755208 -0.9765625 15.81510417 -1.46484375 12.72265625 C-1.71845136 10.09573071 -1.71845136 10.09573071 -3 9 C-4.68183948 8.76712992 -6.3712416 8.58735834 -8.0625 8.4375 C-8.98160156 8.35371094 -9.90070312 8.26992187 -10.84765625 8.18359375 C-11.55792969 8.12300781 -12.26820312 8.06242187 -13 8 C-13 7.67 -13 7.34 -13 7 C-9.04 7 -5.08 7 -1 7 C-0.67 4.69 -0.34 2.38 0 0 Z " fill="#8B88D5" transform="translate(25,67)"/>
<path d="M0 0 C4.62 0 9.24 0 14 0 C14 0.66 14 1.32 14 2 C12.68 2 11.36 2 10 2 C10.14063135 4.29199177 10.28765943 6.58359186 10.4375 8.875 C10.51871094 10.15117188 10.59992187 11.42734375 10.68359375 12.7421875 C10.79206027 15.88300152 10.79206027 15.88300152 12 18 C9.69 18 7.38 18 5 18 C5 12.72 5 7.44 5 2 C3.35 2 1.7 2 0 2 C0 1.34 0 0.68 0 0 Z M8 14 C9 16 9 16 9 16 Z " fill="#232372" transform="translate(26,95)"/>
<path d="M0 0 C7.59 0 15.18 0 23 0 C23 0.66 23 1.32 23 2 C22.34 2 21.68 2 21 2 C21.01160156 2.62648438 21.02320312 3.25296875 21.03515625 3.8984375 C21.04417969 4.71570313 21.05320312 5.53296875 21.0625 6.375 C21.07410156 7.18710938 21.08570312 7.99921875 21.09765625 8.8359375 C21 11 21 11 20 13 C19.01 13 18.02 13 17 13 C17 9.37 17 5.74 17 2 C11.39 2 5.78 2 0 2 C0 1.34 0 0.68 0 0 Z " fill="#3A39A0" transform="translate(68,95)"/>
<path d="M0 0 C5.61 0 11.22 0 17 0 C17 3.63 17 7.26 17 11 C17.99 11 18.98 11 20 11 C20.33 10.34 20.66 9.68 21 9 C21 10.65 21 12.3 21 14 C22.299375 14.12375 23.59875 14.2475 24.9375 14.375 C27.15234375 14.5859375 27.15234375 14.5859375 29 15 C29.495 15.99 29.495 15.99 30 17 C25.71 17 21.42 17 17 17 C15.6425071 11.57002841 15.93915439 6.59779635 16 1 C11.05 1 6.1 1 1 1 C1 4.3 1 7.6 1 11 C0.01 11 -0.98 11 -2 11 C-2.33 10.01 -2.66 9.02 -3 8 C-2.01 8 -1.02 8 0 8 C0 5.36 0 2.72 0 0 Z " fill="#9490C1" transform="translate(68,97)"/>
<path d="M0 0 C2.5625 2.125 2.5625 2.125 5 5 C4.8125 8.3125 4.8125 8.3125 4 11 C5.0725 10.79375 6.145 10.5875 7.25 10.375 C10.87619096 10.0123809 12.08291076 10.01637931 15 12 C15 11.01 15 10.02 15 9 C14.34 8.67 13.68 8.34 13 8 C14.32 8.33 15.64 8.66 17 9 C16.67 10.32 16.34 11.64 16 13 C3.13 12.505 3.13 12.505 -10 12 C-10 11.67 -10 11.34 -10 11 C-7.36 10.34 -4.72 9.68 -2 9 C-1.34 6.03 -0.68 3.06 0 0 Z " fill="#A3A0E5" transform="translate(78,77)"/>
<path d="M0 0 C2.33944736 0.28730055 4.6739143 0.61936779 7 1 C8.0326802 3.78823655 8.04509293 4.8677274 7.0625 7.75 C6.711875 8.4925 6.36125 9.235 6 10 C6.66 10 7.32 10 8 10 C8 10.66 8 11.32 8 12 C4.625 12.1875 4.625 12.1875 1 12 C-1.69461986 7.95807022 -1.23200889 5.7948504 -1 1 C-0.67 0.67 -0.34 0.34 0 0 Z " fill="#0F1315" transform="translate(60,76)"/>
<path d="M0 0 C1.125 3.75 1.125 3.75 0 6 C-0.99 6 -1.98 6 -3 6 C-2.67 7.32 -2.34 8.64 -2 10 C-3.8125 10.625 -3.8125 10.625 -6 11 C-6.99 10.34 -7.98 9.68 -9 9 C-9.37650785 5.54867807 -9.60658065 3.07836561 -7.875 0 C-5.06863762 -1.49672661 -2.99840718 -0.73294398 0 0 Z " fill="#312D3F" transform="translate(78,53)"/>
<path d="M0 0 C0.0270043 1.45823212 0.04639787 2.91660675 0.0625 4.375 C0.07410156 5.18710937 0.08570312 5.99921875 0.09765625 6.8359375 C0 9 0 9 -1 11 C-1.99 11 -2.98 11 -4 11 C-4 10.34 -4 9.68 -4 9 C-6.31 9 -8.62 9 -11 9 C-10.74682781 5.58217544 -9.71625376 4.72255923 -7.1875 2.25 C-4 0 -4 0 0 0 Z " fill="#7672C7" transform="translate(108,21)"/>
<path d="M0 0 C0.99 0 1.98 0 3 0 C4.94281628 7.77126511 2.39628641 12.94888635 -1 20 C-1.66 20 -2.32 20 -3 20 C-3 20.66 -3 21.32 -3 22 C-3.99 22 -4.98 22 -6 22 C-5.59114744 19.13803211 -5.18380225 17.26038652 -3.5 14.875 C-1.50711059 11.0552953 -1.45007286 7.58701191 -1.2109375 3.328125 C-1 1 -1 1 0 0 Z " fill="#DFB2BA" transform="translate(61,44)"/>
<path d="M0 0 C1.42944945 2.35438733 2.08661261 3.48032433 1.625 6.25 C1.41875 6.8275 1.2125 7.405 1 8 C1.66 8.33 2.32 8.66 3 9 C2.360625 9.763125 1.72125 10.52625 1.0625 11.3125 C-2.2968064 15.68977803 -2.27928006 19.87132239 -2.5625 25.1875 C-2.60568359 25.93708984 -2.64886719 26.68667969 -2.69335938 27.45898438 C-2.79922685 29.30578375 -2.9000976 31.15286834 -3 33 C-3.66 33 -4.32 33 -5 33 C-5.18166021 15.41932897 -5.18166021 15.41932897 -4 7 C-4 6.34 -4 5.68 -4 5 C-2.68 5 -1.36 5 0 5 C0 3.35 0 1.7 0 0 Z " fill="#545594" transform="translate(104,62)"/>
<path d="M0 0 C3.96 0 7.92 0 12 0 C11.67 2.31 11.34 4.62 11 7 C7.37 7 3.74 7 0 7 C0 4.69 0 2.38 0 0 Z " fill="#BAB9F7" transform="translate(72,20)"/>
<path d="M0 0 C0.99 0 1.98 0 3 0 C3 7.26 3 14.52 3 22 C1.68 22 0.36 22 -1 22 C-1.09377123 14.58165418 -1.17402193 7.33763707 0 0 Z " fill="#9392E8" transform="translate(101,40)"/>
<path d="M0 0 C1.65 0.33 3.3 0.66 5 1 C5 2.98 5 4.96 5 7 C6.65 7 8.3 7 10 7 C9.67 8.32 9.34 9.64 9 11 C9 10.01 9 9.02 9 8 C7.68 8 6.36 8 5 8 C5.33 11.96 5.66 15.92 6 20 C3.69 20 1.38 20 -1 20 C-1 19.34 -1 18.68 -1 18 C-3.31 18 -5.62 18 -8 18 C-8 17.67 -8 17.34 -8 17 C-4.92382812 16.70703125 -4.92382812 16.70703125 -1.84765625 16.4140625 C-1.23792969 16.27742188 -0.62820312 16.14078125 0 16 C0.33 15.34 0.66 14.68 1 14 C1.66 14 2.32 14 3 14 C2.979375 12.7625 2.95875 11.525 2.9375 10.25 C2.93233319 7.3359175 3.06984442 4.79046673 4 2 C2.35 2 0.7 2 -1 2 C-0.67 1.34 -0.34 0.68 0 0 Z " fill="#D8AE6B" transform="translate(21,90)"/>
<path d="M0 0 C3.63 0 7.26 0 11 0 C11 2.31 11 4.62 11 7 C7.37 7 3.74 7 0 7 C0 4.69 0 2.38 0 0 Z " fill="#B9B9F5" transform="translate(72,31)"/>
<path d="M0 0 C1.65 0 3.3 0 5 0 C3.02 0.99 3.02 0.99 1 2 C1 3.98 1 5.96 1 8 C1.66 8 2.32 8 3 8 C3 8.66 3 9.32 3 10 C5.97 10 8.94 10 12 10 C11.67 10.99 11.34 11.98 11 13 C8.36 13 5.72 13 3 13 C3 14.98 3 16.96 3 19 C3.66 19.33 4.32 19.66 5 20 C4.67 20.66 4.34 21.32 4 22 C2.68 22 1.36 22 0 22 C0 14.74 0 7.48 0 0 Z " fill="#CACBFD" transform="translate(52,20)"/>
<path d="M0 0 C0 0.99 0 1.98 0 3 C2.31 3 4.62 3 7 3 C7 4.32 7 5.64 7 7 C2.38 7 -2.24 7 -7 7 C-7 5.02 -7 3.04 -7 1 C-2.25 0 -2.25 0 0 0 Z " fill="#20216E" transform="translate(111,96)"/>
<path d="M0 0 C1.65 0 3.3 0 5 0 C5 1.65 5 3.3 5 5 C6.32 4.67 7.64 4.34 9 4 C9 7.3 9 10.6 9 14 C8.34 12.68 7.68 11.36 7 10 C6.34 11.32 5.68 12.64 5 14 C5.99 14.33 6.98 14.66 8 15 C8 15.66 8 16.32 8 17 C5.0625 16.1875 5.0625 16.1875 2 15 C0.53966649 10.61899946 1.22609161 6.77543691 3.0625 2.5625 C3.371875 2.046875 3.68125 1.53125 4 1 C2.68 0.67 1.36 0.34 0 0 Z " fill="#67669F" transform="translate(52,97)"/>
<path d="M0 0 C0.33 0 0.66 0 1 0 C1.04950925 4.62644904 1.08577116 9.25274318 1.10986328 13.87939453 C1.11990887 15.45266405 1.13354781 17.02591496 1.15087891 18.59912109 C1.17519096 20.86300252 1.18649747 23.12663666 1.1953125 25.390625 C1.20563507 26.09181458 1.21595764 26.79300415 1.22659302 27.51544189 C1.22750579 31.50569803 0.84594271 33.30811458 -1 37 C-1 28.75 -1 20.5 -1 12 C-2.32 11.67 -3.64 11.34 -5 11 C-4.03320312 10.64808594 -4.03320312 10.64808594 -3.046875 10.2890625 C-0.7922092 9.18838927 -0.7922092 9.18838927 -0.390625 6.8359375 C-0.34421875 6.02382813 -0.2978125 5.21171875 -0.25 4.375 C-0.19328125 3.55773438 -0.1365625 2.74046875 -0.078125 1.8984375 C-0.05234375 1.27195313 -0.0265625 0.64546875 0 0 Z " fill="#EFEAF7" transform="translate(125,34)"/>
<path d="M0 0 C1.98 0 3.96 0 6 0 C6.33 1.65 6.66 3.3 7 5 C5.68 5.33 4.36 5.66 3 6 C3 7.32 3 8.64 3 10 C1.68 9.67 0.36 9.34 -1 9 C-1.33 6.69 -1.66 4.38 -2 2 C-1.34 2 -0.68 2 0 2 C0 1.34 0 0.68 0 0 Z " fill="#232231" transform="translate(18,53)"/>
<path d="M0 0 C2.31 0 4.62 0 7 0 C7 1.65 7 3.3 7 5 C7.99 5.33 8.98 5.66 10 6 C5.74199462 7.41933513 1.77088462 7.72651677 -2.4375 6 C-2.953125 5.67 -3.46875 5.34 -4 5 C-3.67 3.68 -3.34 2.36 -3 1 C-2.01 1.99 -1.02 2.98 0 4 C0 2.68 0 1.36 0 0 Z " fill="#9190CF" transform="translate(13,108)"/>
<path d="M0 0 C0.33 0 0.66 0 1 0 C1.08090971 1.62418745 1.13914995 3.24951745 1.1875 4.875 C1.22230469 5.77992187 1.25710937 6.68484375 1.29296875 7.6171875 C1.19628906 8.40351562 1.09960938 9.18984375 1 10 C0.01 10.66 -0.98 11.32 -2 12 C-2.66 11.01 -3.32 10.02 -4 9 C-3.67 12.63 -3.34 16.26 -3 20 C-3.99 20.33 -4.98 20.66 -6 21 C-7.17571451 17.32589215 -7.07366746 13.83070817 -7 10 C-6.34 10 -5.68 10 -5 10 C-5 9.34 -5 8.68 -5 8 C-4.34 8 -3.68 8 -3 8 C-2.67 6.68 -2.34 5.36 -2 4 C-1.34 4.33 -0.68 4.66 0 5 C0 3.35 0 1.7 0 0 Z " fill="#807FD4" transform="translate(96,87)"/>
<path d="M0 0 C3 1 3 1 4.3125 3.25 C5.86833204 5.78542999 6.90834083 6.85945417 9.1875 8.625 C10.115625 9.40875 11.04375 10.1925 12 11 C12 11.99 12 12.98 12 14 C6.98490396 12.71706845 4.44503751 10.82781946 1 7 C0.34 6.34 -0.32 5.68 -1 5 C-0.625 2.375 -0.625 2.375 0 0 Z " fill="#B29184" transform="translate(81,75)"/>
<path d="M0 0 C1.77706209 2.66559313 2.87548273 5.0280615 4 8 C4.66 7.67 5.32 7.34 6 7 C6.33 11.62 6.66 16.24 7 21 C6.67 20.01 6.34 19.02 6 18 C4.68 18.33 3.36 18.66 2 19 C0.67611771 12.56971459 -0.24794402 6.5705166 0 0 Z " fill="#4F5191" transform="translate(105,78)"/>
<path d="M0 0 C1.65 0 3.3 0 5 0 C5 1.32 5 2.64 5 4 C3.7625 4.433125 2.525 4.86625 1.25 5.3125 C-1.91596559 6.49131697 -4.43121425 7.75231247 -7 10 C-7.66 7.69 -8.32 5.38 -9 3 C-3.25 2.875 -3.25 2.875 -1 4 C-0.67 2.68 -0.34 1.36 0 0 Z " fill="#CFCEF4" transform="translate(119,40)"/>
<path d="M0 0 C2.4375 0.8125 2.4375 0.8125 5 2 C5.33 2.99 5.66 3.98 6 5 C5.34 5 4.68 5 4 5 C4.33 7.31 4.66 9.62 5 12 C3.02 12 1.04 12 -1 12 C-1.02698189 10.37509046 -1.04638757 8.75005367 -1.0625 7.125 C-1.07410156 6.22007813 -1.08570313 5.31515625 -1.09765625 4.3828125 C-1 2 -1 2 0 0 Z " fill="#DCDCF3" transform="translate(12,50)"/>
<path d="M0 0 C5.28 0 10.56 0 16 0 C16 0.33 16 0.66 16 1 C14.02 1.33 12.04 1.66 10 2 C9.84188612 5.05270463 9.84188612 5.05270463 11 8 C10.01 9.485 10.01 9.485 9 11 C8.67 10.01 8.34 9.02 8 8 C7.360625 7.896875 6.72125 7.79375 6.0625 7.6875 C5.381875 7.460625 4.70125 7.23375 4 7 C2.875 4 2.875 4 2 1 C1.34 0.67 0.68 0.34 0 0 Z " fill="#DDDFF7" transform="translate(16,46)"/>
<path d="M0 0 C0 0.99 0 1.98 0 3 C0.66 3.33 1.32 3.66 2 4 C1.01 5.485 1.01 5.485 0 7 C-0.99 6.67 -1.98 6.34 -3 6 C-3.33 6.66 -3.66 7.32 -4 8 C-5.65 7.67 -7.3 7.34 -9 7 C-9 5.35 -9 3.7 -9 2 C-2.25 0 -2.25 0 0 0 Z " fill="#F4D376" transform="translate(12,103)"/>
<path d="M0 0 C0.66 0 1.32 0 2 0 C2 0.66 2 1.32 2 2 C1.34 2 0.68 2 0 2 C0.2548029 3.96048352 0.52936944 5.91840673 0.8125 7.875 C0.96332031 8.96554688 1.11414062 10.05609375 1.26953125 11.1796875 C1.74665741 14.31238846 1.74665741 14.31238846 5 16 C5.33 15.01 5.66 14.02 6 13 C6.33 14.32 6.66 15.64 7 17 C3.7 17 0.4 17 -3 17 C-3.34548714 10.66606918 -2.29342747 5.89738492 0 0 Z " fill="#9F9CE5" transform="translate(54,72)"/>
<path d="M0 0 C2.06242617 -0.02717692 4.12495703 -0.0464758 6.1875 -0.0625 C7.33605469 -0.07410156 8.48460938 -0.08570312 9.66796875 -0.09765625 C12.59300586 -0.01192832 15.16316291 0.32150977 18 1 C17.67 1.66 17.34 2.32 17 3 C14.69 2.34 12.38 1.68 10 1 C9.67 2.32 9.34 3.64 9 5 C6.36 5 3.72 5 1 5 C0.67 3.35 0.34 1.7 0 0 Z " fill="#6F70D4" transform="translate(77,89)"/>
<path d="M0 0 C4.875 1.75 4.875 1.75 6 4 C6.06996014 5.70702735 6.08440154 7.41668003 6.0625 9.125 C6.05347656 10.03507812 6.04445313 10.94515625 6.03515625 11.8828125 C6.02355469 12.58148438 6.01195313 13.28015625 6 14 C5.01 14 4.02 14 3 14 C2.67 11.69 2.34 9.38 2 7 C1.01 6.67 0.02 6.34 -1 6 C0.65 6 2.3 6 4 6 C4 5.34 4 4.68 4 4 C1.36 4 -1.28 4 -4 4 C-2.68 3.67 -1.36 3.34 0 3 C0 2.01 0 1.02 0 0 Z " fill="#6F6FD2" transform="translate(62,91)"/>
<path d="M0 0 C2.31 0 4.62 0 7 0 C7 0.66 7 1.32 7 2 C7.99 2 8.98 2 10 2 C10 2.66 10 3.32 10 4 C9.01 4 8.02 4 7 4 C7 5.98 7 7.96 7 10 C6.01 10 5.02 10 4 10 C1.61685817 6.79192446 0.56231391 3.93619738 0 0 Z " fill="#D5A5A3" transform="translate(97,30)"/>
<path d="M0 0 C0.99 0 1.98 0 3 0 C3.33 0.99 3.66 1.98 4 3 C4.99 3.33 5.98 3.66 7 4 C8.1875 7.0625 8.1875 7.0625 9 10 C8.01 10.33 7.02 10.66 6 11 C5.34 10.34 4.68 9.68 4 9 C3.01 9 2.02 9 1 9 C0.34 9 -0.32 9 -1 9 C-0.67 6.03 -0.34 3.06 0 0 Z " fill="#F0EFFC" transform="translate(11,43)"/>
<path d="M0 0 C0.66 0 1.32 0 2 0 C2.66 0.99 3.32 1.98 4 3 C4.66 3 5.32 3 6 3 C5.67 5.97 5.34 8.94 5 12 C4.01 12 3.02 12 2 12 C-0.13586678 8.79619983 -0.23132175 7.98060033 -0.125 4.3125 C-0.10695313 3.50425781 -0.08890625 2.69601563 -0.0703125 1.86328125 C-0.04710937 1.24839844 -0.02390625 0.63351563 0 0 Z " fill="#22272D" transform="translate(7,75)"/>
<path d="M0 0 C3.68754757 0.49831724 5.60490662 1.10067643 8 4 C6.35 4 4.7 4 3 4 C2.67 3.34 2.34 2.68 2 2 C2 5.63 2 9.26 2 13 C1.01 13 0.02 13 -1 13 C-0.67 14.98 -0.34 16.96 0 19 C-2.475 18.01 -2.475 18.01 -5 17 C-5 15.35 -5 13.7 -5 12 C-4.01 12 -3.02 12 -2 12 C-2 11.34 -2 10.68 -2 10 C-1.34 10 -0.68 10 0 10 C0 6.7 0 3.4 0 0 Z " fill="#9995EC" transform="translate(109,22)"/>
<path d="M0 0 C0.99 0 1.98 0 3 0 C3.02578125 0.98742187 3.0515625 1.97484375 3.078125 2.9921875 C3.13484375 4.27351563 3.1915625 5.55484375 3.25 6.875 C3.29640625 8.15117188 3.3428125 9.42734375 3.390625 10.7421875 C3.62555056 14.09188105 3.62555056 14.09188105 6.046875 15.4453125 C6.69140625 15.62835938 7.3359375 15.81140625 8 16 C5.36 16 2.72 16 0 16 C0 15.01 0 14.02 0 13 C-0.66 12.67 -1.32 12.34 -2 12 C-1.01 11.67 -0.02 11.34 1 11 C0.67 10.67 0.34 10.34 0 10 C-0.07205511 8.31391034 -0.08386068 6.62499341 -0.0625 4.9375 C-0.05347656 4.01839844 -0.04445312 3.09929687 -0.03515625 2.15234375 C-0.02355469 1.44207031 -0.01195312 0.73179688 0 0 Z " fill="#ACADCA" transform="translate(50,98)"/>
<path d="M0 0 C0.33 0.66 0.66 1.32 1 2 C-0.65 2.33 -2.3 2.66 -4 3 C-4 5.64 -4 8.28 -4 11 C-5.98 11 -7.96 11 -10 11 C-10 10.01 -10 9.02 -10 8 C-9.34 7.67 -8.68 7.34 -8 7 C-8 5.02 -8 3.04 -8 1 C-5.36 0.67 -2.72 0.34 0 0 Z " fill="#7876CF" transform="translate(23,87)"/>
<path d="M0 0 C0.6875 1.75 0.6875 1.75 1 4 C-0.4375 6.25 -0.4375 6.25 -2 8 C-1.34 8.33 -0.68 8.66 0 9 C-0.99 9 -1.98 9 -3 9 C-3 9.66 -3 10.32 -3 11 C-4.32 11 -5.64 11 -7 11 C-7 11.66 -7 12.32 -7 13 C-7.66 13 -8.32 13 -9 13 C-9.33 12.01 -9.66 11.02 -10 10 C-8.35 9.34 -6.7 8.68 -5 8 C-5 7.01 -5 6.02 -5 5 C-4.34 5 -3.68 5 -3 5 C-3 3.68 -3 2.36 -3 1 C-2.01 0.67 -1.02 0.34 0 0 Z " fill="#9491ED" transform="translate(24,58)"/>
<path d="M0 0 C0 3 0 3 -1 5 C-1.66 5 -2.32 5 -3 5 C-2.979375 5.804375 -2.95875 6.60875 -2.9375 7.4375 C-3 10 -3 10 -4 11 C-1.36 11.33 1.28 11.66 4 12 C4.33 11.34 4.66 10.68 5 10 C5.33 10.99 5.66 11.98 6 13 C3.36 13 0.72 13 -2 13 C-2.33 13.66 -2.66 14.32 -3 15 C-4.65 14.01 -6.3 13.02 -8 12 C-7.690625 11.484375 -7.38125 10.96875 -7.0625 10.4375 C-5.70940713 7.33334577 -5.38640576 4.34884993 -5 1 C-4.67 1.99 -4.34 2.98 -4 4 C-3.34 4 -2.68 4 -2 4 C-1.34 2.68 -0.68 1.36 0 0 Z " fill="#C0BCED" transform="translate(84,54)"/>
<path d="M0 0 C1.89213369 2.38573379 3.02391783 4.07175348 4 7 C6.00016466 8.20882096 6.00016466 8.20882096 8 9 C6.68 9.33 5.36 9.66 4 10 C4 10.66 4 11.32 4 12 C1 11 1 11 -0.75 8.6875 C-2 6 -2 6 -1.75 3.8125 C-1.21535034 2.52043 -0.62534713 1.25069425 0 0 Z " fill="#928FC8" transform="translate(44,100)"/>
<path d="M0 0 C0.99 0.33 1.98 0.66 3 1 C3.06058594 1.90363281 3.12117188 2.80726562 3.18359375 3.73828125 C3.26738281 4.91777344 3.35117188 6.09726563 3.4375 7.3125 C3.51871094 8.48425781 3.59992188 9.65601562 3.68359375 10.86328125 C3.8867371 14.02590958 3.8867371 14.02590958 5 17 C4 18 4 18 1.4375 18.0625 C0.633125 18.041875 -0.17125 18.02125 -1 18 C-0.67 17.34 -0.34 16.68 0 16 C0.07181821 13.28239892 0.09299506 10.59140612 0.0625 7.875 C0.05798828 7.12089844 0.05347656 6.36679688 0.04882812 5.58984375 C0.03703499 3.72652873 0.01909942 1.86325445 0 0 Z " fill="#26247A" transform="translate(96,81)"/>
<path d="M0 0 C0.33 0.66 0.66 1.32 1 2 C4.02934491 2.65772428 4.02934491 2.65772428 7 3 C5.68 3.33 4.36 3.66 3 4 C3.33 5.98 3.66 7.96 4 10 C6.97 10.495 6.97 10.495 10 11 C10.33 10.34 10.66 9.68 11 9 C11.33 9.99 11.66 10.98 12 12 C12.66 12.33 13.32 12.66 14 13 C9.71 12.67 5.42 12.34 1 12 C0.67 8.04 0.34 4.08 0 0 Z " fill="#ABAAE8" transform="translate(24,77)"/>
<path d="M0 0 C1.32 0.33 2.64 0.66 4 1 C3.34 1 2.68 1 2 1 C2.33 3.97 2.66 6.94 3 10 C2.01 10.495 2.01 10.495 1 11 C0.34 11.99 -0.32 12.98 -1 14 C-2.3271261 10.0186217 -2.06915913 6.14954773 -2 2 C-1.34 2 -0.68 2 0 2 C0 1.34 0 0.68 0 0 Z " fill="#E9D9B2" transform="translate(56,72)"/>
<path d="M0 0 C0.33 0 0.66 0 1 0 C1 4.95 1 9.9 1 15 C2.32 14.67 3.64 14.34 5 14 C5.33 13.34 5.66 12.68 6 12 C6 14.31 6 16.62 6 19 C4.35 19.33 2.7 19.66 1 20 C-0.14982602 15.90996141 -0.11094256 11.96822949 -0.0625 7.75 C-0.05798828 7.00492188 -0.05347656 6.25984375 -0.04882812 5.4921875 C-0.03709246 3.6614236 -0.0191585 1.83070127 0 0 Z " fill="#E8EAFB" transform="translate(104,46)"/>
<path d="M0 0 C3.63 0 7.26 0 11 0 C11 1.32 11 2.64 11 4 C7.37 4 3.74 4 0 4 C0 2.68 0 1.36 0 0 Z " fill="#9593F5" transform="translate(53,22)"/>
<path d="M0 0 C0.99 0.66 1.98 1.32 3 2 C3 2.66 3 3.32 3 4 C3.99 3.67 4.98 3.34 6 3 C5.3125 5.375 5.3125 5.375 4 8 C1.375 9.3125 1.375 9.3125 -1 10 C-1.66 8.02 -2.32 6.04 -3 4 C-2.34 3.67 -1.68 3.34 -1 3 C-0.67 2.01 -0.34 1.02 0 0 Z " fill="#D1BED9" transform="translate(52,55)"/>
<path d="M0 0 C1.32 0 2.64 0 4 0 C4.0270043 1.45823212 4.04639787 2.91660675 4.0625 4.375 C4.07410156 5.18710938 4.08570312 5.99921875 4.09765625 6.8359375 C4 9 4 9 3 11 C2.01 11 1.02 11 0 11 C0 7.37 0 3.74 0 0 Z " fill="#252579" transform="translate(85,97)"/>
<path d="M0 0 C1.98 0 3.96 0 6 0 C6 2.31 6 4.62 6 7 C4.02 7 2.04 7 0 7 C0 4.69 0 2.38 0 0 Z " fill="#9292F2" transform="translate(87,29)"/>
<path d="M0 0 C1.98 0 3.96 0 6 0 C6 2.31 6 4.62 6 7 C4.02 7 2.04 7 0 7 C0 4.69 0 2.38 0 0 Z " fill="#9291F1" transform="translate(87,20)"/>
<path d="M0 0 C1.32 0 2.64 0 4 0 C5.4783226 2.95664519 5.06032783 5.74229737 5 9 C3.68 9 2.36 9 1 9 C-0.4783226 6.04335481 -0.06032783 3.25770263 0 0 Z " fill="#CFBDD7" transform="translate(91,63)"/>
<path d="M0 0 C0.99 1.32 1.98 2.64 3 4 C2.67 4.66 2.34 5.32 2 6 C3.32 6.33 4.64 6.66 6 7 C6 7.33 6 7.66 6 8 C4.35 8 2.7 8 1 8 C1.165 8.495 1.33 8.99 1.5 9.5 C2.20688818 13.03444089 2.06005155 16.39690701 2 20 C0.68 19.67 -0.64 19.34 -2 19 C-1.01 19 -0.02 19 1 19 C0.76603516 18.00419922 0.76603516 18.00419922 0.52734375 16.98828125 C0.33269531 16.10527344 0.13804688 15.22226563 -0.0625 14.3125 C-0.25972656 13.44238281 -0.45695313 12.57226562 -0.66015625 11.67578125 C-1.02403234 8.81077985 -0.64566498 6.79487149 0 4 C0 2.68 0 1.36 0 0 Z " fill="#DAC8B0" transform="translate(7,84)"/>
<path d="M0 0 C1.32 0 2.64 0 4 0 C4.33 1.98 4.66 3.96 5 6 C2.03 6 -0.94 6 -4 6 C-4 5.34 -4 4.68 -4 4 C-3.34 4 -2.68 4 -2 4 C-2 3.34 -2 2.68 -2 2 C-1.34 1.67 -0.68 1.34 0 1 C0 0.67 0 0.34 0 0 Z " fill="#6F6DDD" transform="translate(46,89)"/>
<path d="M0 0 C0.99 0 1.98 0 3 0 C4.35384615 7.38461538 4.35384615 7.38461538 2.5625 10.5 C2.046875 10.995 1.53125 11.49 1 12 C-1 10 -1 10 -1.23046875 7.87109375 C-1.20919922 6.66646484 -1.20919922 6.66646484 -1.1875 5.4375 C-1.18105469 4.63183594 -1.17460938 3.82617188 -1.16796875 2.99609375 C-1 1 -1 1 0 0 Z " fill="#DAB7C4" transform="translate(61,44)"/>
<path d="M0 0 C0.33 0 0.66 0 1 0 C1.06058594 0.77085938 1.12117188 1.54171875 1.18359375 2.3359375 C1.26738281 3.33882813 1.35117187 4.34171875 1.4375 5.375 C1.51871094 6.37273437 1.59992187 7.37046875 1.68359375 8.3984375 C1.84965626 10.97927613 1.84965626 10.97927613 3 13 C0.69 13 -1.62 13 -4 13 C-4 11.35 -4 9.7 -4 8 C-3.01 8 -2.02 8 -1 8 C-0.67 5.36 -0.34 2.72 0 0 Z M-1 9 C0 11 0 11 0 11 Z " fill="#6F657F" transform="translate(35,100)"/>
<path d="M0 0 C1.65 0.33 3.3 0.66 5 1 C5 2.98 5 4.96 5 7 C6.65 7 8.3 7 10 7 C9.67 8.32 9.34 9.64 9 11 C9 10.01 9 9.02 9 8 C7.68 8 6.36 8 5 8 C5 9.98 5 11.96 5 14 C4.34 14 3.68 14 3 14 C2.85714286 5.42857143 2.85714286 5.42857143 4 2 C2.35 2 0.7 2 -1 2 C-0.67 1.34 -0.34 0.68 0 0 Z " fill="#B0A4A5" transform="translate(21,90)"/>
<path d="M0 0 C5.75 -0.125 5.75 -0.125 8 1 C8 2.65 8 4.3 8 6 C7.34 6 6.68 6 6 6 C6 5.34 6 4.68 6 4 C3.69 4 1.38 4 -1 4 C-0.67 2.68 -0.34 1.36 0 0 Z " fill="#64484B" transform="translate(98,26)"/>
<path d="M0 0 C4.62 0 9.24 0 14 0 C14 0.33 14 0.66 14 1 C12.02 1 10.04 1 8 1 C7.814375 2.2065625 7.814375 2.2065625 7.625 3.4375 C7.41875 4.283125 7.2125 5.12875 7 6 C6.01 6.495 6.01 6.495 5 7 C5 6.01 5 5.02 5 4 C4.34 4 3.68 4 3 4 C2.01 2.68 1.02 1.36 0 0 Z " fill="#7373C9" transform="translate(36,97)"/>
<path d="M0 0 C2.475 0.99 2.475 0.99 5 2 C4.34 4.97 3.68 7.94 3 11 C-1.76058041 5.47158404 -1.76058041 5.47158404 -2 2 C-1.34 1.34 -0.68 0.68 0 0 Z " fill="#E0DFEE" transform="translate(31,71)"/>
<path d="M0 0 C3 3.75 3 3.75 3 6 C3.99 6.33 4.98 6.66 6 7 C5.34 8.32 4.68 9.64 4 11 C3.21625 10.195625 2.4325 9.39125 1.625 8.5625 C-0.71982856 6.01309583 -0.71982856 6.01309583 -3 5 C-1.125 1.125 -1.125 1.125 0 0 Z " fill="#DEDBF5" transform="translate(25,61)"/>
<path d="M0 0 C1.98 0 3.96 0 6 0 C6 1.98 6 3.96 6 6 C4.02 6 2.04 6 0 6 C0 4.02 0 2.04 0 0 Z " fill="#9090F3" transform="translate(87,38)"/>
<path d="M0 0 C0 0.99 0 1.98 0 3 C2.31 3 4.62 3 7 3 C6.67 4.32 6.34 5.64 6 7 C6 6.01 6 5.02 6 4 C3.69 4 1.38 4 -1 4 C-1.33 4.66 -1.66 5.32 -2 6 C-3.32 5.67 -4.64 5.34 -6 5 C-5.67 4.01 -5.34 3.02 -5 2 C-5.66 1.67 -6.32 1.34 -7 1 C-2.25 0 -2.25 0 0 0 Z " fill="#2E2F64" transform="translate(111,96)"/>
<path d="M0 0 C4.62 0 9.24 0 14 0 C14 0.66 14 1.32 14 2 C12.68 2 11.36 2 10 2 C9.67 2.99 9.34 3.98 9 5 C9 4.34 9 3.68 9 3 C6.03 2.67 3.06 2.34 0 2 C0 1.34 0 0.68 0 0 Z " fill="#4141A7" transform="translate(26,95)"/>
<path d="M0 0 C-0.33 1.98 -0.66 3.96 -1 6 C-3.31 5.67 -5.62 5.34 -8 5 C-7.625 3.0625 -7.625 3.0625 -7 1 C-4.53721199 -0.231394 -2.7204945 -0.07159196 0 0 Z " fill="#CDCDFB" transform="translate(68,67)"/>
<path d="M0 0 C0.66 0 1.32 0 2 0 C3 3 3 3 2.0625 5.1875 C1.711875 5.785625 1.36125 6.38375 1 7 C-5.15234375 6.4140625 -5.15234375 6.4140625 -7 6 C-7.33 5.34 -7.66 4.68 -8 4 C-6.865625 3.525625 -5.73125 3.05125 -4.5625 2.5625 C-1.24259834 1.36377917 -1.24259834 1.36377917 0 0 Z " fill="#C4C7FD" transform="translate(117,37)"/>
<path d="M0 0 C0.33 0.66 0.66 1.32 1 2 C2.32 1.67 3.64 1.34 5 1 C5 1.99 5 2.98 5 4 C5.99 4.33 6.98 4.66 8 5 C6.02 5 4.04 5 2 5 C2 5.66 2 6.32 2 7 C-0.31 7.33 -2.62 7.66 -5 8 C-4.67 6.68 -4.34 5.36 -4 4 C-3.67 4.66 -3.34 5.32 -3 6 C-2.01 6 -1.02 6 0 6 C0 4.02 0 2.04 0 0 Z " fill="#CBC3D3" transform="translate(65,106)"/>
<path d="M0 0 C1.62463842 -0.05395478 3.24978541 -0.09277195 4.875 -0.125 C5.77992187 -0.14820312 6.68484375 -0.17140625 7.6171875 -0.1953125 C10 0 10 0 12 2 C12.1953125 4.3828125 12.1953125 4.3828125 12.125 7.125 C12.10695313 8.03507812 12.08890625 8.94515625 12.0703125 9.8828125 C12.04710937 10.58148438 12.02390625 11.28015625 12 12 C11.67 12 11.34 12 11 12 C10.67 9.03 10.34 6.06 10 3 C8.02 3.99 8.02 3.99 6 5 C5.67 4.34 5.34 3.68 5 3 C5.66 2.67 6.32 2.34 7 2 C4.69 1.67 2.38 1.34 0 1 C0 0.67 0 0.34 0 0 Z " fill="#141933" transform="translate(12,75)"/>
<path d="M0 0 C0.99 0.33 1.98 0.66 3 1 C2.979375 1.78375 2.95875 2.5675 2.9375 3.375 C2.81315937 5.98114961 2.81315937 5.98114961 4 8 C3.34 8.66 2.68 9.32 2 10 C1.649375 9.195625 1.29875 8.39125 0.9375 7.5625 C-0.85667284 4.6132233 -0.85667284 4.6132233 -4.6875 4.1875 C-6.3271875 4.0946875 -6.3271875 4.0946875 -8 4 C-8 3.67 -8 3.34 -8 3 C-5.69 3 -3.38 3 -1 3 C-0.67 2.01 -0.34 1.02 0 0 Z " fill="#8184D9" transform="translate(49,71)"/>
<path d="M0 0 C3.63 0 7.26 0 11 0 C10.01 0.66 9.02 1.32 8 2 C7.67 2.66 7.34 3.32 7 4 C6.34 3.67 5.68 3.34 5 3 C5 3.66 5 4.32 5 5 C4.34 5 3.68 5 3 5 C2.67 5.66 2.34 6.32 2 7 C1 4 1 4 2 1 C1.34 0.67 0.68 0.34 0 0 Z " fill="#8B8ADC" transform="translate(39,88)"/>
<path d="M0 0 C0.94875 0.185625 1.8975 0.37125 2.875 0.5625 C5.89868793 1.28686632 5.89868793 1.28686632 8 0 C7 3 7 3 5 4 C3.00039988 4.039992 0.99952758 4.04346799 -1 4 C-1.33 5.32 -1.66 6.64 -2 8 C-3.65 8 -5.3 8 -7 8 C-6.38125 7.938125 -5.7625 7.87625 -5.125 7.8125 C-2.74397155 7.17948312 -2.74397155 7.17948312 -1.8125 4.5625 C-1.4103125 3.2940625 -1.4103125 3.2940625 -1 2 C-0.67 1.34 -0.34 0.68 0 0 Z " fill="#9A95D4" transform="translate(43,67)"/>
<path d="M0 0 C1.65 0 3.3 0 5 0 C6.04449911 3.13349732 5.93423645 3.98968256 5 7 C2.03 6.505 2.03 6.505 -1 6 C-0.67 5.01 -0.34 4.02 0 3 C0.66 3 1.32 3 2 3 C2 2.34 2 1.68 2 1 C1.34 0.67 0.68 0.34 0 0 Z " fill="#918FFC" transform="translate(72,67)"/>
<path d="M0 0 C1.32 1.32 2.64 2.64 4 4 C3.67 4.99 3.34 5.98 3 7 C3.99 7.33 4.98 7.66 6 8 C6 8.66 6 9.32 6 10 C3.0625 9.1875 3.0625 9.1875 0 8 C-1.09658936 4.71023192 -0.79953138 3.28696233 0 0 Z " fill="#7E7280" transform="translate(54,104)"/>
<path d="M0 0 C0 0.99 0 1.98 0 3 C1.32 3.33 2.64 3.66 4 4 C3 5 3 5 -0.4375 5.125 C-4 5 -4 5 -6 4 C-5.67 3.01 -5.34 2.02 -5 1 C-2 0 -2 0 0 0 Z " fill="#EFB442" transform="translate(18,102)"/>
<path d="M0 0 C2.0625 0.4375 2.0625 0.4375 4 1 C3.67 1.78375 3.34 2.5675 3 3.375 C1.88133489 5.84332497 1.88133489 5.84332497 2 8 C0.68 8 -0.64 8 -2 8 C-1.125 1.125 -1.125 1.125 0 0 Z " fill="#1A1929" transform="translate(72,54)"/>
<path d="M0 0 C1.97986082 0.11347619 3.95891598 0.2410935 5.9375 0.375 C7.03964844 0.44460937 8.14179687 0.51421875 9.27734375 0.5859375 C10.62505859 0.79089844 10.62505859 0.79089844 12 1 C12.33 1.66 12.66 2.32 13 3 C8.71 3 4.42 3 0 3 C0 2.01 0 1.02 0 0 Z " fill="#464450" transform="translate(85,111)"/>
<path d="M0 0 C2.97 0.33 5.94 0.66 9 1 C7.02 1.99 7.02 1.99 5 3 C4.67 3.66 4.34 4.32 4 5 C4.66 5 5.32 5 6 5 C6 5.66 6 6.32 6 7 C4.68 6.67 3.36 6.34 2 6 C2 5.34 2 4.68 2 4 C1.34 4 0.68 4 0 4 C0 2.68 0 1.36 0 0 Z " fill="#766FB9" transform="translate(66,88)"/>
<path d="M0 0 C0.33 1.32 0.66 2.64 1 4 C-0.2065625 4.7734375 -0.2065625 4.7734375 -1.4375 5.5625 C-4.66447078 8.63205757 -4.74896257 10.64868459 -5 15 C-5.33 15 -5.66 15 -6 15 C-6.33 11.7 -6.66 8.4 -7 5 C-6.01 5 -5.02 5 -4 5 C-4 4.34 -4 3.68 -4 3 C-2.68 3 -1.36 3 0 3 C0 2.01 0 1.02 0 0 Z " fill="#9291E3" transform="translate(82,71)"/>
<path d="M0 0 C0.99 0.33 1.98 0.66 3 1 C4.1875 4.5625 4.1875 4.5625 5 8 C2.13275314 7.42655063 1.1385485 7.1385485 -1 5 C-0.625 2.375 -0.625 2.375 0 0 Z " fill="#9D7C78" transform="translate(81,75)"/>
<path d="M0 0 C0.33 0 0.66 0 1 0 C1.33 1.65 1.66 3.3 2 5 C2.33 5 2.66 5 3 5 C3 7.97 3 10.94 3 14 C2.01 14 1.02 14 0 14 C0 9.38 0 4.76 0 0 Z " fill="#9D9FF4" transform="translate(100,48)"/>
<path d="M0 0 C1.65 0 3.3 0 5 0 C5 1.32 5 2.64 5 4 C3.02 4.33 1.04 4.66 -1 5 C-0.67 3.35 -0.34 1.7 0 0 Z " fill="#D7BFD4" transform="translate(119,40)"/>
<path d="M0 0 C1.32 0 2.64 0 4 0 C4 1.65 4 3.3 4 5 C1.36 5.33 -1.28 5.66 -4 6 C-3.67 5.01 -3.34 4.02 -3 3 C-2.01 3.33 -1.02 3.66 0 4 C0 2.68 0 1.36 0 0 Z " fill="#2A297F" transform="translate(100,62)"/>
<path d="M0 0 C1.74627478 2.61941217 2.38722388 4.03824877 3 7 C2.34 7 1.68 7 1 7 C1 6.34 1 5.68 1 5 C-1.97 4.505 -1.97 4.505 -5 4 C-5 3.01 -5 2.02 -5 1 C-2.525 1.495 -2.525 1.495 0 2 C0 1.34 0 0.68 0 0 Z " fill="#7271D8" transform="translate(39,90)"/>
<path d="M0 0 C1.32 0 2.64 0 4 0 C4 2.97 4 5.94 4 9 C0 4.5 0 4.5 0 0 Z " fill="#E2A03D" transform="translate(8,92)"/>
<path d="M0 0 C0.33 0 0.66 0 1 0 C1.33 4.62 1.66 9.24 2 14 C1.67 13.01 1.34 12.02 1 11 C-0.32 11.33 -1.64 11.66 -3 12 C-2.01 8.04 -1.02 4.08 0 0 Z " fill="#7372A4" transform="translate(110,85)"/>
<path d="M0 0 C0.66 0 1.32 0 2 0 C1.34 1.65 0.68 3.3 0 5 C1.65 5 3.3 5 5 5 C5 5.33 5 5.66 5 6 C2.03 6 -0.94 6 -4 6 C-4 5.01 -4 4.02 -4 3 C-2.68 2.67 -1.36 2.34 0 2 C0 1.34 0 0.68 0 0 Z " fill="#131624" transform="translate(18,82)"/>
<path d="M0 0 C2.64 0 5.28 0 8 0 C8 1.32 8 2.64 8 4 C5.03 4 2.06 4 -1 4 C0.32 3.34 1.64 2.68 3 2 C2.01 1.34 1.02 0.68 0 0 Z " fill="#B1B0EE" transform="translate(56,35)"/>
<path d="M0 0 C1.32 0.66 2.64 1.32 4 2 C4 3.65 4 5.3 4 7 C2.68 6.67 1.36 6.34 0 6 C-0.38218767 4.34385343 -0.71395102 2.67542976 -1 1 C-0.67 0.67 -0.34 0.34 0 0 Z " fill="#191F24" transform="translate(60,81)"/>
<path d="M0 0 C0.6875 1.75 0.6875 1.75 1 4 C-0.4375 6.25 -0.4375 6.25 -2 8 C-2.99 7.67 -3.98 7.34 -5 7 C-5 6.34 -5 5.68 -5 5 C-4.34 5 -3.68 5 -3 5 C-3 3.68 -3 2.36 -3 1 C-2.01 0.67 -1.02 0.34 0 0 Z " fill="#836E6F" transform="translate(24,58)"/>
<path d="M0 0 C0.66 0.33 1.32 0.66 2 1 C2.04254356 2.99954746 2.04080783 5.00041636 2 7 C1.67 7.33 1.34 7.66 1 8 C2.32 8.66 3.64 9.32 5 10 C2.36 10 -0.28 10 -3 10 C-2.67 8.68 -2.34 7.36 -2 6 C-1.01 6 -0.02 6 1 6 C0.67 4.02 0.34 2.04 0 0 Z " fill="#CCC1C1" transform="translate(26,104)"/>
<path d="M0 0 C2.64 0 5.28 0 8 0 C8 0.99 8 1.98 8 3 C5.36 3 2.72 3 0 3 C0 2.01 0 1.02 0 0 Z " fill="#9291E9" transform="translate(95,99)"/>
<path d="M0 0 C2.0625 2.1875 2.0625 2.1875 4 5 C3.75 7.8125 3.75 7.8125 3 10 C2.34 10 1.68 10 1 10 C-0.60725635 6.78548731 -0.05748185 3.56387464 0 0 Z " fill="#B9B4E4" transform="translate(79,78)"/>
<path d="M0 0 C0.33 0 0.66 0 1 0 C2.10228696 4.40914783 2.07654536 8.48382401 2 13 C0.4375 11.5625 0.4375 11.5625 -1 9 C-0.96846324 5.94619073 -0.53266629 3.00346778 0 0 Z " fill="#26267F" transform="translate(108,76)"/>
<path d="M0 0 C0.33 0 0.66 0 1 0 C1.2519555 3.02346601 1.20421041 4.6402007 -0.3125 7.3125 C-0.869375 7.869375 -1.42625 8.42625 -2 9 C-2.99 9 -3.98 9 -5 9 C-4.67 8.01 -4.34 7.02 -4 6 C-3.34 6 -2.68 6 -2 6 C-2.33 4.68 -2.66 3.36 -3 2 C-2.01 2 -1.02 2 0 2 C0 1.34 0 0.68 0 0 Z " fill="#87737B" transform="translate(78,57)"/>
<path d="M0 0 C0.99 0.66 1.98 1.32 3 2 C3 2.66 3 3.32 3 4 C2.01 4 1.02 4 0 4 C0 5.32 0 6.64 0 8 C-0.99 8 -1.98 8 -3 8 C-2.45276317 4.62537285 -1.9451 2.91765 0 0 Z " fill="#251A20" transform="translate(21,55)"/>
<path d="M0 0 C2.31 0 4.62 0 7 0 C6.01 0.495 6.01 0.495 5 1 C5 1.66 5 2.32 5 3 C1.37 3 -2.26 3 -6 3 C-6 2.67 -6 2.34 -6 2 C-4.02 2 -2.04 2 0 2 C0 1.34 0 0.68 0 0 Z " fill="#605B6B" transform="translate(67,111)"/>
<path d="M0 0 C1.32 0 2.64 0 4 0 C3.75 2.375 3.75 2.375 3 5 C0.9375 6.3125 0.9375 6.3125 -1 7 C-0.67 4.69 -0.34 2.38 0 0 Z " fill="#F9C43F" transform="translate(21,93)"/>
<path d="M0 0 C0.66 0.99 1.32 1.98 2 3 C2.99 3.66 3.98 4.32 5 5 C2.36 5 -0.28 5 -3 5 C-3 4.01 -3 3.02 -3 2 C-3.66 1.67 -4.32 1.34 -5 1 C-2 0 -2 0 0 0 Z " fill="#B4B3C7" transform="translate(53,109)"/>
<path d="M0 0 C0 3.3 0 6.6 0 10 C-0.66 8.68 -1.32 7.36 -2 6 C-2.66 5.67 -3.32 5.34 -4 5 C-3.625 3.0625 -3.625 3.0625 -3 1 C-1 0 -1 0 0 0 Z " fill="#29267A" transform="translate(109,65)"/>
<path d="M0 0 C3 1 3 1 4.1875 3.0625 C4.455625 3.701875 4.72375 4.34125 5 5 C4.01 6.485 4.01 6.485 3 8 C2.67 7.01 2.34 6.02 2 5 C-0.01508358 4.26676204 -0.01508358 4.26676204 -2 4 C-2 2 -2 2 0 0 Z " fill="#D0D1E8" transform="translate(22,49)"/>
<path d="M0 0 C0.33 0.66 0.66 1.32 1 2 C1.99 2 2.98 2 4 2 C4 2.99 4 3.98 4 5 C2.68 5 1.36 5 0 5 C-0.33 5.99 -0.66 6.98 -1 8 C-1.125 2.25 -1.125 2.25 0 0 Z " fill="#181B26" transform="translate(35,78)"/>
<path d="M0 0 C3.96 0 7.92 0 12 0 C9 2 9 2 6 3 C2.8125 2.0625 2.8125 2.0625 0 1 C0 0.67 0 0.34 0 0 Z " fill="#E1DEF7" transform="translate(111,71)"/>
<path d="M0 0 C1.32 0.33 2.64 0.66 4 1 C3.34 4.63 2.68 8.26 2 12 C1.67 12 1.34 12 1 12 C0.67 8.04 0.34 4.08 0 0 Z " fill="#8181C7" transform="translate(100,67)"/>
<path d="M0 0 C2.475 0.495 2.475 0.495 5 1 C5 1.66 5 2.32 5 3 C3.37373596 4.38232443 1.7074998 5.71937515 0 7 C0 4.69 0 2.38 0 0 Z " fill="#E2E0F4" transform="translate(11,29)"/>
<path d="M0 0 C2.31 0 4.62 0 7 0 C6.67 0.66 6.34 1.32 6 2 C5.01 2 4.02 2 3 2 C3 2.66 3 3.32 3 4 C2.01 3.67 1.02 3.34 0 3 C0 2.01 0 1.02 0 0 Z " fill="#4D494D" transform="translate(45,108)"/>
<path d="M0 0 C1.98 0 3.96 0 6 0 C6 0.99 6 1.98 6 3 C4.02 3 2.04 3 0 3 C0 2.01 0 1.02 0 0 Z " fill="#57496E" transform="translate(13,95)"/>
<path d="M0 0 C0.33 0.66 0.66 1.32 1 2 C1.66 2 2.32 2 3 2 C3.33 2.99 3.66 3.98 4 5 C3 6 3 6 0.4375 6.0625 C-0.7690625 6.0315625 -0.7690625 6.0315625 -2 6 C-1.34 4.02 -0.68 2.04 0 0 Z " fill="#242556" transform="translate(97,93)"/>
<path d="M0 0 C1.485 0.99 1.485 0.99 3 2 C3.66 2 4.32 2 5 2 C5 3.65 5 5.3 5 7 C2 6 2 6 0 3 C0 2.01 0 1.02 0 0 Z " fill="#E4B3AD" transform="translate(98,32)"/>
<path d="M0 0 C0.185625 0.9590625 0.185625 0.9590625 0.375 1.9375 C0.684375 2.9584375 0.684375 2.9584375 1 4 C1.66 4.33 2.32 4.66 3 5 C1.02 5 -0.96 5 -3 5 C-2.625 3.0625 -2.625 3.0625 -2 1 C-1.34 0.67 -0.68 0.34 0 0 Z " fill="#7F738C" transform="translate(92,107)"/>
<path d="M0 0 C1.32 0 2.64 0 4 0 C3.67 1.65 3.34 3.3 3 5 C2.01 5 1.02 5 0 5 C0 3.35 0 1.7 0 0 Z " fill="#26267C" transform="translate(57,97)"/>
<path d="M0 0 C2.475 0.495 2.475 0.495 5 1 C5 1.99 5 2.98 5 4 C3.68 4 2.36 4 1 4 C0.67 2.68 0.34 1.36 0 0 Z " fill="#9C7673" transform="translate(26,76)"/>
<path d="M0 0 C0.33 0.66 0.66 1.32 1 2 C0.67 2.99 0.34 3.98 0 5 C-0.66 5 -1.32 5 -2 5 C-2.33 6.32 -2.66 7.64 -3 9 C-3.66 9 -4.32 9 -5 9 C-5 8.01 -5 7.02 -5 6 C-4.34 6 -3.68 6 -3 6 C-3 5.34 -3 4.68 -3 4 C-2.34 4 -1.68 4 -1 4 C-0.67 2.68 -0.34 1.36 0 0 Z " fill="#D4C3E7" transform="translate(61,60)"/>
<path d="" fill="#FFFFFF" transform="translate(0,0)"/>
<path d="" fill="#FFFFFF" transform="translate(0,0)"/>
<path d="" fill="#FFFFFF" transform="translate(0,0)"/>
<path d="" fill="#FFFFFF" transform="translate(0,0)"/>
<path d="" fill="#FFFFFF" transform="translate(0,0)"/>
<path d="" fill="#FFFFFF" transform="translate(0,0)"/>
<path d="" fill="#FFFFFF" transform="translate(0,0)"/>
<path d="" fill="#FFFFFF" transform="translate(0,0)"/>
<path d="" fill="#FFFFFF" transform="translate(0,0)"/>
<path d="" fill="#FFFFFF" transform="translate(0,0)"/>
<path d="" fill="#00FFFF" transform="translate(0,0)"/>
<path d="" fill="#FFFFFF" transform="translate(0,0)"/>
<path d="" fill="#FFFFFF" transform="translate(0,0)"/>
<path d="" fill="#FFFFFF" transform="translate(0,0)"/>
<path d="" fill="#FFFFFF" transform="translate(0,0)"/>
<path d="" fill="#FFFFFF" transform="translate(0,0)"/>
<path d="" fill="#FFFFFF" transform="translate(0,0)"/>
<path d="" fill="#FFFFFF" transform="translate(0,0)"/>
<path d="" fill="#FFFFFF" transform="translate(0,0)"/>
<path d="" fill="#FFFFFF" transform="translate(0,0)"/>
<path d="" fill="#FFFFFF" transform="translate(0,0)"/>
<path d="" fill="#FFFFFF" transform="translate(0,0)"/>
<path d="" fill="#FFFFFF" transform="translate(0,0)"/>
<path d="" fill="#FFFFFF" transform="translate(0,0)"/>
</svg>
