<?xml version="1.0" encoding="UTF-8"?>
<svg version="1.1" xmlns="http://www.w3.org/2000/svg" width="512" height="512">
<path d="M0 0 C2 1 2 1 3.18359375 4.0625 C3.60883364 5.37266226 4.02637309 6.68534081 4.4375 8 C4.65704346 8.67756348 4.87658691 9.35512695 5.1027832 10.05322266 C6.06173121 13.01660158 6.99597396 15.9870689 7.921875 18.9609375 C8.56545916 20.99019775 9.27524437 22.99829398 10 25 C12.58050993 26.29025496 14.6160514 26.14594 17.5 26.25 C25.5528336 26.8872746 32.01768607 29.43502468 37.5 35.5 C40.95468845 39.75810437 42.24555291 43.9462628 42.29052734 49.39770508 C42.30328705 50.4526265 42.31604675 51.50754791 42.32919312 52.59443665 C42.33253159 54.28985847 42.33253159 54.28985847 42.3359375 56.01953125 C42.3425943 57.19206955 42.3492511 58.36460785 42.35610962 59.57267761 C42.36622608 62.05144687 42.37092695 64.53024332 42.37060547 67.0090332 C42.37497214 70.78838353 42.41128692 74.56655979 42.44921875 78.34570312 C42.45508847 80.75780852 42.45905682 83.16991945 42.4609375 85.58203125 C42.47530853 86.70623978 42.48967957 87.8304483 42.50448608 88.98872375 C42.46026856 96.63737834 41.38510622 101.98363854 36.32421875 107.98828125 C29.4332851 113.56352351 23.50584281 115.32469514 14.671875 115.59375 C11.56001463 116.06689836 10.95905079 116.63011522 9 119 C8.17040066 120.82243659 8.17040066 120.82243659 7.640625 122.8515625 C7.41592529 123.61162598 7.19122559 124.37168945 6.9597168 125.15478516 C6.60840698 126.3775415 6.60840698 126.3775415 6.25 127.625 C2.11874684 141.25930208 -3.07881852 153.99818815 -10.15551758 166.38134766 C-13.03889323 171.41361051 -13.03889323 171.41361051 -13 177 C-11.37331173 179.26142445 -11.37331173 179.26142445 -9.1875 181.3125 C-4.24217122 186.60794055 -1.98234109 191.12319934 -1.5625 198.375 C-2.0683228 207.9981799 -6.80796711 214.72193551 -13.4765625 221.2734375 C-14.2018515 222.00446686 -14.9271405 222.73549622 -15.67440796 223.48867798 C-17.20184694 225.02017423 -18.73678649 226.54422323 -20.27880859 228.06103516 C-22.61904595 230.36912774 -24.92551181 232.70751478 -27.23046875 235.05078125 C-28.72724685 236.54359406 -30.22588536 238.03454432 -31.7265625 239.5234375 C-32.40610992 240.21513031 -33.08565735 240.90682312 -33.78579712 241.61947632 C-39.7062677 247.37208031 -46.25426586 250.99750945 -54.625 251.4375 C-63.11711704 250.94585112 -67.86804722 247.68888727 -73.62890625 241.546875 C-75.97857032 239.70959051 -75.97857032 239.70959051 -79.2265625 239.9765625 C-83.8783857 241.23823711 -87.63980146 243.25832389 -91.8125 245.625 C-104.37273726 252.4790454 -117.38579184 257.48943541 -131.1394043 261.40356445 C-132.77641602 261.88149176 -134.39128445 262.4340882 -136 263 C-137.29025496 265.58050993 -137.14594 267.6160514 -137.25 270.5 C-137.8872746 278.5528336 -140.43502468 285.01768607 -146.5 290.5 C-150.75810437 293.95468845 -154.9462628 295.24555291 -160.39770508 295.29052734 C-161.4526265 295.30328705 -162.50754791 295.31604675 -163.59443665 295.32919312 C-164.72471786 295.33141876 -165.85499908 295.33364441 -167.01953125 295.3359375 C-168.19206955 295.3425943 -169.36460785 295.3492511 -170.57267761 295.35610962 C-173.05144687 295.36622608 -175.53024332 295.37092695 -178.0090332 295.37060547 C-181.78838353 295.37497214 -185.56655979 295.41128692 -189.34570312 295.44921875 C-191.75780852 295.45508847 -194.16991945 295.45905682 -196.58203125 295.4609375 C-197.70623978 295.47530853 -198.8304483 295.48967957 -199.98872375 295.50448608 C-207.63737834 295.46026856 -212.98363854 294.38510622 -218.98828125 289.32421875 C-224.56352351 282.4332851 -226.32469514 276.50584281 -226.59375 267.671875 C-227.06715978 264.55829529 -227.6274608 263.95926469 -230 262 C-231.85518386 261.15421357 -231.85518386 261.15421357 -233.921875 260.60546875 C-234.69208984 260.37569336 -235.46230469 260.14591797 -236.25585938 259.90917969 C-237.07892578 259.67102539 -237.90199219 259.43287109 -238.75 259.1875 C-252.10267213 255.12123343 -264.38874532 250.10018399 -276.56835938 243.25097656 C-277.33212891 242.83041992 -278.09589844 242.40986328 -278.8828125 241.9765625 C-279.55715332 241.59580566 -280.23149414 241.21504883 -280.92626953 240.82275391 C-283.44666965 239.82278353 -285.31012954 239.74407165 -288 240 C-290.26142445 241.62668827 -290.26142445 241.62668827 -292.3125 243.8125 C-297.60794055 248.75782878 -302.12319934 251.01765891 -309.375 251.4375 C-322.03947206 250.78914819 -328.90239526 242.78298194 -337 234 C-335.67289741 231.05790165 -334.23210009 228.98385569 -331.95016479 226.70965576 C-331.0120697 225.76743668 -331.0120697 225.76743668 -330.05502319 224.80618286 C-329.37025909 224.12860931 -328.685495 223.45103577 -327.97998047 222.75292969 C-326.89689606 221.6694072 -326.89689606 221.6694072 -325.79193115 220.56399536 C-323.40506011 218.17851721 -321.0111838 215.80020061 -318.6171875 213.421875 C-316.96051221 211.76892998 -315.30427805 210.11554273 -313.64846802 208.46173096 C-309.28974083 204.11063912 -304.92504076 199.76558687 -300.55908203 195.42175293 C-296.10478495 190.98791629 -291.65614582 186.54841091 -287.20703125 182.109375 C-278.47689145 173.4006834 -269.74043306 164.69835992 -261 156 C-257.77274003 157.54844347 -255.30053757 159.30713346 -252.5625 161.625 C-228.002575 181.44529035 -198.07987679 187.80616253 -166.99511719 184.69970703 C-136.32295885 180.38007224 -107.98459149 163.63555369 -89.0637207 139.13549805 C-77.6230366 123.6096526 -66.93728397 101.46192839 -68.22059631 81.80168152 C-68.60629012 73.52163319 -68.07656227 67.21356522 -62.61061764 60.69582081 C-59.28820897 57.14537581 -55.79657839 53.80841976 -52.24609375 50.48828125 C-50.74144742 49.01727821 -49.24077794 47.54219744 -47.74391174 46.0632782 C-43.82541522 42.21296022 -39.85597085 38.41981238 -35.87268066 34.63671875 C-31.80490734 30.75429837 -27.78867534 26.81931403 -23.76757812 22.88867188 C-15.89414787 15.20730989 -7.96579186 7.5854577 0 0 Z " fill="#000000" transform="translate(438,185)"/>
<path d="M0 0 C1.58238213 -0.01913956 1.58238213 -0.01913956 3.19673157 -0.03866577 C4.32701279 -0.04089142 5.45729401 -0.04311707 6.62182617 -0.04541016 C7.79436447 -0.05206696 8.96690277 -0.05872375 10.17497253 -0.06558228 C12.6537418 -0.07569873 15.13253824 -0.08039961 17.61132812 -0.08007812 C21.39067846 -0.08444479 25.16885472 -0.12075958 28.94799805 -0.15869141 C31.36010344 -0.16456113 33.77221437 -0.16852948 36.18432617 -0.17041016 C37.3085347 -0.18478119 38.43274323 -0.19915222 39.59101868 -0.21395874 C47.23967326 -0.16974122 52.58593346 0.90542112 58.59057617 5.96630859 C64.16581843 12.85724224 65.92699006 18.78468454 66.19604492 27.61865234 C66.66919328 30.73051271 67.23241014 31.33147656 69.60229492 33.29052734 C71.42473151 34.12012668 71.42473151 34.12012668 73.45385742 34.64990234 C74.59395264 34.9869519 74.59395264 34.9869519 75.75708008 35.33081055 C76.97983643 35.68212036 76.97983643 35.68212036 78.22729492 36.04052734 C91.861597 40.1717805 104.60048307 45.36934586 116.98364258 52.44604492 C122.01590544 55.32942058 122.01590544 55.32942058 127.60229492 55.29052734 C129.86371938 53.66383907 129.86371938 53.66383907 131.91479492 51.47802734 C138.13114787 45.67267294 143.27604844 43.94561665 151.71948242 43.98974609 C153.60229492 44.29052734 153.60229492 44.29052734 155.60229492 46.29052734 C150.85229492 50.29052734 150.85229492 50.29052734 148.60229492 50.29052734 C148.33416992 50.82677734 148.06604492 51.36302734 147.78979492 51.91552734 C146.60229492 54.29052734 146.60229492 54.29052734 144.97729492 56.72802734 C142.6579392 62.73726718 142.43538183 69.5444371 144.36401367 75.73583984 C146.24959767 79.65606587 148.73645982 83.01528723 151.60229492 86.29052734 C150.04250502 90.03237488 147.73497319 92.39955512 144.87719727 95.24267578 C144.39898026 95.72118484 143.92076324 96.19969391 143.42805481 96.69270325 C141.85281009 98.26655929 140.27060957 99.83322027 138.68823242 101.39990234 C137.59206279 102.4923402 136.49633511 103.58522169 135.40103149 104.67852783 C132.52189604 107.55003977 129.63680436 110.41549389 126.75042725 113.27972412 C123.80419677 116.2054686 120.86364423 119.13690749 117.92260742 122.06787109 C112.15470904 127.81434216 106.38050528 133.5544254 100.60229492 139.29052734 C97.37503495 137.74208387 94.90283249 135.98339389 92.16479492 133.66552734 C67.34673903 113.63692083 37.04139837 107.39961022 5.64819336 110.59082031 C0.17608136 111.39253885 -5.11208547 112.67513306 -10.39770508 114.29052734 C-11.08574219 114.4995166 -11.7737793 114.70850586 -12.48266602 114.92382812 C-43.17351839 124.61911632 -67.3030656 146.01666661 -82.21020508 174.22802734 C-87.74114222 185.7595095 -92.97903323 199.71325235 -92.17100525 212.64312744 C-91.79865994 221.18251844 -92.16172386 227.93984416 -97.78722477 234.70313644 C-101.10425089 238.25710639 -104.59563918 241.58744912 -108.15161133 244.89990234 C-109.65647559 246.3692491 -111.15714131 247.84290694 -112.65379333 249.32061768 C-116.57021624 253.16511242 -120.54022318 256.94907066 -124.52502441 260.72247314 C-128.59463429 264.59634435 -132.60979242 268.5258113 -136.63012695 272.45068359 C-144.50087796 280.11876487 -152.42947327 287.72388234 -160.39770508 295.29052734 C-162.39770508 294.29052734 -162.39770508 294.29052734 -163.14379883 292.63574219 C-163.37196289 291.93143066 -163.60012695 291.22711914 -163.83520508 290.50146484 C-164.09043945 289.72416016 -164.34567383 288.94685547 -164.60864258 288.14599609 C-164.99922852 286.91816406 -164.99922852 286.91816406 -165.39770508 285.66552734 C-165.78829102 284.4725 -165.78829102 284.4725 -166.18676758 283.25537109 C-167.69166757 278.62666356 -169.0905383 273.97873127 -170.39770508 269.29052734 C-171.29231445 269.27634766 -172.18692383 269.26216797 -173.10864258 269.24755859 C-182.11304487 268.89237428 -189.44029635 267.8141628 -196.27270508 261.57958984 C-200.58978408 256.82665191 -202.63463371 252.38963064 -202.68823242 245.89282227 C-202.70099213 244.83790085 -202.71375183 243.78297943 -202.72689819 242.6960907 C-202.72912384 241.56580948 -202.73134949 240.43552826 -202.73364258 239.27099609 C-202.74029938 238.09845779 -202.74695618 236.92591949 -202.7538147 235.71784973 C-202.76393116 233.23908047 -202.76863203 230.76028403 -202.76831055 228.28149414 C-202.77267721 224.50214381 -202.808992 220.72396755 -202.84692383 216.94482422 C-202.85279355 214.53271882 -202.8567619 212.1206079 -202.85864258 209.70849609 C-202.87301361 208.58428757 -202.88738464 207.46007904 -202.90219116 206.30180359 C-202.85695798 198.47746172 -201.70477531 193.1331555 -196.46801758 187.04833984 C-195.82606445 186.50951172 -195.18411133 185.97068359 -194.52270508 185.41552734 C-193.8859082 184.86123047 -193.24911133 184.30693359 -192.59301758 183.73583984 C-187.70839737 180.51998668 -182.7622057 179.99040474 -177.02270508 179.66552734 C-175.15485352 179.55337891 -175.15485352 179.55337891 -173.24926758 179.43896484 C-172.30825195 179.38998047 -171.36723633 179.34099609 -170.39770508 179.29052734 C-170.25075195 178.77748047 -170.10379883 178.26443359 -169.95239258 177.73583984 C-169.12549349 174.91297745 -168.2602007 172.10272572 -167.39770508 169.29052734 C-167.03032227 168.03884766 -166.66293945 166.78716797 -166.28442383 165.49755859 C-161.86689674 151.01750921 -155.81636778 135.9185214 -147.39770508 123.29052734 C-147.29211915 118.75033227 -148.80703703 116.6069122 -151.77270508 113.41552734 C-157.25690596 107.46961755 -158.68820182 102.0665541 -158.89379883 94.07568359 C-157.39826852 85.67951738 -152.83969434 79.97353757 -146.92114258 74.11474609 C-146.19585358 73.38230179 -145.47056458 72.64985748 -144.72329712 71.8952179 C-143.19472299 70.35890256 -141.65980069 68.82887977 -140.11889648 67.30493164 C-137.7807477 64.98600385 -135.47342663 62.63923719 -133.16723633 60.28857422 C-131.67031035 58.79135782 -130.17166709 57.29585599 -128.67114258 55.80224609 C-127.99159515 55.10741623 -127.31204773 54.41258636 -126.61190796 53.69670105 C-120.69601907 47.91992285 -114.1570721 44.29426917 -105.77270508 43.85302734 C-97.28058804 44.34467623 -92.52965785 47.60164007 -86.76879883 53.74365234 C-84.41913476 55.58093684 -84.41913476 55.58093684 -81.17114258 55.31396484 C-76.51931938 54.05229023 -72.75790362 52.03220345 -68.58520508 49.66552734 C-56.02496781 42.81148194 -43.01191324 37.80109193 -29.25830078 33.88696289 C-27.62128906 33.40903558 -26.00642063 32.85643914 -24.39770508 32.29052734 C-23.10745011 29.71001742 -23.25176508 27.67447595 -23.14770508 24.79052734 C-22.51043048 16.73769374 -19.9626804 10.27284128 -13.89770508 4.79052734 C-9.63960071 1.3358389 -5.45144228 0.04497444 0 0 Z " fill="#000000" transform="translate(234.397705078125,31.70947265625)"/>
<path d="M0 0 C1.31062912 -0.05488083 1.31062912 -0.05488083 2.6477356 -0.11087036 C3.37971664 -0.14575058 4.11169769 -0.1806308 4.86585999 -0.21656799 C8.17413711 0.45749031 9.72355474 1.75289841 12.00344849 4.21896362 C12.53292847 7.57633972 12.53292847 7.57633972 12.38919067 11.52096558 C12.36850903 12.22767804 12.34782738 12.93439051 12.32651901 13.6625185 C12.25107169 15.85090858 12.13476007 18.03326498 12.00344849 20.21896362 C11.92920654 21.48146942 11.8549646 22.74397522 11.7784729 24.04473877 C11.50962689 27.83100754 11.18211125 31.60737925 10.83157349 35.38693237 C10.70650401 36.76455013 10.58156799 38.14218001 10.45675659 39.51982117 C10.19646629 42.36969049 9.92997293 45.21890183 9.65969849 48.06784058 C9.31548129 51.70873379 8.99456438 55.35129852 8.6788826 58.99476147 C8.42991534 61.82437989 8.16518492 64.65236255 7.8960495 67.48012733 C7.71033327 69.47161509 7.54071308 71.46458294 7.37142944 73.45753479 C7.19169586 75.27146477 7.19169586 75.27146477 7.0083313 77.12203979 C6.86177094 78.71177864 6.86177094 78.71177864 6.71224976 80.33363342 C5.85053943 83.84141331 4.52271374 85.65605234 2.00344849 88.21896362 C-1.37155151 89.28146362 -1.37155151 89.28146362 -4.99655151 89.21896362 C-9.62333851 86.55792903 -13.19964228 83.27058704 -16.87155151 79.46896362 C-17.36912964 78.96236206 -17.86670776 78.4557605 -18.37936401 77.93380737 C-19.58978354 76.70011055 -20.79385004 75.46018578 -21.99655151 74.21896362 C-26.6596817 78.11096175 -31.06634093 82.15656122 -35.32722473 86.48321533 C-36.22202737 87.38520312 -36.22202737 87.38520312 -37.13490683 88.30541289 C-39.11457386 90.30203773 -41.09054674 92.30227843 -43.06661987 94.30245972 C-44.492797 95.74202812 -45.91926237 97.18131102 -47.34599304 98.62033081 C-50.40865718 101.70980216 -53.47006858 104.80050776 -56.53074455 107.8919487 C-61.37104163 112.77929188 -66.2189981 117.65898732 -71.06895447 122.53674316 C-71.88848459 123.36101252 -72.70801471 124.18528188 -73.55237907 125.03452909 C-75.2275378 126.71928833 -76.90272789 128.40401637 -78.57794869 130.08871388 C-89.86336072 141.4379816 -101.14489585 152.79091976 -112.39962769 164.17062378 C-120.00141379 171.85671001 -127.61720293 179.52860421 -135.24972445 187.18417418 C-139.28587076 191.23361306 -143.31445376 195.28999044 -147.32606316 199.36375046 C-151.09533776 203.19115506 -154.88280486 206.99955235 -158.68513298 210.79411316 C-160.07725369 212.19003454 -161.46251014 213.59284022 -162.84030533 215.00290298 C-164.72185364 216.92646984 -166.62648235 218.82380164 -168.53889465 220.71661377 C-169.07889553 221.2805995 -169.61889642 221.84458524 -170.17526096 222.42566144 C-173.10968065 225.27370662 -175.23067794 226.55994712 -179.26289463 226.6378355 C-183.05652008 226.21223586 -184.27664189 225.9368721 -186.90084839 223.30856323 C-187.56270142 222.66587494 -188.22455444 222.02318665 -188.90646362 221.36102295 C-189.59619263 220.65414337 -190.28592163 219.94726379 -190.99655151 219.21896362 C-191.73462036 218.50007965 -192.47268921 217.78119568 -193.23312378 217.04052734 C-195.68752786 214.64413378 -198.1097367 212.21840519 -200.52780151 209.78536987 C-201.84258484 208.46846413 -201.84258484 208.46846413 -203.18392944 207.12495422 C-205.95717947 204.34614866 -208.72691434 201.56386966 -211.49655151 198.78146362 C-213.38665957 196.88576497 -215.2775667 194.9908658 -217.16842651 193.09591675 C-221.78046155 188.47291173 -226.38962293 183.84705705 -230.99655151 179.21896362 C-235.81514285 183.23710882 -240.35669391 187.43856674 -244.7784729 191.88735962 C-245.7459459 192.85460933 -245.7459459 192.85460933 -246.7329638 193.84139943 C-248.87626983 195.98539551 -251.01598811 198.13293557 -253.1557312 200.28048706 C-254.69845157 201.8251281 -256.24140089 203.36954051 -257.78456116 204.91374207 C-261.09805342 208.23038776 -264.4099875 211.5485788 -267.72072601 214.86797333 C-272.95333147 220.11412157 -278.18976737 225.35643513 -283.42678833 230.59817505 C-294.5363394 241.71881345 -305.64165828 252.84367433 -316.74655151 263.96896362 C-328.74918833 275.99363303 -340.75256514 288.01755951 -352.76080441 300.03663468 C-357.9697933 305.25061369 -363.17633236 310.46702319 -368.3810277 315.68528795 C-371.61254387 318.92424537 -374.84611421 322.16114593 -378.08025551 325.39748192 C-379.58278908 326.90189272 -381.08445538 328.40717026 -382.58520317 329.9133625 C-384.62870212 331.9640432 -386.67523371 334.01164834 -388.7225647 336.0585022 C-389.31993022 336.65946268 -389.91729574 337.26042316 -390.53276324 337.87959456 C-396.64979519 343.98130074 -396.64979519 343.98130074 -401.18405151 344.78146362 C-405.12522611 344.19997885 -405.72759763 343.92079847 -408.48483276 341.39474487 C-409.18132935 340.75883423 -409.87782593 340.12292358 -410.59542847 339.46774292 C-411.38779907 338.72564575 -412.18016968 337.98354858 -412.99655151 337.21896362 C-413.92105103 336.36536255 -414.84555054 335.51176147 -415.79806519 334.6322937 C-418.37325703 332.24035986 -420.90726187 329.80908362 -423.42672729 327.35861206 C-424.47894373 326.34337866 -425.53998604 325.33721874 -426.60934448 324.34005737 C-428.17732037 322.87578486 -429.71351655 321.38374071 -431.24655151 319.88302612 C-432.61553589 318.57519165 -432.61553589 318.57519165 -434.01217651 317.24093628 C-436.33166427 313.70862581 -436.63895708 311.78873207 -436.52517605 307.65088665 C-435.47586978 302.82358122 -431.89444941 299.88841098 -428.45761108 296.54389954 C-427.24101217 295.30729909 -427.24101217 295.30729909 -425.99983549 294.04571682 C-423.75088584 291.76905698 -421.48290893 289.51362185 -419.20522594 287.26577508 C-416.75119038 284.83418594 -414.32323251 282.37679045 -411.89181519 279.92262268 C-407.12744511 275.12210156 -402.33915742 270.34614859 -397.54193455 265.57848083 C-393.64369517 261.70330683 -389.7545228 257.81924485 -385.87165833 253.92866707 C-385.04251463 253.09788781 -385.04251463 253.09788781 -384.19662055 252.25032513 C-383.07372298 251.12512231 -381.95084891 249.99989604 -380.8279981 248.87464655 C-370.3001241 238.32628498 -359.74524004 227.80529138 -349.18065113 217.29371876 C-340.11654744 208.2739171 -331.07480247 199.23220536 -322.04928589 190.17379761 C-311.56704497 179.65338992 -301.07208185 169.14596132 -290.55585051 158.65952164 C-289.43454406 157.54133377 -288.31325079 156.42313271 -287.19197083 155.30491829 C-286.64027447 154.75475112 -286.08857811 154.20458396 -285.52016369 153.63774506 C-281.63339567 149.76003649 -277.75579746 145.87330116 -273.88157654 141.98306084 C-269.16017162 137.24270634 -264.42467586 132.51698779 -259.67060429 127.8093866 C-257.24532171 125.40711708 -254.82685836 122.99890649 -252.42527771 120.57292175 C-249.81866102 117.94674539 -247.18877737 115.3463645 -244.55136108 112.75117493 C-243.79647416 111.97912435 -243.04158723 111.20707376 -242.26382494 110.41162771 C-236.451235 104.77423483 -236.451235 104.77423483 -231.59913635 104.6732254 C-227.95849689 105.22472833 -226.63621121 105.58143053 -224.09225464 108.12936401 C-223.43040161 108.77205231 -222.76854858 109.4147406 -222.0866394 110.0769043 C-221.3969104 110.78378387 -220.7071814 111.49066345 -219.99655151 112.21896362 C-219.25848267 112.9378476 -218.52041382 113.65673157 -217.75997925 114.3973999 C-215.30557517 116.79379347 -212.88336633 119.21952205 -210.46530151 121.65255737 C-209.15051819 122.96946312 -209.15051819 122.96946312 -207.80917358 124.31297302 C-205.03592356 127.09177859 -202.26618869 129.87405759 -199.49655151 132.65646362 C-197.60644346 134.55216227 -195.71553633 136.44706145 -193.82467651 138.3420105 C-189.21264147 142.96501551 -184.6034801 147.59087019 -179.99655151 152.21896362 C-173.62842181 146.966487 -167.83254142 141.18965657 -162.01242065 135.34835815 C-160.918021 134.253676 -159.82340025 133.15921484 -158.72857666 132.06495667 C-155.77436338 129.11102889 -152.82323153 126.15404021 -149.87266469 123.19647074 C-146.78216988 120.09970131 -143.68882047 117.00578594 -140.59577942 113.91156006 C-134.74682645 108.05950586 -128.9004261 102.20490845 -123.05495018 96.34938133 C-116.39668099 89.67991342 -109.73555338 83.01330348 -103.07419026 76.34692597 C-89.3784726 62.64077128 -75.68632878 48.93105149 -61.99655151 35.21896362 C-62.95229091 34.09622077 -63.90912691 32.97441134 -64.86642456 31.85299683 C-65.39914474 31.22818924 -65.93186493 30.60338165 -66.48072815 29.9596405 C-68.17418967 28.01497506 -69.95272047 26.19574885 -71.80905151 24.40646362 C-75.06391665 21.26656061 -75.92945452 20.0509664 -76.30905151 15.34396362 C-76.27465063 12.18481596 -76.1461284 11.42011875 -74.18405151 8.78146362 C-70.53531309 6.17522189 -67.12414971 5.95608969 -62.756073 5.55465698 C-61.46720688 5.434608 -60.17834076 5.31455902 -58.85041809 5.19087219 C-57.43951281 5.06330698 -56.02858801 4.93595753 -54.61764526 4.80880737 C-53.16613604 4.6758997 -51.71464397 4.54280461 -50.26316833 4.40953064 C-47.21609478 4.13063001 -44.16879043 3.85443625 -41.12130737 3.58004761 C-37.23982109 3.23029219 -33.35904499 2.87326371 -29.47842312 2.51406002 C-26.47674819 2.23715975 -23.47469556 1.9645399 -20.47252083 1.69311714 C-19.04324891 1.56333129 -17.61410014 1.43218096 -16.1850872 1.2995739 C-10.79395224 0.80086514 -5.39945532 0.3945483 0 0 Z " fill="#000000" transform="translate(467.9965515136719,83.78103637695313)"/>
</svg>
