<?xml version="1.0" encoding="UTF-8"?>
<svg version="1.1" xmlns="http://www.w3.org/2000/svg" width="512" height="512">
<path d="M0 0 C0.99304964 -0.00384115 1.98609929 -0.00768229 3.00924134 -0.01163983 C4.10824321 -0.01077335 5.20724507 -0.00990687 6.33955002 -0.00901413 C8.08148183 -0.01347081 8.08148183 -0.01347081 9.85860419 -0.01801753 C13.09195884 -0.02521289 16.32528118 -0.02787802 19.55864263 -0.028615 C23.0420601 -0.03046272 26.525466 -0.03800868 30.0088768 -0.04475021 C37.63081738 -0.05834631 45.25275271 -0.06436039 52.87470341 -0.06876087 C57.63237304 -0.07152144 62.39004064 -0.07575848 67.14770889 -0.08026505 C80.31555809 -0.09245995 93.48340565 -0.10275845 106.65126038 -0.10614014 C107.49444997 -0.1063597 108.33763956 -0.10657927 109.20638035 -0.10680549 C110.47422718 -0.10713291 110.47422718 -0.10713291 111.76768708 -0.10746694 C113.48050451 -0.10791041 115.19332194 -0.10835697 116.90613937 -0.10880661 C118.18056989 -0.10913875 118.18056989 -0.10913875 119.48074648 -0.10947761 C133.24705849 -0.11342544 147.01331756 -0.13087802 160.77960911 -0.15416613 C174.90711855 -0.17787271 189.03460142 -0.19034169 203.16213107 -0.19150805 C211.09665861 -0.19242527 219.0311172 -0.19818908 226.96562576 -0.21632767 C233.72248327 -0.23171939 240.47925052 -0.23685468 247.23612222 -0.22858956 C250.68395112 -0.22467958 254.13159823 -0.22562938 257.57940483 -0.23964691 C261.31707515 -0.25229203 265.05427602 -0.24652962 268.7919426 -0.23606491 C269.88202157 -0.24412132 270.97210055 -0.25217772 272.09521222 -0.26047826 C278.53871846 -0.21816384 283.20916981 0.32085256 288.18299484 4.81502151 C288.66123703 5.39381058 289.13947922 5.97259964 289.63221359 6.56892776 C290.12334641 7.1451387 290.61447922 7.72134964 291.12049484 8.31502151 C293.82350879 12.40916316 293.46287959 16.94548932 293.45114136 21.69435215 C293.45319399 22.463392 293.45524662 23.23243186 293.45736146 24.02477595 C293.46304229 26.61684579 293.46157288 29.20886267 293.46015549 31.80093765 C293.4627385 33.67206101 293.46575147 35.54318382 293.46915889 37.41430587 C293.47723957 42.56807144 293.47901905 47.7218231 293.47975636 52.87559426 C293.48160503 58.42922409 293.48915138 63.98284667 293.49589157 69.53647232 C293.50948255 81.68507737 293.51550067 93.83367912 293.51990223 105.98229051 C293.5226631 113.56452711 293.52690015 121.14676244 293.5314064 128.72899818 C293.54359958 149.71267006 293.55393451 170.69634125 293.55728149 191.68001652 C293.55750313 193.03698025 293.55772491 194.39394397 293.55794685 195.7509077 C293.55816749 197.11115595 293.55838797 198.47140421 293.55860829 199.83165246 C293.55905085 202.56056519 293.55949796 205.28947793 293.55994797 208.01839066 C293.56011205 209.03330824 293.56011205 209.03330824 293.56027946 210.06872921 C293.56391091 232.01290526 293.57983458 253.9570483 293.60313833 275.9012117 C293.62772836 299.09898469 293.6414472 322.29673954 293.64264941 345.494528 C293.64356708 358.14124685 293.64934254 370.78792247 293.66746902 383.43462944 C293.68284696 394.20178757 293.68800409 404.9688891 293.67973092 415.73605613 C293.67581637 421.23154189 293.67679328 426.72691358 293.69078827 432.22238541 C293.70347873 437.25149168 293.7023725 442.2803976 293.69019756 447.3095034 C293.68823213 449.13049419 293.69135779 450.95149895 293.70004192 452.77247009 C293.71109081 455.2455509 293.70367715 457.71791918 293.69165039 460.19097996 C293.70304318 461.25424047 293.70304318 461.25424047 293.71466613 462.338981 C293.65494997 468.01762774 292.40304888 472.75453159 288.60096359 477.09236526 C288.01315109 477.55900589 287.42533859 478.02564651 286.81971359 478.50642776 C286.23190109 478.98853714 285.64408859 479.47064651 285.03846359 479.96736526 C281.60745595 482.29109317 278.54724618 482.25810189 274.53248501 482.26285553 C273.3179904 482.26669667 272.10349578 482.27053782 270.8521983 482.27449536 C269.49743182 482.27371508 268.14266538 482.27283629 266.78789902 482.27186966 C265.35415467 482.27445262 263.92041104 482.27746559 262.48666841 482.28087306 C258.53727884 482.28895438 254.58790744 482.29073326 250.63851058 482.29147053 C246.3827801 482.29331911 242.1270591 482.30086543 237.87133408 482.30760574 C228.56148971 482.32119741 219.25164965 482.32721502 209.94179702 482.3316164 C204.13098862 482.3343773 198.32018189 482.33861436 192.50937462 482.34312057 C176.42741596 482.35531411 160.34545863 482.3656134 144.26349545 482.36899567 C143.23388146 482.36921523 142.20426748 482.3694348 141.14345308 482.36966102 C140.11134824 482.3698793 139.07924339 482.37009757 138.01586264 482.37032247 C135.92435658 482.37076594 133.83285052 482.3712125 131.74134445 482.37166214 C130.70388088 482.37188357 129.66641731 482.372105 128.59751544 482.37233314 C111.78230423 482.37628218 94.96713633 482.39373905 78.15194186 482.41702166 C60.89652682 482.44072138 43.64113353 482.45319688 26.38570195 482.45436358 C16.69397042 482.4552811 7.00229531 482.46105263 -2.6894207 482.4791832 C-10.94126958 482.49456555 -19.19304459 482.49971568 -27.44490508 482.49144509 C-31.65625405 482.48753202 -35.86745418 482.48850014 -40.07878494 482.50250244 C-43.9334974 482.51520199 -47.78794857 482.51407879 -51.64266046 482.50191173 C-53.03769098 482.49994786 -54.43273976 482.5030649 -55.82774458 482.51175609 C-57.7236443 482.52282081 -59.61962995 482.51358589 -61.5155344 482.50336456 C-63.09538969 482.5042602 -63.09538969 482.5042602 -64.70716125 482.50517392 C-69.83456921 481.86061679 -73.72048248 479.65420933 -76.99278641 475.69392776 C-77.48391922 475.11771683 -77.97505203 474.54150589 -78.48106766 473.94783401 C-81.03025703 470.08668399 -80.80986461 466.05855048 -80.82288742 461.53957367 C-80.82613844 460.87551258 -80.82938946 460.21145149 -80.832739 459.52726734 C-80.84243735 457.29230389 -80.84503059 455.05738893 -80.84764481 452.82240677 C-80.8530915 451.20773293 -80.858955 449.59306045 -80.86520052 447.9783895 C-80.88105686 443.53345957 -80.89056872 439.08853515 -80.89896536 434.64358568 C-80.90696836 430.83307752 -80.91865902 427.02258426 -80.93038017 423.21208599 C-80.97228427 409.56542764 -80.99949028 395.91875178 -81.02403641 382.27205276 C-81.02601131 381.19533951 -81.02798621 380.11862626 -81.03002095 379.00928533 C-81.06917779 357.6348803 -81.10288494 336.26046945 -81.125103 314.88603973 C-81.13007238 310.18691118 -81.1351167 305.48778271 -81.14024734 300.78865433 C-81.14151802 299.62069383 -81.14278869 298.45273333 -81.14409786 297.24938008 C-81.16546698 278.32096256 -81.2144723 259.39271841 -81.27449149 240.46438816 C-81.33558588 221.03705149 -81.37028684 201.60980434 -81.37957621 182.18237281 C-81.3854911 171.27205509 -81.40328342 160.36203125 -81.45096207 149.45180893 C-81.49152165 140.16206283 -81.50845633 130.87265858 -81.49430925 121.58282784 C-81.48783357 116.84240501 -81.49275017 112.10271063 -81.52818298 107.36240005 C-81.56036725 103.02187854 -81.56019458 98.68260029 -81.53436595 94.34204742 C-81.53071491 92.77270216 -81.53889059 91.20327502 -81.56014746 89.63406947 C-81.72784997 76.4592683 -81.72784997 76.4592683 -77.33799839 71.36154842 C-76.14538113 70.25542843 -74.92651164 69.1767794 -73.68028641 68.13142776 C-72.54638721 66.9747859 -71.42100575 65.80966549 -70.30838394 64.63254166 C-69.13042105 63.44875622 -67.94983377 62.26757783 -66.76695633 61.08870316 C-66.1156575 60.43565201 -65.46435867 59.78260086 -64.79332352 59.10976028 C-62.66828639 56.98036848 -60.53966849 54.85459993 -58.41075516 52.72908401 C-56.92324848 51.24090295 -55.43589021 49.75257353 -53.94867325 48.26410294 C-50.84626525 45.16022706 -47.74207157 42.05815134 -44.63658524 38.9573555 C-40.6505955 34.97709247 -36.66915219 30.9923165 -32.68900967 27.00620747 C-29.62571739 23.93931043 -26.56005833 20.8747882 -23.4936657 17.81099129 C-22.02366871 16.34166226 -20.55441663 14.87158762 -19.08591652 13.40076256 C-17.04189667 11.35421439 -14.99471851 9.31087985 -12.94664383 7.26839066 C-12.33833221 6.65805481 -11.7300206 6.04771896 -11.1032753 5.41888809 C-7.18803383 1.52348965 -5.476297 0.00792131 0 0 Z M6.31971359 15.13142776 C5.98971359 35.59142776 5.65971359 56.05142776 5.31971359 77.13142776 C1.79935024 84.17215446 1.79935024 84.17215446 -2.36171341 85.65452957 C-7.73835894 86.76043072 -13.24481786 86.48955385 -18.70763016 86.42439651 C-20.06525578 86.41879299 -21.42288751 86.41452647 -22.78052139 86.41153336 C-26.33326185 86.40014391 -29.88562742 86.37072886 -33.43822098 86.33742142 C-37.07159226 86.3065922 -40.70502482 86.29300072 -44.33848953 86.27791214 C-51.45257408 86.24585247 -58.56640561 86.19472882 -65.68028641 86.13142776 C-65.70315339 134.3797431 -65.72078494 182.62805786 -65.73135174 230.87637755 C-65.73260251 236.56686304 -65.73389683 242.25734853 -65.73521805 247.94783401 C-65.73548036 249.08075239 -65.73574267 250.21367077 -65.73601293 251.38092001 C-65.74036944 269.74773893 -65.74825688 288.11455473 -65.7574392 306.48137181 C-65.76677627 325.31416793 -65.77234213 344.14696242 -65.7743749 362.97976077 C-65.77575002 374.60943332 -65.78010001 386.23909707 -65.78820287 397.86876692 C-65.79347098 405.83343756 -65.79509055 413.79810362 -65.79378778 421.76277588 C-65.79314451 426.3644352 -65.79416078 430.96607907 -65.79949188 435.56773567 C-65.80433014 439.77447663 -65.80462222 443.98119165 -65.8011853 448.18793376 C-65.80076003 449.71555061 -65.80205218 451.24316903 -65.80516959 452.77078275 C-65.80914145 454.83600378 -65.80704482 456.90112931 -65.80333424 458.96634865 C-65.80371396 460.11690125 -65.80409368 461.26745385 -65.8044849 462.45287168 C-65.86288702 465.10398121 -65.86288702 465.10398121 -64.68028641 467.13142776 C48.17971359 467.13142776 161.03971359 467.13142776 277.31971359 467.13142776 C278.80350458 464.16384579 278.45623873 461.14777701 278.44555473 457.8943367 C278.44700817 457.13623679 278.44846161 456.37813689 278.4499591 455.59706426 C278.4536388 453.03021134 278.4501236 450.46341707 278.44669724 447.89656448 C278.44784828 446.04835288 278.44943568 444.20014151 278.45142448 442.35193062 C278.45562014 437.25239932 278.45352604 432.1528866 278.45043826 427.05335522 C278.44818534 421.5618203 278.45166323 416.07028869 278.45441818 410.57875443 C278.45887604 399.812627 278.45789934 389.04650652 278.45500554 378.28037882 C278.45275157 369.53425572 278.45243896 360.78813457 278.45352936 352.04201126 C278.45368259 350.79949785 278.45383582 349.55698444 278.4539937 348.27681911 C278.45431341 345.75305764 278.45463762 343.22929617 278.45496629 340.7055347 C278.45773967 317.68945739 278.45485851 294.67338338 278.44962369 271.65730688 C278.44487783 250.63110035 278.44530245 229.60489987 278.45008469 208.57869339 C278.45543536 184.97413761 278.45754644 161.3695845 278.45447242 137.765028 C278.45415386 135.25030009 278.45383949 132.73557218 278.45352936 130.22084427 C278.45337508 128.98339427 278.45322081 127.74594427 278.45306186 126.47099578 C278.45219669 117.73050663 278.45365958 108.99001962 278.45600891 100.24953079 C278.45880706 89.604797 278.45806833 78.9600706 278.45272817 68.31533766 C278.45009135 62.87925657 278.44908576 57.4431878 278.45237732 52.00710678 C278.45534069 47.03807099 278.45374677 42.06905902 278.44839977 37.10002542 C278.44727576 35.29521656 278.44786641 33.49040573 278.45027556 31.68559813 C278.45328346 29.24654241 278.45023092 26.80757008 278.44555473 24.36851883 C278.4478959 23.65559779 278.45023707 22.94267676 278.45264918 22.20815206 C278.48513491 18.54649631 278.48513491 18.54649631 277.31971359 15.13142776 C187.88971359 15.13142776 98.45971359 15.13142776 6.31971359 15.13142776 Z M-13.8328743 30.15462112 C-14.71371185 31.03230652 -15.59454941 31.90999191 -16.50207901 32.81427383 C-17.46916114 33.78314573 -18.43611257 34.75214811 -19.40294266 35.72127151 C-20.38785767 36.70551352 -21.37292114 37.68960699 -22.35812759 38.67355728 C-24.42523572 40.73918829 -26.49051694 42.80662465 -28.55455399 44.87532425 C-31.20674591 47.53321347 -33.86340068 50.18658931 -36.52143574 52.83863354 C-38.55718857 54.87078113 -40.59056373 56.90529433 -42.62321663 58.94054222 C-43.60214019 59.92013516 -44.58181342 60.89897951 -45.56223106 61.8770771 C-46.92959804 63.24191818 -48.29343938 64.61028871 -49.65709305 65.97883987 C-50.43573212 66.75827454 -51.21437119 67.5377092 -52.01660538 68.34076309 C-53.79372864 69.84615518 -53.79372864 69.84615518 -53.68028641 71.13142776 C-49.74305176 71.30475644 -45.80547359 71.46873159 -41.86778641 71.63142776 C-40.7869075 71.67912308 -39.70602859 71.72681839 -38.59239578 71.77595901 C-28.59604533 72.18160802 -18.71406998 72.13142776 -8.68028641 72.13142776 C-8.68028641 56.95142776 -8.68028641 41.77142776 -8.68028641 26.13142776 C-10.72398858 26.13142776 -12.51580429 28.83889549 -13.8328743 30.15462112 Z " fill="#000000" transform="translate(149.6802864074707,14.868572235107422)"/>
<path d="M0 0 C9.30091496 6.69360929 15.87758131 16.21575908 18.1328125 27.609375 C19.61562665 40.09745039 17.37363783 51.56712025 9.890625 61.8515625 C5.2536517 67.58170826 0.29889053 72.09826089 -6.6171875 74.71484375 C-6.57078125 75.39289063 -6.524375 76.0709375 -6.4765625 76.76953125 C-6.16015883 84.92822593 -7.30644695 91.38771332 -12.34765625 97.9765625 C-18.29920356 104.40328325 -24.44400987 107.77797562 -33.32296181 108.19506741 C-37.13926541 108.29025676 -40.95226451 108.29591331 -44.76953125 108.28125 C-46.4366541 108.28649447 -48.10377399 108.29277394 -49.77088928 108.30003357 C-53.25324535 108.31040148 -56.73519188 108.30592884 -60.2175293 108.29125977 C-64.65705764 108.27407948 -69.0952907 108.29757596 -73.53467464 108.33274937 C-76.97421167 108.35482056 -80.4134434 108.35325853 -83.85302925 108.34498405 C-85.48872867 108.3441698 -87.1244517 108.35093159 -88.76008415 108.36575508 C-100.1512056 108.45318236 -108.6676538 107.25793157 -117.4921875 99.46484375 C-123.87322187 92.42006112 -125.31656007 85.56537878 -124.9921875 76.1484375 C-124.09028318 67.89037605 -120.94614904 62.39740254 -115.203125 56.50390625 C-105.21981426 49.59702359 -95.14628042 50.22945239 -83.4921875 50.46484375 C-81.75522897 50.48494293 -80.01824793 50.50318765 -78.28125 50.51953125 C-74.05933263 50.56324864 -69.83851266 50.63208515 -65.6171875 50.71484375 C-65.93719727 49.94084229 -66.25720703 49.16684082 -66.58691406 48.36938477 C-70.23487159 38.97027524 -68.82490475 28.23711223 -65.16796875 19.08984375 C-59.7299713 7.13887751 -52.31661922 0.02930669 -40.28125 -5.32421875 C-26.50986827 -10.21969332 -12.05870492 -7.73042369 0 0 Z M-46.98828125 17.6875 C-49.83524608 21.23084472 -51.6171875 24.13555622 -51.6171875 28.71484375 C-33.7971875 28.71484375 -15.9771875 28.71484375 2.3828125 28.71484375 C-1.29115709 18.91759152 -4.33177731 14.5011488 -13.46875 9.66015625 C-25.65364196 4.29880379 -38.2854448 8.24624106 -46.98828125 17.6875 Z M-51.6171875 43.71484375 C-50.28800789 49.19309456 -50.28800789 49.19309456 -48.6171875 50.71484375 C-47.24653361 50.82341224 -45.87089496 50.87060432 -44.49609375 50.890625 C-22.79067018 51.42630702 -22.79067018 51.42630702 -15.4921875 58.46484375 C-14.5640625 59.57859375 -14.5640625 59.57859375 -13.6171875 60.71484375 C-7.66174949 58.78808439 -3.4220803 55.40464691 -0.2421875 50.08984375 C1.59972031 46.88864808 1.59972031 46.88864808 1.3828125 43.71484375 C-16.1071875 43.71484375 -33.5971875 43.71484375 -51.6171875 43.71484375 Z M-106.6171875 69.71484375 C-109.35924833 73.60680105 -110.16542283 77.08236293 -109.96875 81.7578125 C-109.19568756 86.0611934 -106.80862863 88.83930621 -103.37231445 91.36450195 C-100.08163794 92.9773271 -97.87441737 93.05973327 -94.22265625 93.0078125 C-93.13879639 93.00031982 -92.05493652 92.99282715 -90.93823242 92.98510742 C-88.89212769 92.9441394 -88.89212769 92.9441394 -86.8046875 92.90234375 C-80.276875 92.80953125 -80.276875 92.80953125 -73.6171875 92.71484375 C-73.6171875 83.80484375 -73.6171875 74.89484375 -73.6171875 65.71484375 C-79.835625 65.59109375 -79.835625 65.59109375 -86.1796875 65.46484375 C-87.47334229 65.42842773 -88.76699707 65.39201172 -90.09985352 65.35449219 C-96.83117292 65.28972276 -101.224342 65.53387365 -106.6171875 69.71484375 Z M-58.6171875 65.71484375 C-58.6171875 74.62484375 -58.6171875 83.53484375 -58.6171875 92.71484375 C-54.07488338 92.82285098 -49.53515211 92.90218217 -44.9921875 92.96484375 C-43.70699219 92.99835938 -42.42179687 93.031875 -41.09765625 93.06640625 C-31.98954992 93.33009681 -31.98954992 93.33009681 -24.6171875 88.71484375 C-21.69915457 84.33779435 -20.97670441 80.93020604 -21.6171875 75.71484375 C-23.09072594 71.67718192 -24.54550394 69.34548081 -28.30273438 67.13452148 C-31.8885685 65.59860329 -34.23375365 65.36650898 -38.109375 65.421875 C-39.73141846 65.43311401 -39.73141846 65.43311401 -41.38623047 65.44458008 C-42.74119629 65.47189209 -44.09616211 65.4992041 -45.4921875 65.52734375 C-49.8234375 65.58921875 -54.1546875 65.65109375 -58.6171875 65.71484375 Z " fill="#000000" transform="translate(324.6171875,43.28515625)"/>
<path d="M0 0 C0.72590777 -0.00226556 1.45181553 -0.00453111 2.1997205 -0.00686532 C4.6386257 -0.01320896 7.07747539 -0.01237572 9.51638794 -0.0115509 C11.26239087 -0.01454217 13.00839314 -0.01794463 14.75439453 -0.02172852 C19.50233859 -0.03057612 24.25026464 -0.03290695 28.99821615 -0.0335443 C32.95951056 -0.03449295 36.92080076 -0.03817075 40.88209355 -0.0417164 C50.22699072 -0.0498639 59.57187825 -0.05230037 68.91677856 -0.05158997 C78.56146919 -0.05098913 88.20610389 -0.0615415 97.85078037 -0.07733363 C106.12686167 -0.09040271 114.40292469 -0.09577413 122.67901623 -0.09513456 C127.62385912 -0.09487938 132.56865233 -0.09774152 137.51348495 -0.10831261 C142.16408744 -0.11798292 146.81459264 -0.1180801 151.46519852 -0.11079597 C153.17241304 -0.1097488 154.87963359 -0.11212091 156.58683777 -0.11815643 C158.91689345 -0.12586058 161.24661187 -0.12124211 163.57666016 -0.11352539 C165.53285184 -0.11434254 165.53285184 -0.11434254 167.52856255 -0.1151762 C170.82741776 0.12725338 173.01812777 0.5662538 175.91531372 2.13371277 C178.24280717 5.62495294 178.41830688 7.02593528 177.91531372 11.13371277 C176.35726261 13.29379368 176.35726261 13.29379368 173.91531372 15.13371277 C171.29247652 15.52476356 169.08941646 15.67075777 166.46913147 15.63491821 C165.71645683 15.64045261 164.9637822 15.64598701 164.18829924 15.65168911 C161.66459579 15.6653095 159.14187895 15.65031962 156.61819458 15.63542175 C154.80968302 15.63920441 153.00117435 15.644704 151.19267273 15.65179443 C146.27951884 15.66577235 141.36671421 15.65456333 136.45357966 15.63808322 C131.31668102 15.62424959 126.179803 15.63069079 121.04289246 15.63421631 C112.41689411 15.63691952 103.79103484 15.62343241 95.16506958 15.6002655 C85.18456195 15.57364666 75.20428674 15.57191093 65.22375578 15.58365387 C55.63103373 15.59442279 46.03839597 15.58825209 36.44568062 15.57409859 C32.35919776 15.56833194 28.27277643 15.56842677 24.18629265 15.57316399 C19.37720337 15.57792682 14.56836951 15.56786097 9.75932884 15.54620934 C7.99161897 15.54063212 6.2238846 15.5401847 4.45617294 15.5451622 C2.04866675 15.55109244 -0.35805252 15.53865428 -2.76548767 15.52139282 C-3.46995515 15.52740287 -4.17442264 15.53341291 -4.90023762 15.53960508 C-7.78281821 15.50185387 -9.64491581 15.45301041 -12.01723385 13.73057652 C-13.99671505 10.76935626 -13.61893186 7.54576122 -13.08468628 4.13371277 C-9.94119845 -0.50667402 -5.13582713 0.00660351 0 0 Z " fill="#000000" transform="translate(205.08468627929688,242.8662872314453)"/>
<path d="M0 0 C0.737304 -0.00438225 1.474608 -0.00876451 2.23425454 -0.01327956 C4.71771091 -0.02668968 7.20113179 -0.03285134 9.68461609 -0.03897095 C11.4600287 -0.04687011 13.2354397 -0.05513895 15.010849 -0.06375122 C20.85220298 -0.08999077 26.69356422 -0.10527986 32.53495789 -0.11953735 C34.54386589 -0.12489606 36.55277384 -0.13027357 38.56168175 -0.13566971 C46.91621053 -0.15730044 55.27073735 -0.17603839 63.62528706 -0.1872921 C75.60911239 -0.2035393 87.59261389 -0.2367336 99.57631713 -0.29369295 C107.99674817 -0.33235515 116.41709246 -0.35192032 124.83760995 -0.35721266 C129.86978528 -0.36087097 134.90161537 -0.3729431 139.93369484 -0.4053154 C144.66731131 -0.43533094 149.40037247 -0.44173123 154.13406372 -0.42993164 C155.87193557 -0.42971036 157.6098327 -0.43806003 159.3476162 -0.45558548 C161.71988362 -0.47820845 164.09012564 -0.47001627 166.46240234 -0.45410156 C167.15073554 -0.46798365 167.83906873 -0.48186574 168.54826051 -0.49616849 C172.31334456 -0.43389812 173.88022555 0.12159907 176.88788128 2.46533775 C178.92167664 5.15390015 178.92167664 5.15390015 178.92167664 8.77890015 C177.57896511 13.31055156 177.57896511 13.31055156 174.92167664 15.15390015 C172.41217323 15.44849322 170.1504012 15.55882713 167.64044189 15.53485107 C166.8934108 15.53953105 166.14637971 15.54421102 165.37671131 15.54903281 C162.86621147 15.56102675 160.35625308 15.55150863 157.8457489 15.54208374 C156.04886048 15.54614753 154.25197455 15.55148832 152.45509338 15.55801392 C147.56873261 15.57171723 142.68256137 15.56637619 137.79619718 15.55687666 C132.68778542 15.54929449 127.57939016 15.55632176 122.47097778 15.56103516 C113.89030537 15.56649742 105.30971035 15.55928928 96.72904968 15.54501343 C86.80368899 15.52869122 76.87851321 15.53397043 66.95315701 15.55049264 C58.43843869 15.56410031 49.92377608 15.56603053 41.40905041 15.55817664 C36.32058776 15.5534955 31.23221205 15.55288727 26.14375496 15.5627861 C21.35931227 15.57144284 16.57510824 15.56545751 11.79069138 15.54810333 C10.03307301 15.54413135 8.27543461 15.54528467 6.51782417 15.55189133 C4.12157525 15.56006906 1.72609476 15.54983141 -0.67010498 15.53485107 C-1.7176237 15.54488932 -1.7176237 15.54488932 -2.78630441 15.55513036 C-6.81038085 15.50621407 -9.21462631 15.07109473 -12.07832336 12.15390015 C-12.7712533 9.4476541 -12.56472528 6.89491801 -12.07832336 4.15390015 C-8.93281425 -0.27840815 -5.02368726 0.00359782 0 0 Z " fill="#000000" transform="translate(204.0783233642578,185.84609985351563)"/>
<path d="M0 0 C0.7252022 -0.00297112 1.4504044 -0.00594224 2.19758242 -0.0090034 C4.6341492 -0.01769359 7.07066687 -0.01919892 9.50724792 -0.02069092 C11.25162867 -0.02531886 12.99600841 -0.03034349 14.74038696 -0.03573608 C19.48426215 -0.04886429 24.22812319 -0.05530585 28.97201371 -0.05974674 C31.93515797 -0.06267676 34.89829835 -0.06678143 37.86144066 -0.07125092 C47.13057113 -0.08492689 56.39969274 -0.09459308 65.6688326 -0.09845281 C76.3721641 -0.1029341 87.07536792 -0.12048487 97.7786606 -0.1494534 C106.04966202 -0.17106262 114.32062751 -0.18115668 122.59165686 -0.18249393 C127.53264915 -0.18354249 132.47352143 -0.18946123 137.41448402 -0.20731354 C142.06265987 -0.22378108 146.71062535 -0.22595613 151.35881996 -0.21717453 C153.06400617 -0.21640345 154.76920364 -0.22075619 156.47436142 -0.23063278 C158.80420322 -0.24333528 161.13329804 -0.23748516 163.46313477 -0.22705078 C164.76634076 -0.22851734 166.06954676 -0.2299839 167.41224384 -0.2314949 C171.23507628 0.17361435 173.66432239 1.13029869 176.92204285 3.14044189 C178.34246105 5.98127831 178.23656557 7.99521467 177.92204285 11.14044189 C176.36789799 13.30442905 176.36789799 13.30442905 173.92204285 15.14044189 C171.29920565 15.53149269 169.09614559 15.6774869 166.4758606 15.64164734 C165.72318596 15.64718174 164.97051132 15.65271613 164.19502836 15.65841824 C161.67132491 15.67203863 159.14860807 15.65704875 156.62492371 15.64215088 C154.81641214 15.64593353 153.00790347 15.65143313 151.19940186 15.65852356 C146.28624796 15.67250147 141.37344334 15.66129245 136.46030879 15.64481235 C131.32341014 15.63097872 126.18653212 15.63741992 121.04962158 15.64094543 C112.42362324 15.64364865 103.79776396 15.63016153 95.17179871 15.60699463 C85.19129108 15.58037579 75.21101587 15.57864006 65.2304849 15.59038299 C55.63776286 15.60115192 46.04512509 15.59498121 36.45240974 15.58082771 C32.36592688 15.57506107 28.27950556 15.57515589 24.19302177 15.57989311 C19.3839325 15.58465595 14.57509863 15.5745901 9.76605797 15.55293846 C7.9983481 15.54736125 6.23061373 15.54691382 4.46290207 15.55189133 C2.05539587 15.55782156 -0.35132339 15.5453834 -2.75875854 15.52812195 C-3.46322603 15.53413199 -4.16769351 15.54014204 -4.89350849 15.54633421 C-7.77608908 15.508583 -9.63818669 15.45973954 -12.01050472 13.73730564 C-13.98998592 10.77608539 -13.61220274 7.55249035 -13.07795715 4.14044189 C-9.93684198 -0.49644241 -5.13286028 0.01172631 0 0 Z " fill="#000000" transform="translate(205.0779571533203,304.85955810546875)"/>
<path d="M0 0 C0.72111865 -0.00297112 1.44223729 -0.00594224 2.18520802 -0.0090034 C4.60795533 -0.01769331 7.03065325 -0.01919889 9.45341492 -0.02069092 C11.18794358 -0.02531888 12.92247123 -0.03034351 14.65699768 -0.03573608 C19.37401422 -0.0488641 24.09101653 -0.05530581 28.80804849 -0.05974674 C31.75444178 -0.06267679 34.70083118 -0.06678147 37.64722252 -0.07125092 C46.86402726 -0.08492685 56.0808231 -0.09459306 65.29763728 -0.09845281 C75.94040855 -0.10293407 86.58305142 -0.12048475 97.22578365 -0.1494534 C105.45007634 -0.17106291 113.6743329 -0.1811567 121.89865369 -0.18249393 C126.81170058 -0.18354247 131.72462679 -0.18946078 136.63764381 -0.20731354 C141.2595552 -0.22378159 145.88125502 -0.22595588 150.50318527 -0.21717453 C152.19869617 -0.21640348 153.89421839 -0.22075584 155.5897007 -0.23063278 C157.90640671 -0.24333615 160.22236159 -0.2374847 162.5390625 -0.22705078 C163.83489415 -0.22851734 165.1307258 -0.2299839 166.46582508 -0.2314949 C170.27997014 0.17450028 172.7086054 1.13602966 175.96000671 3.14044189 C177.38042492 5.98127831 177.27452944 7.99521467 176.96000671 11.14044189 C175.40348911 13.30442905 175.40348911 13.30442905 172.96000671 15.14044189 C170.3491805 15.53152107 168.15998863 15.67752037 165.55178833 15.64164734 C164.80319725 15.64718174 164.05460616 15.65271613 163.2833305 15.65841824 C160.7734447 15.67203809 158.26455105 15.65704907 155.75468445 15.64215088 C153.95602495 15.64593355 152.15736837 15.65143317 150.35871887 15.65852356 C145.47242295 15.67250121 140.58647822 15.66129265 135.70020175 15.64481235 C130.59133031 15.63097848 125.4824796 15.63741994 120.37359619 15.64094543 C111.79467599 15.64364863 103.21589561 15.6301617 94.63700867 15.60699463 C84.71103223 15.58037575 74.78528949 15.57864008 64.85928959 15.59038299 C55.3188931 15.60115199 45.77858136 15.59498116 36.2381916 15.58082771 C32.17403733 15.57506113 28.10994493 15.57515584 24.04578972 15.57989311 C19.26296471 15.58465601 14.48039652 15.57458983 9.69762039 15.55293846 C7.93958591 15.54736134 6.1815268 15.54691374 4.42349052 15.55189133 C2.02911996 15.55782176 -0.36445941 15.54538306 -2.75875854 15.52812195 C-3.45933508 15.53413199 -4.15991161 15.54014204 -4.88171774 15.54633421 C-7.75635306 15.50848246 -9.6056694 15.45617267 -11.97016811 13.73730564 C-13.95319056 10.77736721 -13.5743221 7.55302193 -13.03999329 4.14044189 C-9.90606409 -0.48583453 -5.12278642 0.01176995 0 0 Z " fill="#000000" transform="translate(206.0399932861328,366.85955810546875)"/>
<path d="M0 0 C0.74294754 -0.00538554 1.48589508 -0.01077108 2.25135618 -0.01631981 C4.74802454 -0.03066029 7.24416723 -0.02348089 9.74085999 -0.01637268 C11.52789742 -0.02207309 13.31493121 -0.02903606 15.10195923 -0.03717041 C19.96145156 -0.05515361 24.82076384 -0.05392374 29.68027949 -0.04822803 C33.73363667 -0.04514355 37.78695889 -0.05122036 41.84031111 -0.05726677 C51.40094015 -0.07132741 60.96147987 -0.06973799 70.52210999 -0.05836487 C80.39297845 -0.04688233 90.26357527 -0.06095812 100.13440794 -0.08776134 C108.6024209 -0.10989642 117.07034846 -0.11656067 125.53838831 -0.11068493 C130.59894059 -0.10730886 135.65931871 -0.10977341 140.71984673 -0.12693596 C145.47807625 -0.14236808 150.23590246 -0.13849121 154.99411583 -0.11963081 C156.74206208 -0.11593453 158.49003797 -0.11908355 160.237957 -0.1295166 C162.62126538 -0.1426578 165.00322499 -0.1312416 167.38647461 -0.11352539 C168.08092947 -0.1231304 168.77538434 -0.1327354 169.49088329 -0.14263147 C172.81057627 -0.09173187 174.5103383 0.20067777 177.18612003 2.23150539 C178.75672913 4.38768005 178.75672913 4.38768005 179.25672913 7.38768005 C178.62942855 11.1514835 177.77726467 12.09519597 174.75672913 14.38768005 C172.15790863 14.77878866 169.9825943 14.92479243 167.38647461 14.8888855 C166.26971331 14.89718709 166.26971331 14.89718709 165.13039118 14.9056564 C162.63432302 14.9192757 160.13925258 14.90428756 157.64320374 14.88938904 C155.85439631 14.89317173 154.06559181 14.89867136 152.27679443 14.90576172 C147.41735647 14.9197391 142.55827166 14.908531 137.69885325 14.8920505 C132.61800901 14.8782164 127.53718561 14.88465813 122.45632935 14.88818359 C113.92448727 14.89088677 105.3927858 14.87740003 96.86097717 14.85423279 C86.98953192 14.82761388 77.11832166 14.82587826 67.24685282 14.83762115 C57.75878189 14.84839022 48.27079617 14.84221927 38.78273201 14.82806587 C34.74090632 14.82229936 30.69914284 14.82239395 26.65731621 14.82713127 C21.90075547 14.83189424 17.14445295 14.82182771 12.38794136 14.80017662 C10.63958228 14.79459959 8.89119842 14.79415182 7.14283752 14.79912949 C4.76160258 14.80506011 2.38116313 14.79262087 0 14.77536011 C-0.69668559 14.78137015 -1.39337117 14.7873802 -2.11116844 14.79357237 C-4.97785688 14.75561899 -6.81439009 14.6998377 -9.17107296 12.9845438 C-10.50765275 10.99392642 -10.64538601 9.77381209 -10.61827087 7.38768005 C-10.62600525 6.70705505 -10.63373962 6.02643005 -10.64170837 5.32518005 C-9.47557955 -0.34540717 -4.87660379 -0.04206863 0 0 Z " fill="#000000" transform="translate(203.24327087402344,429.61231994628906)"/>
<path d="M0 0 C2.85429458 2.14457809 5.44167609 4.51310137 8 7 C11.00939316 5.65593552 12.99796933 4.13807855 15.3125 1.8125 C18.19285986 -0.72717213 18.67985739 -0.99466429 22.75 -1.0625 C27.59559402 0.52163651 27.59559402 0.52163651 29 3 C29.625 6.1875 29.625 6.1875 29 10 C27.32771864 12.26714762 25.53040166 14.21983962 23.53125 16.203125 C21.67569575 17.98709057 21.67569575 17.98709057 22 21 C23.5517056 22.87155148 23.5517056 22.87155148 25.5 24.75 C28.15002258 27.68010626 28.95092148 28.75460742 29.75 32.75 C29 36 29 36 26.9375 38.5 C24 40 24 40 20.625 40.1875 C15.78501256 38.60198687 13.26394307 35.79966625 10 32 C7.02068819 33.34003981 4.95954862 34.85621331 2.625 37.125 C0.10690765 39.33035283 -0.78560942 39.96216637 -4.1875 40.5625 C-7.37559488 39.92488102 -8.82113255 39.42096383 -11 37 C-12.09935452 33.62864612 -12.3653679 31.83819696 -10.9375 28.5625 C-8.43106796 25.24754149 -5.76312863 22.10293085 -3 19 C-3.56589844 18.49210937 -4.13179687 17.98421875 -4.71484375 17.4609375 C-10.67784666 11.86472739 -10.67784666 11.86472739 -12.1875 7.8125 C-11.95934909 4.39023633 -11.13475313 2.66844141 -9 0 C-5.26121635 -1.24626122 -3.78878042 -1.14378277 0 0 Z " fill="#000000" transform="translate(137,416)"/>
<path d="M0 0 C2.85429458 2.14457809 5.44167609 4.51310137 8 7 C11.00939316 5.65593552 12.99796933 4.13807855 15.3125 1.8125 C18.19285986 -0.72717213 18.67985739 -0.99466429 22.75 -1.0625 C27.59559402 0.52163651 27.59559402 0.52163651 29 3 C29.625 6.1875 29.625 6.1875 29 10 C27.32771864 12.26714762 25.53040166 14.21983962 23.53125 16.203125 C21.67569575 17.98709057 21.67569575 17.98709057 22 21 C23.5517056 22.87155148 23.5517056 22.87155148 25.5 24.75 C28.15002258 27.68010626 28.95092148 28.75460742 29.75 32.75 C29 36 29 36 26.9375 38.5 C24 40 24 40 20.625 40.1875 C15.78501256 38.60198687 13.26394307 35.79966625 10 32 C7.02068819 33.34003981 4.95954862 34.85621331 2.625 37.125 C0.10690765 39.33035283 -0.78560942 39.96216637 -4.1875 40.5625 C-7.37559488 39.92488102 -8.82113255 39.42096383 -11 37 C-12.09935452 33.62864612 -12.3653679 31.83819696 -10.9375 28.5625 C-8.43106796 25.24754149 -5.76312863 22.10293085 -3 19 C-3.56589844 18.49210937 -4.13179687 17.98421875 -4.71484375 17.4609375 C-10.67784666 11.86472739 -10.67784666 11.86472739 -12.1875 7.8125 C-11.95934909 4.39023633 -11.13475313 2.66844141 -9 0 C-5.26121635 -1.24626122 -3.78878042 -1.14378277 0 0 Z " fill="#000000" transform="translate(137,291)"/>
<path d="M0 0 C2.45931605 1.50732274 2.86105399 2.63278554 3.875 5.3125 C4.09048257 9.94537517 1.73155512 13.15102288 -1.22070312 16.57714844 C-2.06568359 17.4127832 -2.91066406 18.24841797 -3.78125 19.109375 C-4.70550781 20.02847656 -5.62976563 20.94757813 -6.58203125 21.89453125 C-7.0610791 22.3632666 -7.54012695 22.83200195 -8.03369141 23.31494141 C-9.50302707 24.75296256 -10.96127426 26.20152895 -12.41796875 27.65234375 C-21.56799547 36.70027812 -21.56799547 36.70027812 -25.6875 37.5625 C-30.77718762 36.69821342 -33.41892283 33.55440248 -37 30 C-37.74378906 29.28199219 -38.48757812 28.56398437 -39.25390625 27.82421875 C-45.85125005 21.3684995 -45.85125005 21.3684995 -46.3125 17.125 C-46 14 -46 14 -44.4375 11.625 C-40.91751657 9.27834438 -39.16889057 9.2357034 -35 10 C-32.06047266 12.07465765 -29.5179657 14.43625311 -27 17 C-23.85159761 15.62182167 -21.90213206 14.06910146 -19.609375 11.5234375 C-18.98160156 10.853125 -18.35382813 10.1828125 -17.70703125 9.4921875 C-16.40559896 8.08425077 -15.11637595 6.66492642 -13.83984375 5.234375 C-9.22635174 0.36718791 -6.72732032 -0.98994939 0 0 Z " fill="#000000" transform="translate(167,169)"/>
<path d="M0 0 C2.04643644 1.48190225 2.81383004 2.57037702 3.8125 4.875 C4.17808377 9.01828274 2.28324227 11.65926261 -0.30322266 14.77075195 C-1.24782037 15.76854124 -2.20199614 16.75732426 -3.1640625 17.73828125 C-3.67496429 18.26391159 -4.18586609 18.78954193 -4.71224976 19.33110046 C-5.79245904 20.43517854 -6.87691677 21.53511414 -7.96533203 22.63110352 C-9.6187302 24.30614811 -11.24051484 26.00822346 -12.86328125 27.71289062 C-13.92005141 28.78565363 -14.97858983 29.85667819 -16.0390625 30.92578125 C-16.51646881 31.43506668 -16.99387512 31.94435211 -17.48574829 32.46907043 C-20.30747666 35.23668832 -22.35751704 36.32361911 -26.22973633 36.39746094 C-30.13123544 35.98616517 -31.35819768 35.64180232 -34.0625 32.9375 C-34.71476563 32.30328125 -35.36703125 31.6690625 -36.0390625 31.015625 C-36.68617188 30.35046875 -37.33328125 29.6853125 -38 29 C-38.66773438 28.35546875 -39.33546875 27.7109375 -40.0234375 27.046875 C-45.80990153 21.42573851 -45.80990153 21.42573851 -46.375 17.1875 C-46 14 -46 14 -43.9375 11.0625 C-41 9 -41 9 -37.625 8.75 C-32.81912008 10.40719997 -30.26127414 13.20344075 -27 17 C-21.77328312 12.68227736 -17.03279219 8.05770527 -12.33203125 3.171875 C-8.12019839 -0.750703 -5.63337914 -1.5581687 0 0 Z " fill="#000000" transform="translate(167,354)"/>
<path d="M0 0 C2.04643644 1.48190225 2.81383004 2.57037702 3.8125 4.875 C4.17808377 9.01828274 2.28324227 11.65926261 -0.30322266 14.77075195 C-1.24782037 15.76854124 -2.20199614 16.75732426 -3.1640625 17.73828125 C-3.67496429 18.26391159 -4.18586609 18.78954193 -4.71224976 19.33110046 C-5.79245904 20.43517854 -6.87691677 21.53511414 -7.96533203 22.63110352 C-9.6187302 24.30614811 -11.24051484 26.00822346 -12.86328125 27.71289062 C-13.92005141 28.78565363 -14.97858983 29.85667819 -16.0390625 30.92578125 C-16.51646881 31.43506668 -16.99387512 31.94435211 -17.48574829 32.46907043 C-20.30747666 35.23668832 -22.35751704 36.32361911 -26.22973633 36.39746094 C-30.13123544 35.98616517 -31.35819768 35.64180232 -34.0625 32.9375 C-34.71476563 32.30328125 -35.36703125 31.6690625 -36.0390625 31.015625 C-36.68617188 30.35046875 -37.33328125 29.6853125 -38 29 C-38.66773438 28.35546875 -39.33546875 27.7109375 -40.0234375 27.046875 C-45.80990153 21.42573851 -45.80990153 21.42573851 -46.375 17.1875 C-46 14 -46 14 -43.9375 11.0625 C-41 9 -41 9 -37.625 8.75 C-32.81912008 10.40719997 -30.26127414 13.20344075 -27 17 C-21.77328312 12.68227736 -17.03279219 8.05770527 -12.33203125 3.171875 C-8.12019839 -0.750703 -5.63337914 -1.5581687 0 0 Z " fill="#000000" transform="translate(167,229)"/>
</svg>
