<?xml version="1.0" encoding="UTF-8"?>
<svg version="1.1" xmlns="http://www.w3.org/2000/svg" width="512" height="512">
<path d="M0 0 C4.11280911 1.66232006 6.37579042 4.1341609 8.9375 7.6875 C10.8842239 13.75669804 11.20978123 18.28864749 8.55859375 24.23046875 C6.49762882 27.91522423 4.31350837 31.47029575 2 35 C1.62552734 35.57314941 1.25105469 36.14629883 0.86523438 36.73681641 C-0.69704685 39.11329168 -2.27299385 41.47984466 -3.86694336 43.83520508 C-7.66490348 49.44769071 -11.31032705 55.15095974 -14.9375 60.875 C-19.05658333 67.37187769 -23.18555398 73.86073727 -27.375 80.3125 C-31.94710762 87.3556228 -36.47742867 94.42497676 -41 101.5 C-45.89860068 109.16268886 -50.81103369 116.81560908 -55.76196289 124.44458008 C-60.7173302 132.08955345 -65.61763849 139.76989331 -70.51953125 147.44921875 C-71.17179688 148.47015625 -71.8240625 149.49109375 -72.49609375 150.54296875 C-73.10815674 151.50541504 -73.72021973 152.46786133 -74.35083008 153.45947266 C-75.65583664 155.4698203 -77.00771095 157.40914607 -78.4140625 159.34765625 C-80.2578494 162.43123089 -80.61740182 164.68945585 -80.9375 168.25 C-82.07197566 176.96754982 -85.06529672 184.32615187 -92 190 C-98.55619712 194.72719253 -105.49065094 198.47488043 -112.6875 202.125 C-120.85081108 206.31476295 -128.96346895 210.57179766 -137 215 C-145.97548442 219.93700833 -155.03348809 224.69946609 -164.1340332 229.40161133 C-171.14006441 233.02241476 -178.09803246 236.71772169 -185.01171875 240.51171875 C-189.48795531 242.7410601 -192.97474332 244 -198 244 C-198 260.5 -198 277 -198 294 C-240.57 294 -283.14 294 -327 294 C-327.16121214 260.53952537 -327.16121214 260.53952537 -327.1953125 246.4375 C-327.21897821 236.72907995 -327.24668546 227.02079951 -327.30175781 217.3125 C-327.34186071 210.23963143 -327.36748802 203.16687694 -327.37635398 196.09389782 C-327.38152945 192.35523016 -327.39353056 188.61688863 -327.42292023 184.87832642 C-327.62112913 158.62540165 -325.60031865 138.03080703 -307.05078125 117.8828125 C-294.42202267 105.51865648 -277.27702854 100.51493981 -260.00878906 100.64355469 C-253.35759248 100.82705431 -247.31052797 101.83075601 -241 104 C-240.154375 104.26683594 -239.30875 104.53367187 -238.4375 104.80859375 C-221.95526063 110.60313103 -210.50465315 123.75298976 -203 139 C-199.22138084 147.75853344 -197.89778441 155.91275976 -197.4375 165.375 C-197.39431641 166.20644531 -197.35113281 167.03789062 -197.30664062 167.89453125 C-197.20138195 169.92953228 -197.10026928 171.96474703 -197 174 C-174.20526214 162.33623915 -174.20526214 162.33623915 -151.5 150.5 C-150.78690674 150.12504395 -150.07381348 149.75008789 -149.33911133 149.36376953 C-145.52975134 147.35541402 -141.73983768 145.31512951 -137.9609375 143.25 C-137.11080078 142.79044922 -136.26066406 142.33089844 -135.38476562 141.85742188 C-133.77685823 140.98777546 -132.17350684 140.10961936 -130.57617188 139.22070312 C-123.36717411 135.3389351 -116.67313993 133.42837472 -108.4375 134.375 C-107.40496094 134.48585938 -106.37242187 134.59671875 -105.30859375 134.7109375 C-104.54675781 134.80632812 -103.78492188 134.90171875 -103 135 C-102.54113403 134.27018921 -102.54113403 134.27018921 -102.07299805 133.52563477 C-96.24488779 124.26207541 -90.38940048 115.01880251 -84.4284668 105.84008789 C-80.25707296 99.41161543 -76.12712856 92.95695919 -72 86.5 C-67.09628674 78.82924034 -62.17795283 71.16877134 -57.22265625 63.53125 C-53.12226064 57.20423006 -49.06117686 50.85224273 -45 44.5 C-15.42376835 -1.73566703 -15.42376835 -1.73566703 0 0 Z " fill="#000000" transform="translate(369,176)"/>
<path d="M0 0 C2.62661628 -0.00542897 5.2532295 -0.01255595 7.87983704 -0.02124023 C14.23850333 -0.03891205 20.59697946 -0.03523659 26.95565283 -0.02358967 C32.1291576 -0.01451054 37.30260953 -0.01335057 42.47612 -0.01768494 C43.21590476 -0.01829787 43.95568953 -0.0189108 44.71789202 -0.01954231 C46.22132879 -0.02082137 47.72476554 -0.02211822 49.22820228 -0.02343267 C63.28521974 -0.03480525 77.34213241 -0.02177718 91.39913267 -0.00023121 C103.428413 0.01763676 115.45753886 0.01453172 127.48681641 -0.00390625 C141.49776512 -0.02537196 155.50862227 -0.03370692 169.51958513 -0.0214572 C171.01711049 -0.02018316 172.51463587 -0.01892568 174.01216125 -0.01768494 C175.11702295 -0.01675928 175.11702295 -0.01675928 176.24420509 -0.01581493 C181.40409287 -0.01237908 186.56392197 -0.01815201 191.72380066 -0.02760315 C198.68434919 -0.04007376 205.64460325 -0.0310395 212.60512352 -0.00802612 C215.14947721 -0.00276718 217.69385558 -0.0042041 220.23819923 -0.01307678 C243.08368559 -0.0853585 262.53891914 1.93050831 279.74414062 18.51757812 C292.19621623 32.83322967 296.21550879 49.04213333 296.14819336 67.68286133 C296.15391375 69.04796908 296.16088437 70.41307206 296.16899109 71.77816772 C296.18675627 75.44578108 296.18578563 79.11315304 296.1800487 82.78079629 C296.17693169 85.86176453 296.18307712 88.94268805 296.18908745 92.02364987 C296.20307724 99.30283333 296.20161865 106.58189929 296.19018555 113.86108398 C296.17871717 121.32688595 296.19277101 128.79232812 296.21958202 136.25808269 C296.24186211 142.70782383 296.2483487 149.15745306 296.24250561 155.60722989 C296.23916315 159.44178119 296.24136723 163.27610221 296.25875664 167.1106205 C296.35550382 190.70079916 296.13713262 211.23588969 278.95507812 229.30273438 C278.22546875 230.03363281 277.49585938 230.76453125 276.74414062 231.51757812 C276.17953125 232.09378906 275.61492187 232.67 275.03320312 233.26367188 C262.50501895 245.02794238 246.41670497 247.06243073 230.06347656 247.01855469 C227.48456764 247.01757449 224.90856546 247.05948074 222.33007812 247.10351562 C220.67123007 247.10871866 219.01237183 247.11141088 217.35351562 247.11132812 C216.59294861 247.12772339 215.83238159 247.14411865 215.04876709 247.16101074 C209.38843234 247.08833546 205.86648479 245.40016651 201.74414062 241.51757812 C198.17639747 236.56877311 197.91200186 231.41734847 198.74414062 225.51757812 C200.19381547 221.20131459 202.77765155 217.8033259 206.64306641 215.33398438 C211.55960287 213.42358489 217.16967635 213.95780036 222.36914062 213.95507812 C240.17274602 214.04637025 240.17274602 214.04637025 255.12304688 205.48632812 C259.95068442 199.6233659 261.86178205 193.4848211 261.88458252 185.97200012 C261.89029266 184.84359711 261.89600281 183.71519409 261.90188599 182.55259705 C261.90300385 181.31876785 261.9041217 180.08493866 261.90527344 178.8137207 C261.91023834 177.51086121 261.91520325 176.20800171 261.9203186 174.86566162 C261.93342198 171.29309458 261.93988384 167.72054631 261.94432926 164.14795899 C261.94726408 161.91328509 261.95136972 159.67861627 261.95583344 157.44394493 C261.96950462 150.44457359 261.97917242 143.44521393 261.98303533 136.44583017 C261.9875115 128.38058414 262.0050404 120.31550798 262.03403592 112.25031358 C262.05569709 106.00725296 262.06574201 99.76423996 262.06707644 93.52114218 C262.06812155 89.79680735 262.07396601 86.07263226 262.09189606 82.34833717 C262.1115345 78.18825715 262.10707016 74.02852957 262.10058594 69.8684082 C262.10980072 68.64470016 262.1190155 67.42099213 262.12850952 66.16020203 C262.08402154 57.03356861 260.90874775 48.63058635 254.74414062 41.51757812 C248.37875198 36.92155175 242.95110463 34.39858841 235.04667282 34.38615036 C234.12613483 34.38230922 233.20559684 34.37846807 232.25716376 34.37451053 C231.25454765 34.37537701 230.25193153 34.37624349 229.21893311 34.37713623 C228.1470368 34.37416511 227.0751405 34.37119399 225.97076249 34.36813283 C222.37275305 34.35944917 218.7747769 34.35793786 215.17675781 34.35644531 C212.59952219 34.35181693 210.02228724 34.34679224 207.4450531 34.34140015 C200.43877171 34.32783205 193.43249606 34.32179455 186.42620373 34.31738949 C182.04957903 34.31462462 177.67295653 34.31038683 173.29633331 34.30588531 C161.17321283 34.29369488 149.0500941 34.28339496 136.92696762 34.28001022 C136.15142553 34.27979066 135.37588343 34.27957109 134.57684006 34.27934487 C133.79946837 34.27912659 133.02209668 34.27890832 132.22116828 34.27868342 C130.64598068 34.27823996 129.07079307 34.2777934 127.49560547 34.27734375 C126.71426209 34.27712232 125.9329187 34.27690089 125.12789825 34.27667275 C112.46957753 34.27272538 99.81131441 34.25527224 87.15301594 34.23198423 C74.1497592 34.20825512 61.14653135 34.19580767 48.14325261 34.19464231 C40.845274 34.19372645 33.54737044 34.1879966 26.24941254 34.16982269 C19.38430599 34.15278663 12.51934399 34.15118074 5.65422249 34.1599617 C3.13595511 34.1607327 0.61768011 34.1563811 -1.90056801 34.14650345 C-5.34145412 34.13379938 -8.78183459 34.13965291 -12.22271729 34.15008545 C-13.21641052 34.14202904 -14.21010375 34.13397264 -15.23390889 34.1256721 C-24.41625211 34.19066912 -31.76338903 36.10561409 -38.52929688 42.49414062 C-45.02970796 50.11226945 -45.37876242 59.50484526 -45.43164062 69.08398438 C-45.4548223 70.72006518 -45.47893894 72.35613297 -45.50390625 73.9921875 C-45.53906424 76.54200233 -45.56841836 79.09132903 -45.58178711 81.64135742 C-45.59730068 84.12281239 -45.63749938 86.60289472 -45.68164062 89.08398438 C-45.67973221 89.84038712 -45.67782379 90.59678986 -45.67585754 91.37611389 C-45.79397083 96.51665647 -46.92628298 99.40745854 -50.25585938 103.51757812 C-54.46942076 107.41512241 -57.03009349 108.35270658 -62.63085938 108.76757812 C-67.24209077 108.44956217 -70.4009935 107.39244255 -73.70507812 104.05273438 C-76.97837378 100.21669448 -78.37376399 97.9624419 -78.43286133 92.9987793 C-78.44569656 92.0598735 -78.4585318 91.12096771 -78.47175598 90.15361023 C-78.47914291 89.13289932 -78.48652985 88.11218842 -78.49414062 87.06054688 C-78.50221237 86.00660233 -78.51028412 84.95265778 -78.51860046 83.86677551 C-78.5324575 81.62645111 -78.54317237 79.38610545 -78.55102539 77.14575195 C-78.5680983 73.75689941 -78.61195309 70.3690585 -78.65625 66.98046875 C-78.81032576 45.72529023 -78.81032576 45.72529023 -74.25585938 35.51757812 C-73.74925781 34.36 -73.24265625 33.20242187 -72.72070312 32.00976562 C-64.17647767 17.36876549 -51.82930576 6.90985075 -35.43981934 2.32727051 C-23.83717962 -0.60233809 -11.88001672 -0.04142821 0 0 Z " fill="#000000" transform="translate(190.255859375,25.482421875)"/>
<path d="M0 0 C1.12227485 -0.00935994 1.12227485 -0.00935994 2.26722193 -0.01890898 C4.76388101 -0.03481109 7.25955998 -0.02224626 9.75622559 -0.00964355 C11.550314 -0.01506593 13.34439797 -0.02218924 15.13847351 -0.03088379 C20.00417961 -0.04910634 24.86954613 -0.042054 29.7352581 -0.02936745 C34.82937403 -0.01923428 39.92346105 -0.02863401 45.01757812 -0.03491211 C53.57195247 -0.04218758 62.12618863 -0.03260341 70.68054199 -0.0135498 C80.5679165 0.00821872 90.45496108 0.00116728 100.34232759 -0.02085543 C108.83422051 -0.03901225 117.32601415 -0.04156636 125.81792021 -0.03110075 C130.88854092 -0.02486739 135.95900659 -0.02402591 141.02961731 -0.0372467 C145.79693851 -0.04880865 150.56383467 -0.04077312 155.33111 -0.01766968 C157.0798249 -0.01238444 158.82857562 -0.01389322 160.57727623 -0.02272034 C162.96630561 -0.03366711 165.35397687 -0.01992415 167.74291992 0 C168.43339369 -0.00892289 169.12386746 -0.01784577 169.83526468 -0.02703905 C174.77728809 0.05279616 177.5410532 1.4619879 181.37145996 4.50793457 C184.9997966 8.32723629 185.68146454 11.39072463 185.87145996 16.50793457 C185.68146454 21.62514451 184.9997966 24.68863285 181.37145996 28.50793457 C176.84382788 32.10703681 173.41143732 33.09023823 167.74964905 33.02259827 C167.00217138 33.02954379 166.25469371 33.03648932 165.4845652 33.04364532 C162.99025741 33.06188117 160.49690443 33.05166105 158.00256348 33.04138184 C156.21009613 33.04844207 154.41763475 33.05718753 152.62518311 33.06748962 C147.76355541 33.08998187 142.90225329 33.08704423 138.04059339 33.07816815 C133.97990332 33.07305616 129.91927432 33.08035257 125.85859054 33.08764023 C116.2781092 33.10463878 106.69778714 33.10107387 97.11730957 33.08435059 C87.23785677 33.06742827 77.35884577 33.08326546 67.47944123 33.11557347 C58.99262365 33.14227461 50.50594357 33.14954397 42.01908821 33.14105839 C36.95230328 33.13613083 31.8857842 33.1383356 26.81903267 33.1588459 C22.05410456 33.17721123 17.28981164 33.17123388 12.5249176 33.1466465 C10.77823134 33.14164135 9.03149662 33.14512073 7.28484917 33.15779495 C4.89592375 33.17375575 2.5090824 33.15874905 0.12025452 33.13612366 C-0.56730641 33.14795939 -1.25486734 33.15979511 -1.96326345 33.1719895 C-7.39593066 33.06779782 -10.74511503 31.0858326 -14.62854004 27.50793457 C-18.19628319 22.55912956 -18.4606788 17.40770492 -17.62854004 11.50793457 C-14.81522465 3.13156614 -8.42329793 -0.10885299 0 0 Z " fill="#000000" transform="translate(214.6285400390625,111.4920654296875)"/>
<path d="M0 0 C9.57362551 7.58525713 16.0684556 17.77708636 17.5390625 30.01171875 C18.65038825 43.32778259 14.69579863 54.71768706 6.4765625 65.13671875 C-0.51902117 72.7905302 -10.556873 77.81216752 -20.9140625 78.34765625 C-34.16014355 78.59703938 -44.22029515 77.01041085 -54.4609375 68.01171875 C-55.06679687 67.51027344 -55.67265625 67.00882812 -56.296875 66.4921875 C-62.78460873 60.67022557 -67.86838117 51.78647659 -68.63793945 42.98803711 C-69.06609883 28.06045647 -67.62146316 16.73232512 -57.4609375 5.01171875 C-41.32388131 -10.13853904 -18.56637466 -12.76103849 0 0 Z " fill="#000000" transform="translate(132.4609375,177.98828125)"/>
<path d="M0 0 C0.94548203 -0.00861557 1.89096405 -0.01723114 2.86509705 -0.02610779 C5.98073956 -0.04875219 9.09548147 -0.04203133 12.21118164 -0.03295898 C14.38302375 -0.03819538 16.55486358 -0.04447191 18.72669983 -0.05174255 C23.27526563 -0.06214409 27.82351854 -0.05758885 32.37207031 -0.04296875 C38.19406311 -0.02578513 44.01506862 -0.04927302 49.83695126 -0.08445835 C54.32119761 -0.1064448 58.80520822 -0.10498771 63.28949165 -0.09669304 C65.43564499 -0.09587414 67.58181574 -0.10272571 69.72791862 -0.11746407 C72.73198561 -0.13493165 75.73428459 -0.12034811 78.73828125 -0.09765625 C80.06095001 -0.11519455 80.06095001 -0.11519455 81.41033936 -0.13308716 C87.37419482 -0.04167244 91.11152499 1.35395506 95.43383789 5.53344727 C98.52112929 9.81581921 99.01520887 13.83944922 98.85180664 18.99829102 C98.00947459 24.10738917 95.46062749 27.93926902 91.42575073 31.11291504 C87.23769038 33.10136692 83.56320359 32.96850104 78.98120117 32.95336914 C78.03586517 32.96183868 77.09052917 32.97030823 76.11654663 32.97903442 C72.99561052 33.00240808 69.87516737 33.00342642 66.75415039 33.00219727 C64.58087975 33.00929898 62.40761099 33.01699799 60.23434448 33.02526855 C55.67985828 33.0387145 51.12554542 33.04028174 46.57104492 33.03442383 C40.74121066 33.02852997 34.91220981 33.05910645 29.0825367 33.09954071 C24.59401995 33.12542072 20.10570373 33.12829477 15.61712265 33.12464905 C13.46816795 33.12634023 11.31920398 33.13598253 9.17032242 33.15379333 C6.16140629 33.17598672 3.15417519 33.16627836 0.14526367 33.14868164 C-0.73808655 33.16194489 -1.62143677 33.17520813 -2.53155518 33.18887329 C-8.77660975 33.10422887 -11.84699575 31.65043219 -16.56616211 27.53344727 C-20.13390526 22.58464225 -20.39830087 17.43321761 -19.56616211 11.53344727 C-16.34458142 1.94150927 -9.10356658 -0.06721944 0 0 Z " fill="#000000" transform="translate(216.566162109375,175.466552734375)"/>
</svg>
