<?xml version="1.0" standalone="no"?>
<!DOCTYPE svg PUBLIC "-//W3C//DTD SVG 20010904//EN"
 "http://www.w3.org/TR/2001/REC-SVG-20010904/DTD/svg10.dtd">
<svg version="1.0" xmlns="http://www.w3.org/2000/svg"
 width="129.000000pt" height="129.000000pt" viewBox="0 0 129.000000 129.000000"
 preserveAspectRatio="xMidYMid meet">

<g transform="translate(0.000000,129.000000) scale(0.100000,-0.100000)"
fill="#000000" stroke="none">
<path d="M526 1101 c-3 -5 1 -11 9 -15 8 -3 15 -1 15 4 0 13 -18 22 -24 11z"/>
<path d="M1146 1052 c-4 -8 -50 -33 -101 -57 -89 -41 -123 -65 -91 -65 19 0
24 -9 32 -55 3 -21 15 -46 27 -57 22 -18 23 -17 64 27 46 51 86 142 81 189 -2
22 -6 27 -12 18z"/>
<path d="M404 974 c3 -9 6 -19 6 -24 0 -5 8 -11 18 -13 9 -3 -3 -5 -28 -6 -49
-1 -70 -14 -70 -44 0 -16 7 -18 53 -17 28 1 57 1 63 1 15 -1 25 -39 13 -47
-15 -9 -10 -24 6 -18 9 4 15 19 15 35 0 26 3 29 34 29 30 0 35 -4 38 -27 2
-14 10 -29 18 -31 13 -5 13 -3 2 11 -17 20 -7 58 13 51 24 -9 38 6 23 24 -7 9
-8 13 -2 9 7 -4 17 -1 23 7 9 11 6 13 -14 10 -14 -1 -32 5 -40 13 -10 10 -28
14 -51 11 -29 -3 -39 0 -51 19 -18 28 -79 34 -69 7z"/>
<path d="M531 519 c-19 -15 -33 -19 -60 -14 -51 8 -63 -5 -67 -66 -2 -42 -1
-46 4 -19 4 20 10 30 14 24 4 -6 1 -49 -7 -95 -14 -78 -13 -139 3 -139 4 0 8
20 9 44 1 24 8 59 16 77 l14 34 7 -40 c19 -113 49 -161 35 -57 -4 31 -10 89
-13 129 -6 71 -6 72 22 89 16 9 34 25 40 35 15 24 13 23 -17 -2z"/>
<path d="M756 431 c-3 -5 1 -14 8 -20 16 -13 32 2 21 19 -8 12 -22 13 -29 1z"/>
<path d="M100 400 c0 -5 12 -10 28 -10 l27 0 0 -128 c0 -70 -4 -137 -8 -149
-5 -13 -4 -23 0 -23 5 0 17 34 27 75 10 41 22 75 26 75 10 0 22 -73 18 -114
-2 -16 2 -30 7 -32 6 -2 10 19 9 54 0 95 -6 168 -11 150 -8 -33 -33 -21 -33
16 0 18 -3 48 -6 65 -6 28 -10 31 -45 31 -22 0 -39 -4 -39 -10z m67 -92 c-3
-8 -6 -5 -6 6 -1 11 2 17 5 13 3 -3 4 -12 1 -19z"/>
<path d="M217 404 c-4 -4 -6 -23 -6 -43 1 -20 3 -28 6 -18 5 20 41 37 79 37
13 0 24 5 24 10 0 6 -12 10 -27 10 -16 0 -37 3 -48 6 -11 3 -24 2 -28 -2z"/>
<path d="M744 382 c-6 -4 -13 -15 -17 -25 -4 -10 -11 -15 -17 -12 -13 8 -13
-5 0 -25 9 -13 11 -13 20 0 12 18 3 -155 -10 -208 -6 -24 -5 -32 3 -29 11 3
19 31 32 110 3 20 10 37 14 37 11 0 31 -79 31 -121 0 -25 3 -30 12 -21 9 9 9
34 -1 107 -7 53 -9 114 -6 137 5 29 3 43 -6 49 -17 11 -40 11 -55 1z"/>
<path d="M1040 290 c0 -18 2 -19 20 -8 11 7 20 16 20 20 0 5 -9 8 -20 8 -13 0
-20 -7 -20 -20z"/>
<path d="M1042 173 c-13 -3 -21 -10 -19 -16 2 -8 32 -12 84 -12 45 0 79 3 77
7 -4 6 -99 29 -112 27 -4 -1 -17 -4 -30 -6z"/>
</g>
</svg>
