<svg version="1.1" id="Layer_1" xmlns="http://www.w3.org/2000/svg" xmlns:xlink="http://www.w3.org/1999/xlink" x="0px" y="0px"
	 width="100%" viewBox="0 0 129 129" enable-background="new 0 0 129 129" xml:space="preserve">
<path fill="#000000" opacity="1.000000" stroke="none" 
	d="
M1.000000,91.000000 
	C1.000000,61.042801 1.000000,31.085598 1.000000,1.064199 
	C43.895771,1.064199 86.791664,1.064199 130.000000,1.064199 
	C130.000000,30.020147 130.000000,59.041416 129.661224,88.522003 
	C128.872025,88.961449 128.421585,88.941574 127.998962,88.947975 
	C128.026779,88.974251 128.090439,89.016724 127.944778,88.642181 
	C127.170197,88.172501 126.541283,88.077347 125.957573,88.006577 
	C126.002785,88.030945 126.085640,88.091667 126.398544,87.752426 
	C123.419884,82.197449 126.669312,77.278419 127.295708,72.207191 
	C127.858170,67.653664 130.416397,62.578548 125.113136,58.695755 
	C125.755592,55.073814 126.285553,51.756161 126.771271,48.715454 
	C124.844238,48.001713 123.375580,47.457741 121.799088,46.548965 
	C118.493172,45.109192 115.295090,44.034229 112.017715,42.701477 
	C111.631081,42.358875 111.323746,42.274059 110.628235,42.109825 
	C108.496231,41.748047 106.752403,41.465687 104.669830,41.022095 
	C100.724365,39.645718 98.294128,37.649670 97.843414,33.420776 
	C97.681084,31.897701 95.903038,30.366856 94.551331,29.199762 
	C93.121544,27.965254 91.146164,27.363928 89.711754,26.133266 
	C81.309105,18.924135 71.389679,14.910850 60.571445,15.274446 
	C53.730526,15.504367 47.041725,18.850729 40.181854,20.318695 
	C33.168041,21.819607 30.108078,27.846127 26.445478,32.570587 
	C22.877535,37.172958 21.367086,43.370384 18.610523,49.033463 
	C17.514408,49.494373 16.761049,49.789314 16.007690,50.084255 
	C15.533849,48.552921 15.060006,47.021587 14.317151,44.620872 
	C14.629817,50.398468 14.889615,55.199127 15.072208,60.319115 
	C14.953653,61.073563 14.912303,61.508682 14.582612,62.052994 
	C14.158949,62.753193 14.023625,63.344200 13.928357,63.952065 
	C13.968411,63.968925 13.939019,63.887127 13.681709,63.970291 
	C13.332553,64.363411 13.240706,64.673370 13.071918,65.347588 
	C8.448280,73.516769 3.214665,81.035088 2.695250,90.528900 
	C2.684998,90.716293 1.589290,90.844292 1.000000,91.000000 
z"/>
<path fill="#EFECFB" opacity="1.000000" stroke="none" 
	d="
M18.953281,48.867496 
	C21.367086,43.370384 22.877535,37.172958 26.445478,32.570587 
	C30.108078,27.846127 33.168041,21.819607 40.181854,20.318695 
	C47.041725,18.850729 53.730526,15.504367 60.571445,15.274446 
	C71.389679,14.910850 81.309105,18.924135 89.711754,26.133266 
	C91.146164,27.363928 93.121544,27.965254 94.551331,29.199762 
	C95.903038,30.366856 97.681084,31.897701 97.843414,33.420776 
	C98.294128,37.649670 100.724365,39.645718 104.716461,41.349117 
	C106.404419,43.499210 107.707016,45.161045 108.633057,46.905190 
	C102.800446,50.085049 105.080139,55.534389 103.812340,59.311966 
	C106.275017,60.508366 108.065140,61.378029 109.229950,61.943909 
	C112.724472,61.382507 115.903046,60.920582 119.061302,60.346790 
	C121.056770,59.984257 123.021904,59.454689 125.000641,59.000046 
	C130.416397,62.578548 127.858170,67.653664 127.295708,72.207191 
	C126.669312,77.278419 123.419884,82.197449 126.007538,87.811218 
	C121.503792,94.852509 123.544159,101.978264 122.933769,109.000000 
	C125.727219,109.000000 127.863609,109.000000 130.000000,109.000000 
	C130.000000,109.000000 130.000000,109.500000 129.533691,109.717010 
	C123.816154,109.798294 118.564934,109.662560 113.237122,109.228928 
	C112.711830,108.001862 112.263115,107.072693 111.866226,105.690002 
	C110.293495,97.551331 108.668945,89.866180 107.409012,82.044632 
	C111.474480,80.344421 112.107910,77.791740 109.643600,74.513519 
	C108.076775,72.429192 106.190147,70.485855 105.080139,68.175117 
	C100.772026,59.206776 100.312767,58.919941 90.942802,61.701740 
	C90.018715,61.976089 88.992706,61.907181 87.809052,61.682617 
	C85.384232,60.776535 83.164375,60.185429 80.800476,59.331093 
	C80.569046,57.956287 80.258270,56.805344 80.445641,55.742188 
	C80.740562,54.068710 81.370689,52.454304 81.982376,50.455074 
	C83.541130,47.351513 84.114677,44.086613 80.932587,42.841480 
	C76.762535,41.209763 72.125793,40.730469 67.653389,39.969311 
	C67.165237,39.886230 66.324318,41.139137 65.839813,41.895821 
	C63.430161,45.659176 66.734192,46.605614 68.939713,48.440250 
	C66.077118,53.852879 68.380135,57.617432 71.599213,61.079575 
	C68.219467,61.258350 66.307899,62.610882 64.631927,65.319817 
	C62.632198,68.552071 59.660084,71.182724 56.915836,73.768829 
	C55.073288,70.412193 53.742626,67.104187 51.603024,64.447723 
	C50.849026,63.511585 48.091537,63.976677 46.297733,64.198189 
	C45.609177,64.283218 45.057041,65.473022 44.442741,66.159424 
	C45.635647,66.828728 47.016781,67.300781 47.975414,68.215576 
	C49.272545,69.453392 50.738220,70.874748 51.252350,72.496155 
	C52.249348,75.640358 52.538326,79.001183 53.294029,82.231705 
	C54.316017,86.600533 57.388416,87.321129 61.406578,84.039436 
	C62.990807,82.826538 64.259178,81.730827 65.964592,80.257568 
	C65.964592,83.259239 65.964592,85.626419 65.498886,88.021576 
	C63.219521,88.066406 61.400574,88.180420 59.593189,88.082024 
	C54.065220,87.781075 48.541691,87.398476 42.858231,86.752357 
	C41.131615,85.275208 39.563202,84.093330 38.084732,82.576126 
	C38.364952,80.862907 38.555222,79.485023 38.773563,77.805603 
	C40.328125,74.393219 39.860088,71.792290 37.019489,69.508514 
	C37.881294,67.616325 39.542923,65.441185 39.035057,64.638206 
	C38.158669,63.252552 36.009228,62.219063 34.255875,61.955181 
	C32.039650,61.621632 29.594021,61.869507 27.408331,62.461235 
	C21.906477,63.950760 20.758879,66.674789 23.014088,72.261688 
	C23.632956,74.736771 24.299221,76.816849 24.651382,79.079498 
	C22.335381,80.427536 20.444588,81.889931 18.306013,82.690094 
	C14.948675,83.946266 11.825098,85.045174 11.881207,89.503212 
	C11.966682,96.294426 11.903809,103.087509 11.451843,109.883255 
	C7.666503,109.924469 4.333251,109.962234 1.000000,110.000000 
	C1.000000,110.000000 1.000000,109.500000 1.436414,109.292984 
	C4.032133,109.407204 5.496570,108.936714 4.976644,106.296524 
	C4.265365,102.684639 3.567303,99.068878 2.735514,95.484489 
	C2.670391,95.203857 1.602071,95.156029 1.000000,95.000000 
	C1.000000,93.933327 1.000000,92.866661 1.000000,91.399994 
	C1.589290,90.844292 2.684998,90.716293 2.695250,90.528900 
	C3.214665,81.035088 8.448280,73.516769 13.262324,65.212997 
	C13.746620,64.478333 13.883069,64.202652 13.939019,63.887127 
	C13.939019,63.887127 13.968411,63.968925 14.230065,63.935028 
	C14.618130,63.248684 14.744540,62.596245 14.870951,61.943802 
	C14.912303,61.508682 14.953653,61.073563 15.408293,60.312256 
	C16.865484,56.279877 17.909384,52.573689 18.953281,48.867496 
M27.766182,58.985390 
	C30.953230,59.406006 34.173717,60.305553 37.316082,60.086163 
	C39.574135,59.928513 43.368500,58.565357 43.602619,57.234295 
	C44.172352,53.995205 43.576122,50.262169 42.356579,47.157375 
	C41.942123,46.102230 38.267815,46.158943 36.063248,46.017902 
	C33.260872,45.838608 30.422050,45.789955 27.629736,46.035355 
	C25.511333,46.221531 22.343758,44.532482 21.968622,48.753551 
	C21.563303,53.314247 23.756351,58.105759 27.766182,58.985390 
M62.496006,41.054798 
	C60.935040,37.499695 58.527798,35.643562 54.750637,37.873756 
	C51.239445,39.946915 51.380058,42.138203 54.887207,46.439018 
	C56.196346,48.044418 57.438725,49.704266 58.714420,51.342976 
	C61.917332,48.419178 61.917332,48.419178 62.496006,41.054798 
z"/>
<path fill="#000000" opacity="1.000000" stroke="none" 
	d="
M130.000000,113.000000 
	C130.000000,118.651291 130.000000,124.302582 130.000000,129.951324 
	C86.999969,129.948761 43.999966,129.948761 1.000000,129.948761 
	C1.000000,124.578644 1.000000,119.259773 1.468621,113.467590 
	C9.957649,112.654823 17.978058,112.315384 26.334169,111.964355 
	C27.117653,111.952461 27.565434,111.952164 28.240154,112.246178 
	C30.311899,112.360283 32.156700,112.180084 34.258728,111.983093 
	C34.687748,111.971054 34.859539,111.975800 35.105671,112.156937 
	C35.437023,112.212791 35.694031,112.092247 36.216984,111.948257 
	C36.660904,111.923790 36.838882,111.922783 37.248333,112.223190 
	C40.668098,112.310120 43.856392,112.095627 47.316013,111.891281 
	C47.764626,111.864899 47.941910,111.828354 48.346970,111.827713 
	C48.574753,111.863602 49.028301,111.780045 49.270927,111.856857 
	C49.682140,111.914551 49.850719,111.895416 50.231350,111.951736 
	C50.443398,112.027191 50.893520,112.023323 51.112457,112.406616 
	C62.907093,112.858849 74.482773,112.943771 86.058525,112.954811 
	C86.713562,112.955437 87.369171,112.349648 88.415726,112.023506 
	C90.550369,112.294189 92.293800,112.567467 94.498566,112.913147 
	C106.639923,112.990364 118.319962,112.995178 130.000000,113.000000 
z"/>
<path fill="#000000" opacity="1.000000" stroke="none" 
	d="
M130.000000,108.562500 
	C127.863609,109.000000 125.727219,109.000000 122.933769,109.000000 
	C123.544159,101.978264 121.503792,94.852509 125.694633,88.150467 
	C126.085640,88.091667 126.002785,88.030945 126.092430,88.388107 
	C126.818199,88.835754 127.454315,88.926239 128.090439,89.016724 
	C128.090439,89.016724 128.026779,88.974251 127.668060,89.284325 
	C129.376968,93.384186 130.109711,97.211990 127.476929,101.179710 
	C128.406158,101.481819 129.203079,101.740906 130.000000,102.000000 
	C130.000000,104.041664 130.000000,106.083336 130.000000,108.562500 
z"/>
<path fill="#1B1243" opacity="1.000000" stroke="none" 
	d="
M25.998465,111.975945 
	C17.978058,112.315384 9.957649,112.654823 1.468621,112.997131 
	C1.000000,112.250000 1.000000,111.500000 1.000000,110.375000 
	C4.333251,109.962234 7.666503,109.924469 11.846536,109.959518 
	C13.226254,109.971695 13.759192,109.911064 14.723103,109.876328 
	C18.746819,109.917458 22.339560,109.932686 25.953814,110.285637 
	C25.983038,111.074226 25.990751,111.525085 25.998465,111.975945 
z"/>
<path fill="#6F75C4" opacity="1.000000" stroke="none" 
	d="
M113.313705,109.526825 
	C118.564934,109.662560 123.816154,109.798294 129.533691,109.967010 
	C130.000000,110.444443 130.000000,110.888893 129.531342,111.668129 
	C117.715897,111.947937 106.369118,111.892952 95.226967,111.625626 
	C96.292015,110.980858 97.152420,110.548431 98.389992,110.089981 
	C99.522339,110.095078 100.277527,110.126198 101.259949,110.378906 
	C102.635605,110.426804 103.784027,110.253113 105.150070,110.040581 
	C105.367691,110.001740 105.807198,109.953606 106.207413,110.009064 
	C108.842987,109.885292 111.078346,109.706062 113.313705,109.526825 
z"/>
<path fill="#000000" opacity="1.000000" stroke="none" 
	d="
M1.000000,95.464645 
	C1.602071,95.156029 2.670391,95.203857 2.735514,95.484489 
	C3.567303,99.068878 4.265365,102.684639 4.976644,106.296524 
	C5.496570,108.936714 4.032133,109.407204 1.436414,109.042984 
	C1.000000,104.643097 1.000000,100.286201 1.000000,95.464645 
z"/>
<path fill="#D0DBFF" opacity="1.000000" stroke="none" 
	d="
M95.022331,111.837967 
	C106.369118,111.892952 117.715897,111.947937 129.531342,112.001465 
	C130.000000,112.000000 130.000000,112.500000 130.000000,112.750000 
	C118.319962,112.995178 106.639923,112.990364 94.589859,112.685913 
	C94.441666,112.136665 94.709160,111.953888 95.022331,111.837967 
z"/>
<path fill="#EFECFB" opacity="1.000000" stroke="none" 
	d="
M130.000000,101.536812 
	C129.203079,101.740906 128.406158,101.481819 127.476929,101.179710 
	C130.109711,97.211990 129.376968,93.384186 127.640244,89.258049 
	C128.421585,88.941574 128.872025,88.961449 129.661224,88.990662 
	C130.000000,93.024544 130.000000,97.049088 130.000000,101.536812 
z"/>
<path fill="#221B5A" opacity="1.000000" stroke="none" 
	d="
M125.113136,58.695755 
	C123.021904,59.454689 121.056770,59.984257 119.061302,60.346790 
	C115.903046,60.920582 112.724472,61.382507 109.229950,61.943909 
	C108.065140,61.378029 106.275017,60.508366 103.812340,59.311966 
	C105.080139,55.534389 102.800446,50.085049 109.090271,46.973869 
	C113.918327,46.944748 117.912621,46.929260 121.906921,46.913773 
	C123.375580,47.457741 124.844238,48.001713 126.771271,48.715454 
	C126.285553,51.756161 125.755592,55.073814 125.113136,58.695755 
z"/>
<path fill="#F8F7FC" opacity="1.000000" stroke="none" 
	d="
M121.799088,46.548965 
	C117.912621,46.929260 113.918327,46.944748 109.466812,46.891556 
	C107.707016,45.161045 106.404419,43.499210 105.055206,41.510353 
	C106.752403,41.465687 108.496231,41.748047 110.763702,42.294746 
	C111.511147,42.785725 111.781036,42.919117 112.097015,42.959263 
	C115.295090,44.034229 118.493172,45.109192 121.799088,46.548965 
z"/>
<path fill="#F6F6FA" opacity="1.000000" stroke="none" 
	d="
M18.610525,49.033463 
	C17.909384,52.573689 16.865484,56.279877 15.485498,59.992928 
	C14.889615,55.199127 14.629817,50.398468 14.317151,44.620872 
	C15.060006,47.021587 15.533849,48.552921 16.007690,50.084255 
	C16.761049,49.789314 17.514408,49.494373 18.610525,49.033463 
z"/>
<path fill="#F6F6FA" opacity="1.000000" stroke="none" 
	d="
M14.582611,62.052994 
	C14.744540,62.596245 14.618130,63.248684 14.190011,63.918167 
	C14.023625,63.344200 14.158949,62.753193 14.582611,62.052994 
z"/>
<path fill="#EFECFB" opacity="1.000000" stroke="none" 
	d="
M127.944778,88.642181 
	C127.454315,88.926239 126.818199,88.835754 126.047218,88.363731 
	C126.541283,88.077347 127.170197,88.172501 127.944778,88.642181 
z"/>
<path fill="#F6F6FA" opacity="1.000000" stroke="none" 
	d="
M13.681709,63.970291 
	C13.883069,64.202652 13.746620,64.478333 13.339266,64.848740 
	C13.240706,64.673370 13.332553,64.363411 13.681709,63.970291 
z"/>
<path fill="#EFECFB" opacity="1.000000" stroke="none" 
	d="
M112.017715,42.701477 
	C111.781036,42.919117 111.511147,42.785725 111.151886,42.374161 
	C111.323746,42.274059 111.631081,42.358875 112.017715,42.701477 
z"/>
<path fill="#6A76E7" opacity="1.000000" stroke="none" 
	d="
M43.016438,87.047638 
	C48.541691,87.398476 54.065220,87.781075 59.593189,88.082024 
	C61.400574,88.180420 63.219521,88.066406 65.926178,88.067291 
	C73.615921,88.131287 73.710587,88.141594 72.995728,94.706528 
	C72.475784,99.481461 71.663933,104.224609 70.515038,108.988472 
	C62.569332,109.110886 55.090809,109.226761 47.200867,109.360184 
	C44.540596,109.409805 42.291748,109.441872 39.823448,109.147095 
	C39.552990,107.532005 39.501984,106.243752 39.648598,104.650696 
	C40.728394,98.896324 41.610569,93.446754 42.614914,87.860580 
	C42.847145,87.505524 42.940262,87.280083 43.016438,87.047638 
M54.887196,96.577202 
	C52.748455,99.388535 54.121315,101.244713 57.416672,103.792084 
	C58.366451,101.375343 59.099030,99.511276 59.831604,97.647224 
	C58.307186,97.067833 56.782764,96.488441 54.887196,96.577202 
z"/>
<path fill="#6C41D5" opacity="1.000000" stroke="none" 
	d="
M42.858231,86.752357 
	C42.940262,87.280083 42.847145,87.505524 42.188072,87.897552 
	C41.068874,88.961678 40.152710,89.793129 39.988743,90.753059 
	C39.299114,94.790489 38.834232,98.866318 37.832130,102.913841 
	C33.615002,102.579536 29.843985,101.921631 26.092777,102.019897 
	C20.689697,102.161461 16.250244,104.268303 14.292131,109.850433 
	C13.759192,109.911064 13.226254,109.971695 12.298624,109.956062 
	C11.903809,103.087509 11.966682,96.294426 11.881207,89.503212 
	C11.825098,85.045174 14.948675,83.946266 18.306013,82.690094 
	C20.444588,81.889931 22.335381,80.427536 25.012428,79.090561 
	C26.838860,79.219749 27.990139,79.520439 29.404442,79.979904 
	C30.352119,80.508072 31.036772,80.877464 31.752602,81.206741 
	C31.783779,81.166626 31.788694,81.268127 31.892487,81.584076 
	C32.995121,82.302834 33.993965,82.705635 35.152695,83.168228 
	C35.312584,83.228020 35.647167,83.160088 35.819992,83.327232 
	C36.393688,83.358002 36.794563,83.221619 37.396839,83.049004 
	C37.598244,83.012764 37.994789,82.911461 37.994789,82.911461 
	C39.563202,84.093330 41.131615,85.275208 42.858231,86.752357 
z"/>
<path fill="#1F1861" opacity="1.000000" stroke="none" 
	d="
M70.982224,108.981934 
	C71.663933,104.224609 72.475784,99.481461 72.995728,94.706528 
	C73.710587,88.141594 73.615921,88.131287 66.391884,88.039330 
	C65.964592,85.626419 65.964592,83.259239 65.964592,80.257568 
	C64.259178,81.730827 62.990807,82.826538 61.047157,83.868469 
	C59.284321,80.567802 58.196762,77.320892 57.109200,74.073990 
	C59.660084,71.182724 62.632198,68.552071 64.631927,65.319817 
	C66.307899,62.610882 68.219467,61.258350 71.588684,61.387806 
	C68.739105,66.776443 74.781738,65.212334 75.940987,67.613319 
	C76.312332,71.035225 76.659889,74.023796 77.003571,77.006271 
	C76.999695,77.000175 76.993622,76.987061 76.991745,77.430115 
	C76.991196,87.537735 76.992523,97.202316 76.862991,107.100952 
	C76.671219,107.503075 76.610291,107.671143 76.374573,107.985916 
	C76.064857,108.405357 75.936691,108.681236 75.500381,109.087601 
	C73.871979,109.410362 72.558479,109.605782 71.197937,109.590393 
	C71.150902,109.379601 70.982224,108.981934 70.982224,108.981934 
z"/>
<path fill="#BDC0F9" opacity="1.000000" stroke="none" 
	d="
M107.044403,82.181030 
	C108.668945,89.866180 110.293495,97.551331 111.581467,105.504181 
	C109.166840,104.555061 107.215263,102.865089 104.972237,102.265594 
	C103.049103,101.751602 100.118065,99.961021 98.552818,103.801094 
	C94.070641,104.499008 90.004234,105.131371 85.962364,105.404053 
	C86.739510,99.836975 87.010574,94.491364 88.448647,89.480682 
	C89.163643,86.989441 92.019592,85.112648 93.956009,83.274567 
	C94.314613,84.384033 94.624222,85.176826 94.696808,86.189743 
	C94.268463,88.234261 94.077141,90.058655 93.843704,92.170006 
	C93.783714,92.649475 93.765831,92.841995 93.642105,93.098358 
	C93.679199,93.183914 93.822136,93.205627 94.241783,93.080025 
	C94.810402,92.629929 95.102303,92.327148 95.520897,91.957375 
	C95.806709,91.776878 95.929878,91.632668 96.278542,91.171005 
	C96.694115,89.897339 96.848244,88.910416 97.016602,87.699448 
	C97.030846,87.475395 97.062164,87.027473 97.295807,86.894775 
	C97.730995,86.469566 97.932541,86.177048 98.444313,85.740959 
	C101.517822,84.458603 104.281113,83.319817 107.044403,82.181030 
z"/>
<path fill="#1E1661" opacity="1.000000" stroke="none" 
	d="
M93.907013,82.957886 
	C92.019592,85.112648 89.163643,86.989441 88.448647,89.480682 
	C87.010574,94.491364 86.739510,99.836975 85.617073,105.467758 
	C83.496872,105.844810 81.746498,105.798492 79.915215,105.389648 
	C79.223618,99.948318 78.147881,94.860458 78.246498,89.795464 
	C78.282547,87.943878 81.107018,86.146576 82.975746,83.953232 
	C81.400314,83.372650 79.843590,82.798965 78.639915,82.355385 
	C78.021698,80.339447 77.507660,78.663254 76.993622,76.987061 
	C76.993622,76.987061 76.999695,77.000175 77.003357,76.551476 
	C77.021866,73.077232 77.036720,70.051697 77.425156,66.927048 
	C84.643761,66.937485 80.093002,62.091232 80.944511,59.594322 
	C83.164375,60.185429 85.384232,60.776535 87.649170,61.921333 
	C87.162949,62.658466 86.631638,62.841911 85.850983,62.884262 
	C84.895454,65.258080 84.189278,67.772987 83.313347,70.892418 
	C82.602722,71.295830 81.094429,72.152054 79.586136,73.008278 
	C79.765320,73.328224 79.944496,73.648178 80.123680,73.968124 
	C82.091911,73.310860 84.060150,72.653587 86.019043,72.374054 
	C87.804344,75.196503 89.574066,77.660103 91.405479,80.076958 
	C92.171898,81.088364 93.069214,82.000572 93.907013,82.957886 
z"/>
<path fill="#1F0A5A" opacity="1.000000" stroke="none" 
	d="
M86.100334,63.025352 
	C86.631638,62.841911 87.162949,62.658466 87.854126,62.236309 
	C88.992706,61.907181 90.018715,61.976089 90.942802,61.701740 
	C100.312767,58.919941 100.772026,59.206776 105.080139,68.175117 
	C106.190147,70.485855 108.076775,72.429192 109.643600,74.513519 
	C112.107910,77.791740 111.474480,80.344421 107.409012,82.044632 
	C104.281113,83.319817 101.517822,84.458603 98.439461,85.360931 
	C98.237160,81.874184 97.033096,77.299454 98.714928,75.627289 
	C103.362236,71.006653 99.358177,70.594154 96.822609,69.605080 
	C95.122398,70.404327 93.555984,70.744453 91.971550,70.894562 
	C90.331268,71.049965 88.673523,71.021027 86.745193,70.780930 
	C86.344757,68.001213 86.222549,65.513283 86.100334,63.025352 
z"/>
<path fill="#C6CAF9" opacity="1.000000" stroke="none" 
	d="
M27.320415,58.982990 
	C23.756351,58.105759 21.563303,53.314247 21.968622,48.753551 
	C22.343758,44.532482 25.511333,46.221531 27.629736,46.035355 
	C30.422050,45.789955 33.260872,45.838608 36.063248,46.017902 
	C38.267815,46.158943 41.942123,46.102230 42.356579,47.157375 
	C43.576122,50.262169 44.172352,53.995205 43.602619,57.234295 
	C43.368500,58.565357 39.574135,59.928513 37.316082,60.086163 
	C34.173717,60.305553 30.953230,59.406006 27.320415,58.982990 
z"/>
<path fill="#C597A8" opacity="1.000000" stroke="none" 
	d="
M80.800476,59.331093 
	C80.093002,62.091232 84.643761,66.937485 77.134163,66.912872 
	C76.285454,67.058525 76.101326,67.119255 75.917206,67.179985 
	C74.781738,65.212334 68.739105,66.776443 71.966629,61.368034 
	C68.380135,57.617432 66.077118,53.852879 69.338150,48.442051 
	C71.910263,48.964909 74.070328,49.851303 76.418503,50.814884 
	C77.978378,50.814884 79.918640,50.814884 81.858902,50.814884 
	C81.370689,52.454304 80.740562,54.068710 80.445641,55.742188 
	C80.258270,56.805344 80.569046,57.956287 80.800476,59.331093 
z"/>
<path fill="#1D0855" opacity="1.000000" stroke="none" 
	d="
M23.061487,71.866669 
	C20.758879,66.674789 21.906477,63.950760 27.408331,62.461235 
	C29.594021,61.869507 32.039650,61.621632 34.255875,61.955181 
	C36.009228,62.219063 38.158669,63.252552 39.035057,64.638206 
	C39.542923,65.441185 37.881294,67.616325 36.666687,69.536354 
	C30.024336,69.663734 29.732857,70.068329 31.075245,76.921646 
	C31.037981,76.969772 30.967321,77.068901 30.711639,77.163956 
	C29.970684,77.507553 29.485409,77.756081 28.778616,77.698532 
	C28.241467,74.042564 27.231993,71.382736 23.061487,71.866669 
z"/>
<path fill="#23105A" opacity="1.000000" stroke="none" 
	d="
M81.982376,50.455074 
	C79.918640,50.814884 77.978378,50.814884 76.418503,50.814884 
	C74.070328,49.851303 71.910263,48.964909 69.351753,48.076717 
	C66.734192,46.605614 63.430161,45.659176 65.839813,41.895821 
	C66.324318,41.139137 67.165237,39.886230 67.653389,39.969311 
	C72.125793,40.730469 76.762535,41.209763 80.932587,42.841480 
	C84.114677,44.086613 83.541130,47.351513 81.982376,50.455074 
z"/>
<path fill="#E2ABA4" opacity="1.000000" stroke="none" 
	d="
M56.915840,73.768829 
	C58.196762,77.320892 59.284321,80.567802 60.731304,83.985672 
	C57.388416,87.321129 54.316017,86.600533 53.294029,82.231705 
	C52.538326,79.001183 52.249348,75.640358 51.252350,72.496155 
	C50.738220,70.874748 49.272545,69.453392 47.975414,68.215576 
	C47.016781,67.300781 45.635647,66.828728 44.442741,66.159424 
	C45.057041,65.473022 45.609177,64.283218 46.297733,64.198189 
	C48.091537,63.976677 50.849026,63.511585 51.603024,64.447723 
	C53.742626,67.104187 55.073288,70.412193 56.915840,73.768829 
z"/>
<path fill="#C3C6F7" opacity="1.000000" stroke="none" 
	d="
M62.626171,41.409184 
	C61.917332,48.419178 61.917332,48.419178 58.714420,51.342976 
	C57.438725,49.704266 56.196346,48.044418 54.887207,46.439018 
	C51.380058,42.138203 51.239445,39.946915 54.750637,37.873756 
	C58.527798,35.643562 60.935040,37.499695 62.626171,41.409184 
z"/>
<path fill="#767AE4" opacity="1.000000" stroke="none" 
	d="
M98.968597,103.735535 
	C100.118065,99.961021 103.049103,101.751602 104.972237,102.265594 
	C107.215263,102.865089 109.166840,104.555061 111.529640,105.957695 
	C112.263115,107.072693 112.711830,108.001862 113.237122,109.228928 
	C111.078346,109.706062 108.842987,109.885292 106.112686,109.719574 
	C104.506058,108.530090 103.394356,107.685562 102.242043,106.823395 
	C102.201424,106.805756 102.113518,106.794907 102.009399,106.602249 
	C101.704201,106.191635 101.467468,106.024033 101.045601,105.630455 
	C100.253624,104.814590 99.611115,104.275063 98.968597,103.735535 
z"/>
<path fill="#D29CA3" opacity="1.000000" stroke="none" 
	d="
M31.112511,76.873528 
	C29.732857,70.068329 30.024336,69.663734 36.490189,69.870911 
	C39.860088,71.792290 40.328125,74.393219 38.396275,77.742676 
	C35.698112,77.612022 33.405312,77.242775 31.112511,76.873528 
z"/>
<path fill="#D09CA7" opacity="1.000000" stroke="none" 
	d="
M23.014088,72.261688 
	C27.231993,71.382736 28.241467,74.042564 28.751263,78.004196 
	C29.010759,79.017677 29.076088,79.419403 29.141417,79.821136 
	C27.990139,79.520439 26.838860,79.219749 25.326534,78.907990 
	C24.299221,76.816849 23.632956,74.736771 23.014088,72.261688 
z"/>
<path fill="#1D0855" opacity="1.000000" stroke="none" 
	d="
M31.075245,76.921646 
	C33.405312,77.242775 35.698112,77.612022 38.368202,78.044205 
	C38.555222,79.485023 38.364952,80.862907 38.084732,82.576126 
	C37.994789,82.911461 37.598244,83.012764 37.008274,83.046249 
	C36.161255,83.106522 35.904209,83.133301 35.647167,83.160088 
	C35.647167,83.160088 35.312584,83.228020 35.094566,82.804077 
	C33.847267,82.009468 32.817982,81.638794 31.788694,81.268127 
	C31.788694,81.268127 31.783779,81.166626 31.838737,80.840256 
	C31.584904,79.365555 31.276114,78.217232 30.967321,77.068901 
	C30.967321,77.068901 31.037981,76.969772 31.075245,76.921646 
z"/>
<path fill="#1E1660" opacity="1.000000" stroke="none" 
	d="
M39.450977,104.955505 
	C39.501984,106.243752 39.552990,107.532005 39.738041,109.424744 
	C38.920345,110.660080 37.968601,111.290924 37.016861,111.921768 
	C36.838882,111.922783 36.660904,111.923790 35.987247,111.948944 
	C35.491570,111.973091 35.031326,111.980537 35.031326,111.980537 
	C34.859539,111.975800 34.687748,111.971054 34.008965,111.714828 
	C31.672382,111.626183 29.842798,111.789032 28.013212,111.951874 
	C27.565434,111.952164 27.117653,111.952461 26.334169,111.964355 
	C25.990751,111.525085 25.983038,111.074226 26.042082,109.899101 
	C28.032591,108.456772 29.942968,107.699905 31.883688,107.031067 
	C34.012630,106.297363 36.169552,105.644836 38.598484,104.980637 
	C39.072117,104.988068 39.261547,104.971786 39.450977,104.955505 
z"/>
<path fill="#4850BC" opacity="1.000000" stroke="none" 
	d="
M70.515038,108.988472 
	C70.982224,108.981934 71.150902,109.379601 70.761490,109.646439 
	C68.218361,110.513130 66.064644,111.112968 63.505051,111.765137 
	C61.736439,111.784065 60.373707,111.750656 58.768448,111.516617 
	C57.346153,111.453873 56.166389,111.591766 54.578278,111.773376 
	C53.077793,111.885834 51.985657,111.954582 50.893520,112.023323 
	C50.893520,112.023323 50.443398,112.027191 50.147217,111.802101 
	C49.576794,111.644691 49.302547,111.712364 49.028301,111.780045 
	C49.028301,111.780045 48.574753,111.863602 48.327362,111.522491 
	C47.932705,110.807816 47.785435,110.434258 47.626625,109.881363 
	C47.615093,109.702034 47.612289,109.342636 47.612289,109.342636 
	C55.090809,109.226761 62.569332,109.110886 70.515038,108.988472 
z"/>
<path fill="#7D72BA" opacity="1.000000" stroke="none" 
	d="
M95.226967,111.625626 
	C94.709160,111.953888 94.441666,112.136665 94.128540,112.613510 
	C92.293800,112.567467 90.550369,112.294189 87.956802,112.009979 
	C83.744965,111.958527 80.383263,111.918007 77.012451,111.585831 
	C76.998795,110.905762 76.994240,110.517357 77.457382,110.091064 
	C84.621002,110.074120 91.316917,110.095055 98.012833,110.115997 
	C97.152420,110.548431 96.292015,110.980858 95.226967,111.625626 
z"/>
<path fill="#D0DBFF" opacity="1.000000" stroke="none" 
	d="
M77.021553,111.877495 
	C80.383263,111.918007 83.744965,111.958527 87.565598,112.012573 
	C87.369171,112.349648 86.713562,112.955437 86.058525,112.954811 
	C74.482773,112.943771 62.907093,112.858849 51.112457,112.406616 
	C51.985657,111.954582 53.077793,111.885834 54.974152,111.870117 
	C56.855907,111.854515 57.933441,111.785889 59.010979,111.717255 
	C60.373707,111.750656 61.736439,111.784065 63.965004,111.869736 
	C68.894409,111.907166 72.957985,111.892326 77.021553,111.877495 
z"/>
<path fill="#1B1243" opacity="1.000000" stroke="none" 
	d="
M47.200867,109.360184 
	C47.612289,109.342636 47.615093,109.702034 47.467033,110.067001 
	C47.227547,110.915024 47.136116,111.398071 47.044685,111.881126 
	C43.856392,112.095627 40.668098,112.310120 37.248333,112.223190 
	C37.968601,111.290924 38.920345,110.660080 39.957489,109.751587 
	C42.291748,109.441872 44.540596,109.409805 47.200867,109.360184 
M42.415264,110.467491 
	C42.415264,110.467491 42.520962,110.401260 42.415264,110.467491 
z"/>
<path fill="#1B1243" opacity="1.000000" stroke="none" 
	d="
M28.240154,112.246178 
	C29.842798,111.789032 31.672382,111.626183 33.751732,111.731613 
	C32.156700,112.180084 30.311899,112.360283 28.240154,112.246178 
z"/>
<path fill="#1E1660" opacity="1.000000" stroke="none" 
	d="
M47.316013,111.891281 
	C47.136116,111.398071 47.227547,110.915024 47.478569,110.246338 
	C47.785435,110.434258 47.932705,110.807816 48.099583,111.486595 
	C47.941910,111.828354 47.764626,111.864899 47.316013,111.891281 
z"/>
<path fill="#6F76CC" opacity="1.000000" stroke="none" 
	d="
M49.270927,111.856857 
	C49.302547,111.712364 49.576794,111.644691 49.935173,111.726654 
	C49.850719,111.895416 49.682140,111.914551 49.270927,111.856857 
z"/>
<path fill="#1B1243" opacity="1.000000" stroke="none" 
	d="
M35.105671,112.156937 
	C35.031326,111.980537 35.491570,111.973091 35.721306,111.972397 
	C35.694031,112.092247 35.437023,112.212791 35.105671,112.156937 
z"/>
<path fill="#D69BA5" opacity="1.000000" stroke="none" 
	d="
M38.314278,104.956924 
	C36.169552,105.644836 34.012630,106.297363 31.883688,107.031067 
	C29.942968,107.699905 28.032591,108.456772 26.020571,109.561371 
	C22.339560,109.932686 18.746819,109.917458 14.723104,109.876335 
	C16.250244,104.268303 20.689697,102.161461 26.092777,102.019897 
	C29.843985,101.921631 33.615002,102.579536 37.821217,103.253983 
	C38.281601,104.057884 38.297939,104.507408 38.314278,104.956924 
z"/>
<path fill="#BB9ACB" opacity="1.000000" stroke="none" 
	d="
M98.389992,110.089973 
	C91.316917,110.095055 84.621002,110.074120 77.220184,109.940063 
	C76.281937,109.538055 76.048607,109.249153 75.815277,108.960251 
	C75.936691,108.681236 76.064857,108.405357 76.794815,108.156845 
	C85.063950,108.416191 92.737450,108.699280 100.413284,108.795525 
	C101.028145,108.803238 101.659157,107.522835 102.282661,106.841034 
	C103.394356,107.685562 104.506058,108.530090 105.712479,109.664108 
	C105.807198,109.953606 105.367691,110.001740 104.761505,110.015213 
	C103.114456,110.071556 102.073586,110.114433 101.032715,110.157310 
	C100.277527,110.126198 99.522339,110.095078 98.389992,110.089973 
z"/>
<path fill="#7D72BA" opacity="1.000000" stroke="none" 
	d="
M101.259949,110.378906 
	C102.073586,110.114433 103.114456,110.071556 104.543884,110.054047 
	C103.784027,110.253113 102.635605,110.426804 101.259949,110.378906 
z"/>
<path fill="#E1E6FF" opacity="1.000000" stroke="none" 
	d="
M55.072769,96.243126 
	C56.782764,96.488441 58.307186,97.067833 59.831604,97.647217 
	C59.099030,99.511276 58.366451,101.375343 57.416672,103.792084 
	C54.121315,101.244713 52.748455,99.388535 55.072769,96.243126 
z"/>
<path fill="#301F8C" opacity="1.000000" stroke="none" 
	d="
M38.598484,104.980637 
	C38.297939,104.507408 38.281601,104.057884 38.276176,103.268227 
	C38.834232,98.866318 39.299114,94.790489 39.988743,90.753059 
	C40.152710,89.793129 41.068874,88.961678 42.065895,88.034164 
	C41.610569,93.446754 40.728394,98.896324 39.648598,104.650696 
	C39.261547,104.971786 39.072117,104.988068 38.598484,104.980637 
z"/>
<path fill="#210C60" opacity="1.000000" stroke="none" 
	d="
M30.711639,77.163956 
	C31.276114,78.217232 31.584904,79.365555 31.807560,80.880371 
	C31.036772,80.877464 30.352119,80.508072 29.404442,79.979904 
	C29.076088,79.419403 29.010759,79.017677 28.972782,78.310280 
	C29.485409,77.756081 29.970684,77.507553 30.711639,77.163956 
z"/>
<path fill="#210C60" opacity="1.000000" stroke="none" 
	d="
M31.892487,81.584076 
	C32.817982,81.638794 33.847267,82.009468 34.934677,82.744286 
	C33.993965,82.705635 32.995121,82.302834 31.892487,81.584076 
z"/>
<path fill="#210C60" opacity="1.000000" stroke="none" 
	d="
M35.819992,83.327232 
	C35.904209,83.133301 36.161255,83.106522 36.806870,83.082489 
	C36.794563,83.221619 36.393688,83.358002 35.819992,83.327232 
z"/>
<path fill="#E5A498" opacity="1.000000" stroke="none" 
	d="
M102.242043,106.823395 
	C101.659157,107.522835 101.028145,108.803238 100.413284,108.795525 
	C92.737450,108.699280 85.063950,108.416191 76.969612,108.010147 
	C76.610291,107.671143 76.671219,107.503075 77.184616,107.045517 
	C78.423424,106.421394 79.209770,106.086784 79.996117,105.752167 
	C81.746498,105.798492 83.496872,105.844810 85.592545,105.827438 
	C90.004234,105.131371 94.070641,104.499008 98.552818,103.801094 
	C99.611115,104.275063 100.253624,104.814590 101.091606,105.867714 
	C101.476250,106.691399 101.751732,106.829269 102.113518,106.794907 
	C102.113518,106.794907 102.201424,106.805756 102.242043,106.823395 
z"/>
<path fill="#372C79" opacity="1.000000" stroke="none" 
	d="
M79.915215,105.389648 
	C79.209770,106.086784 78.423424,106.421394 77.315468,106.811447 
	C76.992523,97.202316 76.991196,87.537735 76.991745,77.430115 
	C77.507660,78.663254 78.021698,80.339447 78.639915,82.355385 
	C79.843590,82.798965 81.400314,83.372650 82.975746,83.953232 
	C81.107018,86.146576 78.282547,87.943878 78.246498,89.795464 
	C78.147881,94.860458 79.223618,99.948318 79.915215,105.389648 
z"/>
<path fill="#6F76CC" opacity="1.000000" stroke="none" 
	d="
M75.500381,109.087601 
	C76.048607,109.249153 76.281937,109.538055 76.752480,109.977951 
	C76.994240,110.517357 76.998795,110.905762 77.012451,111.585831 
	C72.957985,111.892326 68.894409,111.907166 64.370888,111.817406 
	C66.064644,111.112968 68.218361,110.513130 70.808533,109.857239 
	C72.558479,109.605782 73.871979,109.410362 75.500381,109.087601 
z"/>
<path fill="#372C79" opacity="1.000000" stroke="none" 
	d="
M75.940987,67.613319 
	C76.101326,67.119255 76.285454,67.058525 76.760574,67.011978 
	C77.036720,70.051697 77.021866,73.077232 77.007233,76.557571 
	C76.659889,74.023796 76.312332,71.035225 75.940987,67.613319 
z"/>
<path fill="#DEA1A1" opacity="1.000000" stroke="none" 
	d="
M87.023415,71.072716 
	C88.673523,71.021027 90.331268,71.049965 91.971550,70.894562 
	C93.555984,70.744453 95.122398,70.404327 96.822609,69.605080 
	C99.358177,70.594154 103.362236,71.006653 98.714928,75.627289 
	C97.033096,77.299454 98.237160,81.874184 98.129234,85.504501 
	C97.932541,86.177048 97.730995,86.469566 96.983582,86.857330 
	C95.936417,86.624924 95.435120,86.297272 94.933830,85.969620 
	C94.624222,85.176826 94.314613,84.384033 93.956009,83.274567 
	C93.069214,82.000572 92.171898,81.088364 91.405479,80.076958 
	C89.574066,77.660103 87.804344,75.196503 86.248093,72.299332 
	C86.773666,71.663872 86.952652,71.405823 87.023415,71.072716 
z"/>
<path fill="#BE9FCE" opacity="1.000000" stroke="none" 
	d="
M94.696808,86.189743 
	C95.435120,86.297272 95.936417,86.624924 96.749939,86.990021 
	C97.062164,87.027473 97.030846,87.475395 96.740189,87.961281 
	C96.305382,89.450699 96.161240,90.454224 96.017090,91.457756 
	C95.929878,91.632668 95.806709,91.776878 95.141739,91.923203 
	C94.385857,91.931709 94.135841,91.907387 93.885818,91.883057 
	C94.077141,90.058655 94.268463,88.234261 94.696808,86.189743 
z"/>
<path fill="#9281C6" opacity="1.000000" stroke="none" 
	d="
M96.278534,91.171005 
	C96.161240,90.454224 96.305382,89.450699 96.725945,88.185333 
	C96.848244,88.910416 96.694115,89.897339 96.278534,91.171005 
z"/>
<path fill="#9281C6" opacity="1.000000" stroke="none" 
	d="
M93.843704,92.170006 
	C94.135841,91.907387 94.385857,91.931709 95.015030,91.990204 
	C95.102303,92.327148 94.810402,92.629929 94.216202,92.999496 
	C93.913910,93.066292 93.747948,93.034515 93.747948,93.034515 
	C93.765831,92.841995 93.783714,92.649475 93.843704,92.170006 
z"/>
<path fill="#BE9FCE" opacity="1.000000" stroke="none" 
	d="
M93.939484,93.146820 
	C93.822136,93.205627 93.679199,93.183914 93.642105,93.098358 
	C93.747948,93.034515 93.913910,93.066292 93.939484,93.146820 
z"/>
<path fill="#2E2675" opacity="1.000000" stroke="none" 
	d="
M86.745193,70.780930 
	C86.952652,71.405823 86.773666,71.663872 86.257423,71.921600 
	C84.060150,72.653587 82.091911,73.310860 80.123680,73.968124 
	C79.944496,73.648178 79.765320,73.328224 79.586136,73.008278 
	C81.094429,72.152054 82.602722,71.295830 83.313347,70.892418 
	C84.189278,67.772987 84.895454,65.258080 85.850983,62.884262 
	C86.222549,65.513283 86.344757,68.001213 86.745193,70.780930 
z"/>
<path fill="#BB9ACB" opacity="1.000000" stroke="none" 
	d="
M102.009399,106.602249 
	C101.751732,106.829269 101.476250,106.691399 101.241074,106.144051 
	C101.467468,106.024033 101.704201,106.191635 102.009399,106.602249 
z"/>
<path fill="#6F76CC" opacity="1.000000" stroke="none" 
	d="
M58.768448,111.516617 
	C57.933441,111.785889 56.855907,111.854515 55.382496,111.826408 
	C56.166389,111.591766 57.346153,111.453873 58.768448,111.516617 
z"/>
<path fill="#1E1660" opacity="1.000000" stroke="none" 
	d="
M42.468113,110.434372 
	C42.520962,110.401260 42.415264,110.467491 42.468113,110.434372 
z"/>
</svg>