<?xml version="1.0" standalone="no"?>
<!DOCTYPE svg PUBLIC "-//W3C//DTD SVG 20010904//EN"
 "http://www.w3.org/TR/2001/REC-SVG-20010904/DTD/svg10.dtd">
<svg version="1.0" xmlns="http://www.w3.org/2000/svg"
 width="129.000000pt" height="129.000000pt" viewBox="0 0 129.000000 129.000000"
 preserveAspectRatio="xMidYMid meet">

<g transform="translate(0.000000,129.000000) scale(0.100000,-0.100000)"
fill="#000000" stroke="none">
<path d="M663 899 c-42 -15 -3 -89 47 -89 10 0 21 -7 24 -16 4 -11 12 -14 24
-9 9 4 24 8 32 8 19 0 30 16 30 45 0 31 -53 63 -93 55 -16 -3 -32 -1 -36 4 -3
7 -15 7 -28 2z"/>
<path d="M578 823 c-14 -4 -16 -8 -8 -24 9 -15 15 -17 30 -9 11 6 17 16 14 25
-6 16 -7 16 -36 8z"/>
<path d="M1046 815 c-3 -8 -8 -37 -12 -65 -7 -49 -6 -50 21 -50 20 0 26 -4 21
-15 -7 -19 5 -19 30 0 11 8 42 14 75 15 l56 0 10 59 9 59 -29 6 c-16 3 -62 6
-102 6 -55 0 -74 -4 -79 -15z m69 -55 c-3 -5 -10 -10 -16 -10 -5 0 -9 5 -9 10
0 6 7 10 16 10 8 0 12 -4 9 -10z m35 0 c0 -5 -4 -10 -10 -10 -5 0 -10 5 -10
10 0 6 5 10 10 10 6 0 10 -4 10 -10z m40 0 c0 -5 -4 -10 -10 -10 -5 0 -10 5
-10 10 0 6 5 10 10 10 6 0 10 -4 10 -10z"/>
<path d="M790 690 c0 -5 0 -12 0 -15 0 -6 -38 -45 -44 -45 -2 0 -9 14 -15 31
-10 29 -14 31 -43 25 -18 -4 -35 -11 -36 -16 -2 -6 -22 -36 -45 -68 l-42 -57
20 -42 21 -43 22 23 23 22 -3 -49 -3 -49 -105 2 c-97 2 -107 4 -128 27 -13 13
-27 24 -33 24 -6 0 -8 9 -4 20 3 11 3 29 0 41 -6 17 -13 20 -36 15 -24 -5 -30
-2 -35 19 -7 26 2 48 16 40 13 -8 48 12 60 35 24 44 -74 69 -140 35 -26 -13
-30 -21 -30 -55 0 -38 1 -40 25 -34 26 6 28 4 40 -50 5 -25 4 -28 -9 -17 -11
10 -18 8 -33 -8 -10 -10 -37 -24 -60 -30 -24 -7 -47 -19 -52 -29 -5 -9 -8 -68
-7 -129 l1 -113 -57 0 c-32 0 -58 -4 -58 -10 0 -7 222 -10 647 -10 355 0 644
2 642 5 -3 2 -41 7 -85 10 -72 6 -81 9 -104 36 -14 17 -32 31 -40 32 -8 2 -22
7 -30 12 -9 5 -8 0 4 -13 11 -12 17 -25 14 -28 -3 -3 -15 6 -26 20 -11 15 -23
26 -28 26 -15 0 60 -70 75 -71 13 0 13 -2 -1 -7 -9 -4 -87 -6 -173 -4 l-155 3
17 25 c14 19 24 23 48 19 23 -4 35 0 48 15 19 22 22 35 7 25 -5 -3 -10 -1 -10
4 0 6 4 11 10 11 5 0 7 13 3 31 -8 43 14 102 48 125 38 25 40 59 4 50 -18 -5
-27 -2 -31 9 -4 8 -13 15 -21 15 -11 0 -14 6 -9 23 3 12 6 27 6 33 0 18 58 15
65 -4 6 -16 7 -16 16 1 6 9 17 17 25 17 20 0 29 -27 14 -45 -7 -8 -10 -26 -6
-39 3 -14 2 -28 -4 -31 -5 -3 -10 -10 -10 -14 0 -12 39 -21 45 -11 3 4 27 13
55 20 27 7 50 17 50 23 0 7 -10 27 -23 46 -12 19 -35 56 -52 84 -40 67 -53 74
-110 59 -32 -8 -52 -9 -65 -2 -24 13 -70 13 -70 0z m-210 -355 c7 -9 9 -23 4
-37 -4 -13 -7 -27 -5 -32 1 -5 -5 -4 -13 3 -8 7 -20 10 -26 6 -5 -3 -10 -1
-10 4 0 6 -5 11 -11 11 -5 0 -7 -6 -3 -12 4 -7 3 -9 -1 -5 -13 11 -15 38 -2
30 7 -4 8 0 3 13 -4 10 -4 15 0 12 3 -4 13 -1 21 7 18 19 27 19 43 0z m-262
-61 c34 -5 52 -11 52 -20 0 -10 -16 -14 -60 -14 -53 0 -60 -2 -60 -20 0 -18
-7 -20 -60 -20 -58 0 -60 1 -50 21 15 27 69 59 100 59 14 0 49 -3 78 -6z m786
-74 c-6 -5 -24 21 -24 34 0 6 6 1 14 -10 8 -10 12 -21 10 -24z"/>
<path d="M330 570 c0 -5 5 -10 11 -10 5 0 7 5 4 10 -3 6 -8 10 -11 10 -2 0 -4
-4 -4 -10z"/>
<path d="M970 441 c0 -6 0 -14 1 -17 0 -4 -5 -11 -13 -16 -11 -8 -11 -9 0 -6
8 2 13 7 12 12 -1 5 4 12 10 16 9 5 9 9 1 14 -6 4 -11 2 -11 -3z"/>
</g>
</svg>
