<?xml version="1.0" standalone="no"?>
<!DOCTYPE svg PUBLIC "-//W3C//DTD SVG 20010904//EN"
 "http://www.w3.org/TR/2001/REC-SVG-20010904/DTD/svg10.dtd">
<svg version="1.0" xmlns="http://www.w3.org/2000/svg"
 width="129.000000pt" height="129.000000pt" viewBox="0 0 129.000000 129.000000"
 preserveAspectRatio="xMidYMid meet">

<g transform="translate(0.000000,129.000000) scale(0.100000,-0.100000)"
fill="#000000" stroke="none">
<path d="M330 765 c0 -26 0 -26 24 -8 27 20 25 33 -5 33 -14 0 -19 -7 -19 -25z"/>
<path d="M992 738 c-6 -6 -12 -27 -12 -45 0 -25 4 -31 15 -27 10 4 13 14 8 32
-5 21 -3 24 11 19 10 -4 20 -7 22 -7 2 0 4 -6 4 -14 0 -7 9 -16 21 -19 11 -3
23 -15 26 -26 3 -12 9 -21 14 -21 15 0 10 17 -13 47 -13 15 -28 37 -34 48 -13
24 -44 31 -62 13z"/>
<path d="M311 701 c-29 -29 -39 -91 -17 -106 10 -8 16 -26 16 -49 l0 -36 60 0
c46 0 60 3 60 14 0 8 -4 18 -10 21 -5 3 -10 1 -10 -4 0 -6 -7 -11 -15 -11 -8
0 -15 7 -15 15 0 8 -7 15 -15 15 -12 0 -13 9 -9 44 7 51 -2 116 -16 116 -6 0
-19 -9 -29 -19z"/>
<path d="M384 684 c9 -35 10 -37 30 -32 13 2 14 7 3 27 -19 37 -42 41 -33 5z"/>
<path d="M889 515 c-18 -30 -27 -35 -53 -34 -58 3 -66 0 -66 -25 0 -34 13 -40
89 -38 36 0 72 -4 79 -10 9 -8 19 -8 35 0 12 7 51 13 87 15 63 3 62 3 -16 5
-64 2 -83 5 -88 18 -13 35 -7 39 54 36 l60 -4 0 36 0 36 -80 0 -81 0 -20 -35z"/>
<path d="M555 450 c3 -5 8 -10 11 -10 2 0 4 5 4 10 0 6 -5 10 -11 10 -5 0 -7
-4 -4 -10z"/>
<path d="M430 395 c0 -12 8 -14 43 -9 77 12 86 23 20 23 -50 1 -63 -2 -63 -14z"/>
<path d="M808 383 c6 -2 18 -2 25 0 6 3 1 5 -13 5 -14 0 -19 -2 -12 -5z"/>
<path d="M963 357 c-10 -12 -11 -17 -3 -10 8 6 24 13 35 15 17 3 18 5 3 10
-10 4 -23 -1 -35 -15z"/>
<path d="M797 363 c-10 -3 -17 -12 -15 -21 3 -14 18 -18 83 -20 78 -3 80 -2
80 20 0 21 -4 23 -65 24 -36 1 -73 -1 -83 -3z"/>
</g>
</svg>
