<?xml version="1.0" encoding="UTF-8"?>
<svg version="1.1" xmlns="http://www.w3.org/2000/svg" width="129" height="129">
<path d="M0 0 C1.8253125 0.433125 1.8253125 0.433125 3.6875 0.875 C7.7716597 2.26207311 8.62014963 3.43022445 11 7 C11.5465625 7.74894531 12.093125 8.49789063 12.65625 9.26953125 C16.32798157 14.33372034 19.32910143 19.35002225 22 25 C22.33 25.33 22.66 25.66 23 26 C25.46432736 38.08779549 26.75644926 51.79385351 21.96875 63.52734375 C20.86317944 66.34922344 20.59304405 68.79622398 20.375 71.8125 C20.30023438 72.78832031 20.22546875 73.76414062 20.1484375 74.76953125 C20.07496094 75.87361328 20.07496094 75.87361328 20 77 C21.65 77 23.3 77 25 77 C25 78.65 25 80.3 25 82 C23.865625 82.01417969 22.73125 82.02835937 21.5625 82.04296875 C11.02235062 82.14061163 11.02235062 82.14061163 1.78125 86.6640625 C-6.46253648 92.84690236 -19.01302527 94.81711913 -29.13818359 93.78125 C-37.89929272 92.34185191 -49.61258021 89.38741979 -56 83 C-57.48638992 82.84344973 -58.97949127 82.74933057 -60.47265625 82.68359375 C-61.37177734 82.64169922 -62.27089844 82.59980469 -63.19726562 82.55664062 C-64.14279297 82.51732422 -65.08832031 82.47800781 -66.0625 82.4375 C-67.01189453 82.39431641 -67.96128906 82.35113281 -68.93945312 82.30664062 C-71.29281353 82.20020724 -73.64628354 82.09818992 -76 82 C-76 80.35 -76 78.7 -76 77 C-73.69 77 -71.38 77 -69 77 C-69.23360662 70.51741626 -69.93995568 64.67266904 -72 58.5 C-74.24137355 51.6940774 -76.23963442 44.2845617 -74.1953125 37.21875 C-73 35 -73 35 -70 34 C-70.03480469 33.31292969 -70.06960937 32.62585937 -70.10546875 31.91796875 C-70.13253906 31.01691406 -70.15960938 30.11585937 -70.1875 29.1875 C-70.22230469 28.29417969 -70.25710937 27.40085938 -70.29296875 26.48046875 C-69.93880295 23.48186499 -69.11390399 23.02292584 -67 21 C-66.39255586 18.70184172 -66.39255586 18.70184172 -66.125 16.1875 C-65.23177091 11.42361151 -64.10102534 7.85438242 -60 5 C-56.85915721 3.56171061 -53.69328761 2.37376659 -50.43359375 1.23046875 C-46.27231159 -0.26077571 -42.32909804 -2.08872935 -38.33984375 -3.984375 C-25.98510225 -9.34703408 -11.68009189 -5.26749242 0 0 Z " fill="#E6EDFC" transform="translate(90,21)"/>
<path d="M0 0 C2 1 2 1 2.6328125 2.84765625 C2.79523438 3.57855469 2.95765625 4.30945312 3.125 5.0625 C3.29257813 5.79597656 3.46015625 6.52945313 3.6328125 7.28515625 C3.75398438 7.85105469 3.87515625 8.41695312 4 9 C4 8.34 4 7.68 4 7 C8.62 7 13.24 7 18 7 C17.67 9.97 17.34 12.94 17 16 C16.67 16 16.34 16 16 16 C15.505 13.525 15.505 13.525 15 11 C12.03 10.67 9.06 10.34 6 10 C6.09539062 11.26457031 6.19078125 12.52914062 6.2890625 13.83203125 C6.40161285 15.49214887 6.51356068 17.15230742 6.625 18.8125 C6.68945312 19.64587891 6.75390625 20.47925781 6.8203125 21.33789062 C6.871875 22.14033203 6.9234375 22.94277344 6.9765625 23.76953125 C7.02893066 24.50792236 7.08129883 25.24631348 7.13525391 26.00708008 C7 28 7 28 5 31 C4.87079454 33.54498036 4.87079454 33.54498036 5.0625 36.3125 C5.16813574 40.99775566 4.60895554 43.97786021 2 48 C-5.93696746 47.34605121 -13.62397412 45.72048427 -21.39355469 44.04370117 C-23.62586952 43.56231249 -25.85965092 43.08826566 -28.09375 42.61523438 C-34.45896705 41.25612573 -40.7571566 39.84504885 -47 38 C-46.4946875 39.01320312 -45.989375 40.02640625 -45.46875 41.0703125 C-44.81188556 42.42157649 -44.15566971 43.77315589 -43.5 45.125 C-42.99919922 46.12273437 -42.99919922 46.12273437 -42.48828125 47.140625 C-42.17246094 47.79804687 -41.85664062 48.45546875 -41.53125 49.1328125 C-41.23798828 49.72980957 -40.94472656 50.32680664 -40.64257812 50.94189453 C-39.79107925 53.66914968 -39.90153662 56.16214466 -40 59 C-38.77369873 58.97381592 -37.54739746 58.94763184 -36.28393555 58.9206543 C-31.73871064 58.8302255 -27.19356534 58.77277752 -22.64770508 58.7253418 C-20.67947016 58.70018086 -18.71132883 58.66604836 -16.7434082 58.62280273 C-13.91594381 58.5622193 -11.08971318 58.53380693 -8.26171875 58.51171875 C-7.38037766 58.48591232 -6.49903656 58.4601059 -5.59098816 58.43351746 C-4.3600518 58.43295097 -4.3600518 58.43295097 -3.10424805 58.43237305 C-2.38254929 58.42126999 -1.66085052 58.41016693 -0.9172821 58.39872742 C1 59 1 59 4 64 C-18.44 64 -40.88 64 -64 64 C-64 62.68 -64 61.36 -64 60 C-62.02 60 -60.04 60 -58 60 C-58.23360662 53.51741626 -58.93995568 47.67266904 -61 41.5 C-63.24137355 34.6940774 -65.23963442 27.2845617 -63.1953125 20.21875 C-62 18 -62 18 -59 17 C-59.01160156 16.28972656 -59.02320313 15.57945313 -59.03515625 14.84765625 C-59.04869141 13.46900391 -59.04869141 13.46900391 -59.0625 12.0625 C-59.07410156 11.14597656 -59.08570313 10.22945312 -59.09765625 9.28515625 C-59 7 -59 7 -58 6 C-55.00169774 5.90119275 -52.02227781 5.86284261 -49.0234375 5.859375 C-47.13540494 5.84101259 -45.24738384 5.82143924 -43.359375 5.80078125 C-40.38880573 5.77208715 -37.41895795 5.75000733 -34.44824219 5.74951172 C-23.087081 5.73609151 -13.30661795 5.23515922 -2.68994141 0.96972656 C-1.35842041 0.48971191 -1.35842041 0.48971191 0 0 Z " fill="#4A4DF3" transform="translate(79,38)"/>
<path d="M0 0 C2.97 0 5.94 0 9 0 C9.25394531 0.62648437 9.50789063 1.25296875 9.76953125 1.8984375 C10.11371094 2.71570312 10.45789063 3.53296875 10.8125 4.375 C11.14894531 5.18710937 11.48539062 5.99921875 11.83203125 6.8359375 C12.94439082 9.30147458 12.94439082 9.30147458 16 11 C19.4103976 11.21314985 21.74531799 11.084894 25 10 C25 13.96 25 17.92 25 22 C23.515 21.505 23.515 21.505 22 21 C20.04322445 20.84245296 20.04322445 20.84245296 18 20.875 C17.319375 20.87242188 16.63875 20.86984375 15.9375 20.8671875 C13.78125219 20.93368874 13.78125219 20.93368874 11 22 C11 25.96 11 29.92 11 34 C11.66 34 12.32 34 13 34 C13 34.66 13 35.32 13 36 C18.94 35.505 18.94 35.505 25 35 C25 39.95 25 44.9 25 50 C26.65 50 28.3 50 30 50 C30 51.65 30 53.3 30 55 C28.865625 55.01417969 27.73125 55.02835938 26.5625 55.04296875 C16.02235062 55.14061163 16.02235062 55.14061163 6.78125 59.6640625 C-1.46253648 65.84690236 -14.01302527 67.81711913 -24.13818359 66.78125 C-32.89929272 65.34185191 -44.61258021 62.38741979 -51 56 C-52.48638992 55.84344973 -53.97949127 55.74933057 -55.47265625 55.68359375 C-56.82133789 55.62075195 -56.82133789 55.62075195 -58.19726562 55.55664062 C-59.14279297 55.51732422 -60.08832031 55.47800781 -61.0625 55.4375 C-62.01189453 55.39431641 -62.96128906 55.35113281 -63.93945312 55.30664062 C-66.29281353 55.20020724 -68.64628354 55.09818992 -71 55 C-71 53.35 -71 51.7 -71 50 C-70.67 51.32 -70.34 52.64 -70 54 C-47.89 53.67 -25.78 53.34 -3 53 C-3.99 51.02 -3.99 51.02 -5 49 C-18.53 49 -32.06 49 -46 49 C-46.66 46.36 -47.32 43.72 -48 41 C-48.99736873 38.84366355 -50.05680121 36.71450987 -51.1875 34.625 C-52.18428406 32.78083277 -53.13852454 30.91112304 -54 29 C-53.67 28.34 -53.34 27.68 -53 27 C-52.30664551 27.16081055 -51.61329102 27.32162109 -50.89892578 27.48730469 C-44.06156894 29.07202519 -37.22264765 30.64981308 -30.38232422 32.22167969 C-28.28199492 32.70499496 -26.18199562 33.18974963 -24.08251953 33.67675781 C-21.61865523 34.24796984 -19.15337498 34.81254291 -16.6875 35.375 C-15.97287598 35.54225586 -15.25825195 35.70951172 -14.52197266 35.88183594 C-10.95067828 36.68856505 -7.66363883 37.18424489 -4 37 C-2.14361868 33.07694416 -1.82845155 30.12801575 -2 25.8125 C-2.125 22.64453125 -2.125 22.64453125 -2 20 C-1.34 19.34 -0.68 18.68 0 18 C0.27654388 16.06318864 0.27654388 16.06318864 0.1953125 13.8671875 C0.18886719 13.06152344 0.18242188 12.25585938 0.17578125 11.42578125 C0.15902344 10.58402344 0.14226562 9.74226563 0.125 8.875 C0.11597656 8.02550781 0.10695313 7.17601562 0.09765625 6.30078125 C0.07405647 4.20040116 0.03818483 2.10016556 0 0 Z " fill="#FC756A" transform="translate(85,48)"/>
<path d="M0 0 C1.26908203 -0.00128906 2.53816406 -0.00257812 3.84570312 -0.00390625 C4.51239014 -0.00181152 5.17907715 0.0002832 5.8659668 0.00244141 C7.86962305 0.0077262 9.87329861 0.00200133 11.87695312 -0.00390625 C18.28872077 0.00256048 24.5045378 0.11593537 30.83984375 1.1328125 C30.83984375 1.4628125 30.83984375 1.7928125 30.83984375 2.1328125 C19.28984375 2.1328125 7.73984375 2.1328125 -4.16015625 2.1328125 C-4.49015625 5.1028125 -4.82015625 8.0728125 -5.16015625 11.1328125 C-2.85015625 11.1328125 -0.54015625 11.1328125 1.83984375 11.1328125 C3.60748443 14.66809387 2.7927886 18.78962754 2.6796875 22.67578125 C3.01625981 29.94081771 5.99530981 35.74133164 9.44921875 41.97070312 C11.545808 45.93924707 11.9851053 48.6984512 11.83984375 53.1328125 C13.06614502 53.10662842 14.29244629 53.08044434 15.5559082 53.0534668 C20.10113311 52.963038 24.64627841 52.90559002 29.19213867 52.8581543 C31.16037359 52.83299336 33.12851492 52.79886086 35.09643555 52.75561523 C37.92389994 52.6950318 40.75013057 52.66661943 43.578125 52.64453125 C44.45946609 52.61872482 45.34080719 52.5929184 46.24885559 52.56632996 C47.47979195 52.56576347 47.47979195 52.56576347 48.7355957 52.56518555 C49.45729446 52.55408249 50.17899323 52.54297943 50.92256165 52.53153992 C52.83984375 53.1328125 52.83984375 53.1328125 55.83984375 58.1328125 C33.39984375 58.1328125 10.95984375 58.1328125 -12.16015625 58.1328125 C-12.16015625 56.8128125 -12.16015625 55.4928125 -12.16015625 54.1328125 C-10.18015625 54.1328125 -8.20015625 54.1328125 -6.16015625 54.1328125 C-6.39376287 47.65022876 -7.10011193 41.80548154 -9.16015625 35.6328125 C-11.4015298 28.8268899 -13.39979067 21.4173742 -11.35546875 14.3515625 C-10.16015625 12.1328125 -10.16015625 12.1328125 -7.16015625 11.1328125 C-7.17175781 10.42253906 -7.18335938 9.71226563 -7.1953125 8.98046875 C-7.20884766 7.60181641 -7.20884766 7.60181641 -7.22265625 6.1953125 C-7.23425781 5.27878906 -7.24585938 4.36226562 -7.2578125 3.41796875 C-7.06038658 -1.2017978 -3.93034095 0.00382568 0 0 Z " fill="#1A0C7C" transform="translate(27.16015625,43.8671875)"/>
<path d="M0 0 C2.4375 1 2.4375 1 4 3 C5.39640455 7.87190034 5.31299888 10.37400224 3 15 C9.27 15.33 15.54 15.66 22 16 C22.33 14.68 22.66 13.36 23 12 C23 13.65 23 15.3 23 17 C21.865625 17.01417969 20.73125 17.02835938 19.5625 17.04296875 C9.02235062 17.14061163 9.02235062 17.14061163 -0.21875 21.6640625 C-8.46253648 27.84690236 -21.01302527 29.81711913 -31.13818359 28.78125 C-39.89929272 27.34185191 -51.61258021 24.38741979 -58 18 C-59.48638992 17.84344973 -60.97949127 17.74933057 -62.47265625 17.68359375 C-63.37177734 17.64169922 -64.27089844 17.59980469 -65.19726562 17.55664062 C-66.14279297 17.51732422 -67.08832031 17.47800781 -68.0625 17.4375 C-69.4865918 17.37272461 -69.4865918 17.37272461 -70.93945312 17.30664062 C-73.29281353 17.20020724 -75.64628354 17.09818992 -78 17 C-78 15.35 -78 13.7 -78 12 C-77.67 13.32 -77.34 14.64 -77 16 C-54.89 15.67 -32.78 15.34 -10 15 C-10.99 14.01 -10.99 14.01 -12 13 C-12.3359375 10.72265625 -12.3359375 10.72265625 -12.375 8.0625 C-12.40335937 7.18722656 -12.43171875 6.31195313 -12.4609375 5.41015625 C-12 3 -12 3 -10.2265625 1.20703125 C-6.77263184 -0.66536274 -3.82728895 -0.55012367 0 0 Z " fill="#E3E9FC" transform="translate(92,86)"/>
<path d="M0 0 C1.59412284 3.18824568 1.10174735 6.62896662 1.0625 10.125 C1.05798828 10.87910156 1.05347656 11.63320312 1.04882812 12.41015625 C1.03703499 14.27347127 1.01909942 16.13674555 1 18 C2.98 18 4.96 18 7 18 C7 18.66 7 19.32 7 20 C5.7625 20.12375 4.525 20.2475 3.25 20.375 C0.1237803 20.75746305 -2.28879237 21.30549523 -5 23 C-5 25.64 -5 28.28 -5 31 C-18.53 31 -32.06 31 -46 31 C-46.66 28.36 -47.32 25.72 -48 23 C-48.99736873 20.84366355 -50.05680121 18.71450987 -51.1875 16.625 C-52.18428406 14.78083277 -53.13852454 12.91112304 -54 11 C-53.67 10.34 -53.34 9.68 -53 9 C-52.30664551 9.16081055 -51.61329102 9.32162109 -50.89892578 9.48730469 C-44.06156894 11.07202519 -37.22264765 12.64981308 -30.38232422 14.22167969 C-28.28199492 14.70499496 -26.18199562 15.18974963 -24.08251953 15.67675781 C-21.61865523 16.24796984 -19.15337498 16.81254291 -16.6875 17.375 C-15.97287598 17.54225586 -15.25825195 17.70951172 -14.52197266 17.88183594 C-10.95067828 18.68856505 -7.66363883 19.18424489 -4 19 C-2.14361868 15.07694416 -1.82845155 12.12801575 -2 7.8125 C-2.125 4.64453125 -2.125 4.64453125 -2 2 C-1.34 1.34 -0.68 0.68 0 0 Z " fill="#FB837E" transform="translate(85,66)"/>
<path d="M0 0 C5.24118832 5.16889607 5.05543886 14.50876983 5.25 21.5 C5.05242809 29.12063087 4.08624172 36.99760281 1 44 C0.67 42.68 0.34 41.36 0 40 C-1.485 40.495 -1.485 40.495 -3 41 C-4.56118428 41.06740865 -6.1250252 41.08514456 -7.6875 41.0625 C-8.89986328 41.04896484 -8.89986328 41.04896484 -10.13671875 41.03515625 C-10.75160156 41.02355469 -11.36648437 41.01195312 -12 41 C-12 40.34 -12 39.68 -12 39 C-12.66 39 -13.32 39 -14 39 C-14.08082094 37.04233719 -14.13910778 35.08373272 -14.1875 33.125 C-14.22230469 32.03445312 -14.25710937 30.94390625 -14.29296875 29.8203125 C-14.19628906 28.88960937 -14.09960938 27.95890625 -14 27 C-11.00261059 25.00174039 -10.36652492 24.72449602 -7 24.75 C-5.9790625 24.74226563 -5.9790625 24.74226563 -4.9375 24.734375 C-3 25 -3 25 0 27 C-0.33 23.37 -0.66 19.74 -1 16 C-1.66 16.33 -2.32 16.66 -3 17 C-6.57953446 17.39772605 -8.60701525 17.18794923 -11.875 15.625 C-14.68314621 12.1561135 -14.72459365 9.72884367 -14.47265625 5.35546875 C-14 3 -14 3 -12.0625 0.3125 C-7.94214659 -1.45336575 -4.24766844 -1.52725157 0 0 Z " fill="#C6CEEE" transform="translate(110,43)"/>
<path d="M0 0 C3.50292265 0.98139142 5.02979297 3.65496235 6.91015625 6.53515625 C7.51214844 7.34339844 8.11414063 8.15164062 8.734375 8.984375 C14.217949 16.4255738 14.217949 16.4255738 14.91015625 21.53515625 C12.92447917 21.47005208 10.93880208 21.40494792 8.953125 21.33984375 C6.59655906 21.40261163 6.59655906 21.40261163 3.91015625 23.53515625 C1.30770127 23.6773669 -1.18102059 23.72318557 -3.77734375 23.66015625 C-4.47923828 23.65113281 -5.18113281 23.64210938 -5.90429688 23.6328125 C-7.632959 23.60929329 -9.3614452 23.57342338 -11.08984375 23.53515625 C-10.75984375 24.19515625 -10.42984375 24.85515625 -10.08984375 25.53515625 C-9.95568903 28.20751835 -10.04665834 30.85766113 -10.08984375 33.53515625 C-10.41984375 33.53515625 -10.74984375 33.53515625 -11.08984375 33.53515625 C-11.39728516 31.85486328 -11.39728516 31.85486328 -11.7109375 30.140625 C-11.98296064 28.66794801 -12.25510224 27.19529289 -12.52734375 25.72265625 C-12.66205078 24.98466797 -12.79675781 24.24667969 -12.93554688 23.48632812 C-13.50404112 20.42200549 -14.10294026 17.49586672 -15.08984375 14.53515625 C-12.88194383 6.87919159 -8.85501763 -0.64550596 0 0 Z " fill="#EBEBF6" transform="translate(94.08984375,21.46484375)"/>
<path d="M0 0 C2.4375 1 2.4375 1 4 3 C5.39640455 7.87190034 5.31299888 10.37400224 3 15 C9.27 15.33 15.54 15.66 22 16 C22.33 14.68 22.66 13.36 23 12 C23 13.65 23 15.3 23 17 C-10.33 17 -43.66 17 -78 17 C-78 15.35 -78 13.7 -78 12 C-77.67 13.32 -77.34 14.64 -77 16 C-54.89 15.67 -32.78 15.34 -10 15 C-10.99 14.01 -10.99 14.01 -12 13 C-12.3359375 10.72265625 -12.3359375 10.72265625 -12.375 8.0625 C-12.40335937 7.18722656 -12.43171875 6.31195313 -12.4609375 5.41015625 C-12 3 -12 3 -10.2265625 1.20703125 C-6.77263184 -0.66536274 -3.82728895 -0.55012367 0 0 Z " fill="#9C98D1" transform="translate(92,86)"/>
<path d="M0 0 C0.33 0 0.66 0 1 0 C1 3.63 1 7.26 1 11 C1.66 11 2.32 11 3 11 C3 11.66 3 12.32 3 13 C8.94 12.505 8.94 12.505 15 12 C15 16.95 15 21.9 15 27 C16.32 27 17.64 27 19 27 C19 28.32 19 29.64 19 31 C12.4 31 5.8 31 -1 31 C-0.34 29.35 0.32 27.7 1 26 C1.10976117 23.09916901 0.61653104 20.89295333 0 18 C-0.99 17.34 -1.98 16.68 -3 16 C-3 15.34 -3 14.68 -3 14 C-2.34 13.67 -1.68 13.34 -1 13 C-1.01160156 12.14535156 -1.02320312 11.29070312 -1.03515625 10.41015625 C-1.04417969 9.30542969 -1.05320312 8.20070313 -1.0625 7.0625 C-1.07410156 5.96035156 -1.08570312 4.85820313 -1.09765625 3.72265625 C-1 1 -1 1 0 0 Z " fill="#C589A2" transform="translate(95,71)"/>
<path d="M0 0 C0.66 0 1.32 0 2 0 C2.66 2.31 3.32 4.62 4 7 C4 6.34 4 5.68 4 5 C8.62 5 13.24 5 18 5 C17.67 7.97 17.34 10.94 17 14 C16.67 14 16.34 14 16 14 C15.67 12.35 15.34 10.7 15 9 C12.03 8.67 9.06 8.34 6 8 C6.10699219 9.26457031 6.21398437 10.52914062 6.32421875 11.83203125 C6.44614665 13.49212645 6.56719467 15.15228643 6.6875 16.8125 C6.76033203 17.64587891 6.83316406 18.47925781 6.90820312 19.33789062 C6.96298828 20.14033203 7.01777344 20.94277344 7.07421875 21.76953125 C7.13182373 22.50792236 7.18942871 23.24631348 7.2487793 24.00708008 C7 26 7 26 5.72583008 27.75268555 C2.97543878 29.74048427 0.27745373 29.18551625 -3 29 C-3.58890469 7.17780939 -3.58890469 7.17780939 0 0 Z " fill="#4A51E1" transform="translate(79,40)"/>
<path d="M0 0 C2.92371307 2.30353151 2.9669218 3.74009988 3.4375 7.4375 C2.93235165 11.55085087 1.89538484 13.10461516 -1 16 C-3.85324437 17.42662219 -5.83454549 17.31033868 -9 17 C-11.875 15.625 -11.875 15.625 -14 13 C-14.71463817 9.53054695 -14.69657277 6.47135026 -14 3 C-10.34559214 -2.06901736 -5.54760681 -1.64611069 0 0 Z " fill="#DBCEE6" transform="translate(110,43)"/>
<path d="M0 0 C2.97 0.33 5.94 0.66 9 1 C9.268125 1.78375 9.53625 2.5675 9.8125 3.375 C10.84814432 6.28114923 10.84814432 6.28114923 14 8 C13.34 10.31 12.68 12.62 12 15 C3.75 15 -4.5 15 -13 15 C-13 14.67 -13 14.34 -13 14 C-11.02 13.67 -9.04 13.34 -7 13 C-6.67 10.03 -6.34 7.06 -6 4 C-4.02 3.34 -2.04 2.68 0 2 C0 1.34 0 0.68 0 0 Z " fill="#96B6F8" transform="translate(35,29)"/>
<path d="M0 0 C3.3 0.33 6.6 0.66 10 1 C10.33 1.99 10.66 2.98 11 4 C7.7 4 4.4 4 1 4 C1 4.66 1 5.32 1 6 C3.64 6.33 6.28 6.66 9 7 C9 7.33 9 7.66 9 8 C6.03 8 3.06 8 0 8 C1.00836062 9.23267348 1.00836062 9.23267348 3.06640625 9.09765625 C3.89011719 9.08605469 4.71382812 9.07445313 5.5625 9.0625 C6.38878906 9.05347656 7.21507812 9.04445313 8.06640625 9.03515625 C8.70449219 9.02355469 9.34257812 9.01195313 10 9 C10.33 9.99 10.66 10.98 11 12 C8.69 12.33 6.38 12.66 4 13 C6.31 13.33 8.62 13.66 11 14 C11 14.99 11 15.98 11 17 C8.36 17 5.72 17 3 17 C3.66 20.3 4.32 23.6 5 27 C5.66 26.01 6.32 25.02 7 24 C10 28.625 10 28.625 10 32 C9.34 32 8.68 32 8 32 C8.66 34.97 9.32 37.94 10 41 C7.03 41.495 7.03 41.495 4 42 C3.97421875 41.28457031 3.9484375 40.56914063 3.921875 39.83203125 C3.59397076 34.07134995 2.83043231 28.98466494 1 23.5 C-1.57804715 15.67176923 -3.61554973 7.73559478 0 0 Z " fill="#5651B5" transform="translate(17,56)"/>
<path d="M0 0 C1.59412284 3.18824568 1.10174735 6.62896662 1.0625 10.125 C1.05798828 10.87910156 1.05347656 11.63320312 1.04882812 12.41015625 C1.03703499 14.27347127 1.01909942 16.13674555 1 18 C2.98 18 4.96 18 7 18 C7 18.66 7 19.32 7 20 C5.7625 20.12375 4.525 20.2475 3.25 20.375 C0.1237803 20.75746305 -2.28879237 21.30549523 -5 23 C-5 25.64 -5 28.28 -5 31 C-18.53 31 -32.06 31 -46 31 C-46.66 28.36 -47.32 25.72 -48 23 C-48.99736873 20.84366355 -50.05680121 18.71450987 -51.1875 16.625 C-52.18428406 14.78083277 -53.13852454 12.91112304 -54 11 C-53.67 10.34 -53.34 9.68 -53 9 C-50.69 9.66 -48.38 10.32 -46 11 C-47.98 11.99 -47.98 11.99 -50 13 C-49.22969878 16.48809191 -49.22969878 16.48809191 -48 20 C-47.01 20.33 -46.02 20.66 -45 21 C-44.67 23.64 -44.34 26.28 -44 29 C-31.79 29 -19.58 29 -7 29 C-7 26.69 -7 24.38 -7 22 C-11.62 21.01 -16.24 20.02 -21 19 C-21 18.34 -21 17.68 -21 17 C-19.2984375 17.2165625 -19.2984375 17.2165625 -17.5625 17.4375 C-13.04646944 18.00301367 -8.52452819 18.50774809 -4 19 C-2.14361868 15.07694416 -1.82845155 12.12801575 -2 7.8125 C-2.125 4.64453125 -2.125 4.64453125 -2 2 C-1.34 1.34 -0.68 0.68 0 0 Z " fill="#D07A8F" transform="translate(85,66)"/>
<path d="M0 0 C0.74693115 0.00451172 1.4938623 0.00902344 2.26342773 0.01367188 C3.02131592 0.01560547 3.7792041 0.01753906 4.56005859 0.01953125 C11.59469069 0.07246191 18.5679853 0.51673087 25.57592773 1.13867188 C21.85248839 4.45392669 17.60032014 5.78273777 12.95092773 7.32617188 C12.14929199 7.59445801 11.34765625 7.86274414 10.52172852 8.13916016 C4.67552203 10.00119761 -0.26598493 10.73461581 -6.42407227 10.13867188 C-6.45096443 8.65960296 -6.47041848 7.18039705 -6.48657227 5.70117188 C-6.49817383 4.87746094 -6.50977539 4.05375 -6.52172852 3.20507812 C-6.3224082 -1.01253979 -3.57288126 0.00996967 0 0 Z " fill="#C97399" transform="translate(28.424072265625,44.861328125)"/>
<path d="M0 0 C1.26908203 -0.00128906 2.53816406 -0.00257812 3.84570312 -0.00390625 C4.51239014 -0.00181152 5.17907715 0.0002832 5.8659668 0.00244141 C7.86962305 0.0077262 9.87329861 0.00200133 11.87695312 -0.00390625 C18.28872077 0.00256048 24.5045378 0.11593537 30.83984375 1.1328125 C30.83984375 1.4628125 30.83984375 1.7928125 30.83984375 2.1328125 C19.28984375 2.1328125 7.73984375 2.1328125 -4.16015625 2.1328125 C-4.49015625 5.1028125 -4.82015625 8.0728125 -5.16015625 11.1328125 C-2.85015625 11.1328125 -0.54015625 11.1328125 1.83984375 11.1328125 C3.01410639 13.48133778 2.95492548 14.87055315 2.9375 17.484375 C2.93427734 18.33515625 2.93105469 19.1859375 2.92773438 20.0625 C2.91935547 20.95195313 2.91097656 21.84140625 2.90234375 22.7578125 C2.89783203 23.655 2.89332031 24.5521875 2.88867188 25.4765625 C2.87686966 27.69537898 2.8604053 29.91406268 2.83984375 32.1328125 C0.52984375 32.1328125 -1.78015625 32.1328125 -4.16015625 32.1328125 C-4.49015625 32.7928125 -4.82015625 33.4528125 -5.16015625 34.1328125 C-5.82015625 32.4828125 -6.48015625 30.8328125 -7.16015625 29.1328125 C-3.20015625 28.6378125 -3.20015625 28.6378125 0.83984375 28.1328125 C0.83984375 27.8028125 0.83984375 27.4728125 0.83984375 27.1328125 C-0.29453125 27.0090625 -1.42890625 26.8853125 -2.59765625 26.7578125 C-3.77328125 26.5515625 -4.94890625 26.3453125 -6.16015625 26.1328125 C-6.49015625 25.4728125 -6.82015625 24.8128125 -7.16015625 24.1328125 C-4.52015625 24.1328125 -1.88015625 24.1328125 0.83984375 24.1328125 C0.50984375 23.4728125 0.17984375 22.8128125 -0.16015625 22.1328125 C-3.46015625 22.1328125 -6.76015625 22.1328125 -10.16015625 22.1328125 C-10.16015625 19.02023681 -9.98654001 17.02515565 -9.16015625 14.1328125 C-9.16015625 14.7928125 -9.16015625 15.4528125 -9.16015625 16.1328125 C-5.86015625 16.1328125 -2.56015625 16.1328125 0.83984375 16.1328125 C0.50984375 15.4728125 0.17984375 14.8128125 -0.16015625 14.1328125 C-2.28592407 13.66630043 -2.28592407 13.66630043 -4.72265625 13.5078125 C-5.54894531 13.43304688 -6.37523437 13.35828125 -7.2265625 13.28125 C-7.86464844 13.23226562 -8.50273437 13.18328125 -9.16015625 13.1328125 C-9.16015625 12.4728125 -9.16015625 11.8128125 -9.16015625 11.1328125 C-8.50015625 11.1328125 -7.84015625 11.1328125 -7.16015625 11.1328125 C-7.17175781 10.42253906 -7.18335938 9.71226563 -7.1953125 8.98046875 C-7.20884766 7.60181641 -7.20884766 7.60181641 -7.22265625 6.1953125 C-7.23425781 5.27878906 -7.24585938 4.36226562 -7.2578125 3.41796875 C-7.06038658 -1.2017978 -3.93034095 0.00382568 0 0 Z " fill="#2C1C82" transform="translate(27.16015625,43.8671875)"/>
<path d="M0 0 C1.33333333 1.66666667 2.66666667 3.33333333 4 5 C4.721875 5.825 5.44375 6.65 6.1875 7.5 C8.07589735 10.10468601 8.63868071 11.8384562 9 15 C7.01432292 14.93489583 5.02864583 14.86979167 3.04296875 14.8046875 C0.68640281 14.86745538 0.68640281 14.86745538 -2 17 C-4.60245498 17.14221065 -7.09117684 17.18802932 -9.6875 17.125 C-10.38939453 17.11597656 -11.09128906 17.10695313 -11.81445312 17.09765625 C-13.54311525 17.07413704 -15.27160145 17.03826713 -17 17 C-18.125 10.25 -18.125 10.25 -17 8 C-13.125 9.875 -13.125 9.875 -12 11 C-8.20526019 11.35799432 -5.86342719 11.56804421 -2.625 9.4375 C-0.5476514 6.3214771 -0.28425891 3.69536586 0 0 Z " fill="#E2EAFC" transform="translate(100,28)"/>
<path d="M0 0 C0.66 0.66 1.32 1.32 2 2 C1.34 2 0.68 2 0 2 C-1.39476293 11.66855081 -2.42878014 21.24416608 -3 31 C-0.36 31 2.28 31 5 31 C5.55353075 42.52164009 5.55353075 42.52164009 2 48 C0.68 47.67 -0.64 47.34 -2 47 C-3.58130457 42.10488897 -4.24809435 38.01181123 -4.23046875 32.81640625 C-4.23001053 32.15720688 -4.22955231 31.49800751 -4.2290802 30.8188324 C-4.22608073 29.4347858 -4.21826439 28.05074187 -4.20581055 26.66674805 C-4.18757681 24.57132728 -4.18530124 22.47635123 -4.18554688 20.38085938 C-4.16777563 13.85065676 -4.04128718 7.45598051 -3 1 C-2.01 0.67 -1.02 0.34 0 0 Z " fill="#979BF3" transform="translate(79,38)"/>
<path d="M0 0 C2.375 1 2.375 1 4 3 C4.45352711 6.17468977 4.69511624 7.98984447 4 11 C1.875 13.5625 1.875 13.5625 -1 15 C-4.50732933 15 -6.2434698 14.6345092 -8.9375 12.375 C-10.48427533 8.9175022 -9.92030612 6.61548831 -9 3 C-6.74390939 -0.68098995 -4.06983707 -0.4983474 0 0 Z " fill="#E6E0F3" transform="translate(91,87)"/>
<path d="M0 0 C2.5 1.4375 2.5 1.4375 4 4 C4.61386359 7.13362747 4.63525328 9.86831277 4 13 C1.9375 16.0625 1.9375 16.0625 -1 18 C-4.5 18.5625 -4.5 18.5625 -8 18 C-9.65 16.68 -11.3 15.36 -13 14 C-12.67 20.27 -12.34 26.54 -12 33 C-12.33 33 -12.66 33 -13 33 C-13.30744141 31.31970703 -13.30744141 31.31970703 -13.62109375 29.60546875 C-13.89311689 28.13279176 -14.16525849 26.66013664 -14.4375 25.1875 C-14.57220703 24.44951172 -14.70691406 23.71152344 -14.84570312 22.95117188 C-15.41419737 19.88684924 -16.01309651 16.96071047 -17 14 C-14.37054911 4.88229366 -9.99903583 -1.42843369 0 0 Z M-10.4375 3.625 C-12.47161336 6.71685231 -12.60605429 8.36367425 -12 12 C-10.5 14.5 -10.5 14.5 -8 16 C-4.68876368 16.48288863 -2.703451 16.29618989 0.375 15 C2.57713531 12.28967961 2.51345108 10.29116834 2.3125 6.875 C2.08658068 4.90746453 2.08658068 4.90746453 0.9375 3 C-3.06726235 0.93302588 -6.73106838 1.15404559 -10.4375 3.625 Z " fill="#A3B6E4" transform="translate(96,22)"/>
<path d="M0 0 C0 0.66 0 1.32 0 2 C1.32 2 2.64 2 4 2 C4.33 2.99 4.66 3.98 5 5 C5.66 5.66 6.32 6.32 7 7 C6.34 8.98 5.68 10.96 5 13 C1.33694766 13.74926071 -1.42355152 14.2380014 -5 13 C-5 12.01 -5 11.02 -5 10 C-5.66 10 -6.32 10 -7 10 C-6.51020408 3.51020408 -6.51020408 3.51020408 -4.0625 1.0625 C-2 0 -2 0 0 0 Z " fill="#9FBAF4" transform="translate(56,25)"/>
<path d="M0 0 C-2 3 -2 3 -5.5625 4.5 C-7.2640625 5.2425 -7.2640625 5.2425 -9 6 C-9.33 6.99 -9.66 7.98 -10 9 C-10.825 9.268125 -11.65 9.53625 -12.5 9.8125 C-13.325 10.204375 -14.15 10.59625 -15 11 C-15.83557723 13.93008319 -15.83557723 13.93008319 -16 17 C-16.33 17.99 -16.66 18.98 -17 20 C-16.34 20.33 -15.68 20.66 -15 21 C-17.31 21 -19.62 21 -22 21 C-21.72986927 14.92205857 -21.02699406 10.83239287 -17 6 C-14.00772663 3.44641879 -11.06463413 2.08264413 -7.375 0.75 C-6.41335937 0.39421875 -5.45171875 0.0384375 -4.4609375 -0.328125 C-2 -1 -2 -1 0 0 Z " fill="#F5F8FC" transform="translate(45,22)"/>
<path d="M0 0 C1.65 0.33 3.3 0.66 5 1 C5.33 4.3 5.66 7.6 6 11 C5.01 11.495 5.01 11.495 4 12 C6.97 12.495 6.97 12.495 10 13 C10 13.33 10 13.66 10 14 C3.4 14 -3.2 14 -10 14 C-10 12.68 -10 11.36 -10 10 C-7.69 10 -5.38 10 -3 10 C-3 7.69 -3 5.38 -3 3 C-2.67 3 -2.34 3 -2 3 C-2 4.98 -2 6.96 -2 9 C-0.68 9 0.64 9 2 9 C1.67 8.2575 1.34 7.515 1 6.75 C0 4 0 4 0 0 Z " fill="#1D0F78" transform="translate(25,88)"/>
<path d="M0 0 C2.97 0 5.94 0 9 0 C9.25394531 0.61488281 9.50789063 1.22976562 9.76953125 1.86328125 C10.11371094 2.67152344 10.45789063 3.47976562 10.8125 4.3125 C11.14894531 5.11300781 11.48539063 5.91351563 11.83203125 6.73828125 C12.98200704 8.96515745 14.13626961 10.34987767 16 12 C14.68 12 13.36 12 12 12 C12 11.34 12 10.68 12 10 C11.34 10 10.68 10 10 10 C10 9.34 10 8.68 10 8 C9.01 8.66 8.02 9.32 7 10 C4.3125 9.625 4.3125 9.625 2 9 C2 11.97 2 14.94 2 18 C1.67 18 1.34 18 1 18 C0.10395632 11.95170514 -0.11269443 6.1105424 0 0 Z " fill="#F5746B" transform="translate(85,48)"/>
<path d="M0 0 C0.33 0 0.66 0 1 0 C1 4.62 1 9.24 1 14 C2.65 14 4.3 14 6 14 C6 15.32 6 16.64 6 18 C-0.6 18 -7.2 18 -14 18 C-13.34 16.35 -12.68 14.7 -12 13 C-8.37 13 -4.74 13 -1 13 C-1.01160156 12.14535156 -1.02320312 11.29070312 -1.03515625 10.41015625 C-1.04417969 9.30542969 -1.05320312 8.20070313 -1.0625 7.0625 C-1.07410156 5.96035156 -1.08570312 4.85820313 -1.09765625 3.72265625 C-1 1 -1 1 0 0 Z " fill="#22106C" transform="translate(108,84)"/>
<path d="M0 0 C0.99 0.495 0.99 0.495 2 1 C2.5775 0.814375 3.155 0.62875 3.75 0.4375 C7.1049327 -0.21484802 8.91650721 0.55534091 12 2 C13.60329661 4.33395023 14.73099804 6.27749567 15.875 8.8125 C16.18179688 9.42931641 16.48859375 10.04613281 16.8046875 10.68164062 C18.50070001 14.24402405 19.37579932 17.05410714 19 21 C16.81024227 17.71536341 16.00193437 14.79303725 15 11 C14.34 11 13.68 11 13 11 C12.34 9.02 11.68 7.04 11 5 C10.01 7.31 9.02 9.62 8 12 C7.525625 11.34 7.05125 10.68 6.5625 10 C6.046875 9.34 5.53125 8.68 5 8 C4.67 8 4.34 8 4 8 C3.01 8 2.02 8 1 8 C0.67 5.36 0.34 2.72 0 0 Z " fill="#240C67" transform="translate(20,75)"/>
<path d="M0 0 C-3.25185179 2.16790119 -6.1131691 3.14147977 -9.828125 4.34765625 C-10.49535583 4.56441513 -11.16258667 4.78117401 -11.85003662 5.00450134 C-13.26141196 5.4614735 -14.6735635 5.91605428 -16.08642578 6.3684082 C-18.23074804 7.05632382 -20.37128834 7.75516083 -22.51171875 8.45507812 C-23.88780512 8.89910658 -25.26410091 9.34248664 -26.640625 9.78515625 C-27.88360352 10.18613525 -29.12658203 10.58711426 -30.40722656 11.00024414 C-33.98314421 11.99530956 -37.32385749 12.56277168 -41 13 C-41 13.66 -41 14.32 -41 15 C-42.65 14.67 -44.3 14.34 -46 14 C-43.44979397 12.29986265 -41.75125401 11.47175402 -38.91015625 10.5625 C-38.12576172 10.30726562 -37.34136719 10.05203125 -36.53320312 9.7890625 C-35.71787109 9.52867188 -34.90253906 9.26828125 -34.0625 9 C-32.44830032 8.48202012 -30.83498475 7.9612753 -29.22265625 7.4375 C-28.50859619 7.20933594 -27.79453613 6.98117188 -27.05883789 6.74609375 C-24.94259639 5.97919774 -22.99205528 5.0443513 -21 4 C-22.32 3.34 -23.64 2.68 -25 2 C-23.58847656 1.92652344 -23.58847656 1.92652344 -22.1484375 1.8515625 C-20.28058594 1.73941406 -20.28058594 1.73941406 -18.375 1.625 C-17.14523438 1.55539063 -15.91546875 1.48578125 -14.6484375 1.4140625 C-0.60939431 -0.17923362 -0.60939431 -0.17923362 0 0 Z " fill="#6E5DCD" transform="translate(75,42)"/>
<path d="M0 0 C6.75 -0.125 6.75 -0.125 9 1 C11.56845219 1.03037021 14.120762 0.93311185 16.6875 0.83984375 C19 1 19 1 21 3 C23.32817964 3.36760731 25.6618385 3.70241581 28 4 C28.33 4.33 28.66 4.66 29 5 C31.7835375 5.03173414 34.55391063 4.93159925 37.3359375 4.83984375 C40 5 40 5 43 7 C43.33 6.01 43.66 5.02 44 4 C44.66 6.31 45.32 8.62 46 11 C30.57425247 8.01468109 15.25378778 4.76933767 0 1 C0 0.67 0 0.34 0 0 Z " fill="#6D4DC1" transform="translate(32,75)"/>
<path d="M0 0 C6 1 6 1 9 3 C9.37331109 6.42201828 9.63763183 8.90185629 7.875 11.9375 C6 13 6 13 0 13 C0 8.71 0 4.42 0 0 Z " fill="#0B066E" transform="translate(77,56)"/>
<path d="M0 0 C6.93 0 13.86 0 21 0 C20.34 1.32 19.68 2.64 19 4 C15.7 4 12.4 4 9 4 C9.33 4.66 9.66 5.32 10 6 C6.7 6 3.4 6 0 6 C0 4.02 0 2.04 0 0 Z " fill="#FC867D" transform="translate(23,47)"/>
<path d="M0 0 C3.63 0 7.26 0 11 0 C11 2.64 11 5.28 11 8 C7.37 8 3.74 8 0 8 C0 5.36 0 2.72 0 0 Z " fill="#EE8783" transform="translate(99,72)"/>
<path d="M0 0 C0.66 0 1.32 0 2 0 C3.72066915 8.38826211 2.98654328 16.5615316 2 25 C1.67 25 1.34 25 1 25 C0.690625 23.865625 0.38125 22.73125 0.0625 21.5625 C-0.62924531 18.21224901 -0.62924531 18.21224901 -2 17 C-2.12586907 14.7109392 -2.17577971 12.41748882 -2.1875 10.125 C-2.20167969 8.86945312 -2.21585937 7.61390625 -2.23046875 6.3203125 C-2 3 -2 3 0 0 Z " fill="#E2E9FD" transform="translate(112,54)"/>
<path d="M0 0 C4.70588235 0.70588235 4.70588235 0.70588235 6 2 C6.41935884 6.61294726 5.82918336 9.30029868 3 13 C2.34 13 1.68 13 1 13 C-2.06499261 6.74741507 -2.06499261 6.74741507 -1.75 3.125 C-1 1 -1 1 0 0 Z " fill="#EBA3A2" transform="translate(86,88)"/>
<path d="M0 0 C0.99 0 1.98 0 3 0 C3 0.66 3 1.32 3 2 C5.31 2 7.62 2 10 2 C10 4.64 10 7.28 10 10 C7.69 10 5.38 10 3 10 C3 8.68 3 7.36 3 6 C2.34 6 1.68 6 1 6 C1 5.01 1 4.02 1 3 C0.34 3 -0.32 3 -1 3 C-0.67 2.01 -0.34 1.02 0 0 Z " fill="#FB756C" transform="translate(96,85)"/>
<path d="M0 0 C1.98 0 3.96 0 6 0 C6.37952295 6.19887485 5.8352113 10.4477112 3 16 C0.92587831 11.99003141 -0.12820363 8.84605023 -0.0625 4.3125 C-0.05347656 3.50425781 -0.04445313 2.69601563 -0.03515625 1.86328125 C-0.02355469 1.24839844 -0.01195313 0.63351563 0 0 Z " fill="#5155E7" transform="translate(77,69)"/>
<path d="M0 0 C2 2 2 2 2 8 C-5.92 8 -13.84 8 -22 8 C-22 7.67 -22 7.34 -22 7 C-21.25234375 6.93941406 -20.5046875 6.87882812 -19.734375 6.81640625 C-18.74953125 6.73261719 -17.7646875 6.64882813 -16.75 6.5625 C-15.77546875 6.48128906 -14.8009375 6.40007813 -13.796875 6.31640625 C-11.43538247 6.04925416 -9.28098935 5.64628032 -7 5 C-7 4.34 -7 3.68 -7 3 C-6.01 3.33 -5.02 3.66 -4 4 C-4 3.01 -4 2.02 -4 1 C-2.125 0.375 -2.125 0.375 0 0 Z " fill="#90A6ED" transform="translate(44,36)"/>
<path d="M0 0 C2.89932357 2.39509338 3.50168276 4.31245243 4 8 C3.34 8 2.68 8 2 8 C2.66 10.97 3.32 13.94 4 17 C2.02 17.33 0.04 17.66 -2 18 C-2 13.05 -2 8.1 -2 3 C-1.34 2.67 -0.68 2.34 0 2 C0 1.34 0 0.68 0 0 Z " fill="#41317C" transform="translate(23,80)"/>
<path d="M0 0 C0.93423645 3.01031744 1.04449911 3.86650268 0 7 C0.66 7 1.32 7 2 7 C2 7.99 2 8.98 2 10 C4.31 10.33 6.62 10.66 9 11 C7 14 7 14 4.8359375 14.73046875 C3.61777344 14.95669922 3.61777344 14.95669922 2.375 15.1875 C1.55773438 15.34605469 0.74046875 15.50460938 -0.1015625 15.66796875 C-0.72804687 15.77753906 -1.35453125 15.88710938 -2 16 C-1.67 13.69 -1.34 11.38 -1 9 C-1.99 8.34 -2.98 7.68 -4 7 C-3.67 5.68 -3.34 4.36 -3 3 C-2.67 3.33 -2.34 3.66 -2 4 C-2 3.01 -2 2.02 -2 1 C-1.34 0.67 -0.68 0.34 0 0 Z " fill="#DBE8FD" transform="translate(49,28)"/>
<path d="M0 0 C0 3.96 0 7.92 0 12 C-0.99 11.67 -1.98 11.34 -3 11 C-4.72795352 10.93197033 -6.45835365 10.91504355 -8.1875 10.9375 C-9.08855469 10.94652344 -9.98960938 10.95554687 -10.91796875 10.96484375 C-11.94857422 10.98224609 -11.94857422 10.98224609 -13 11 C-13 10.01 -13 9.02 -13 8 C-10.36 7.67 -7.72 7.34 -5 7 C-4.67 5.68 -4.34 4.36 -4 3 C-5.65 3 -7.3 3 -9 3 C-9 2.67 -9 2.34 -9 2 C-7.68786298 1.66524067 -6.37527913 1.33223233 -5.0625 1 C-3.96615234 0.7215625 -3.96615234 0.7215625 -2.84765625 0.4375 C-1 0 -1 0 0 0 Z " fill="#A05878" transform="translate(110,58)"/>
<path d="M0 0 C0.99 0.33 1.98 0.66 3 1 C4.25 8.5 4.25 8.5 2 13 C8.27 13.33 14.54 13.66 21 14 C21.33 12.68 21.66 11.36 22 10 C22 11.65 22 13.3 22 15 C11.77 15 1.54 15 -9 15 C-8.67 14.34 -8.34 13.68 -8 13 C-5.66752239 12.66073053 -3.33414529 12.32759934 -1 12 C1.16512323 10.24524938 1.16512323 10.24524938 1.23046875 8.125 C1.21628906 7.42375 1.20210937 6.7225 1.1875 6 C1.18105469 5.29875 1.17460938 4.5975 1.16796875 3.875 C1.10706133 1.90943627 1.10706133 1.90943627 0 0 Z " fill="#A5A5D7" transform="translate(93,88)"/>
<path d="M0 0 C1.8871875 0.061875 1.8871875 0.061875 3.8125 0.125 C3.8125 0.455 3.8125 0.785 3.8125 1.125 C1.5025 1.455 -0.8075 1.785 -3.1875 2.125 C-3.5175 5.425 -3.8475 8.725 -4.1875 12.125 C-0.8875 12.125 2.4125 12.125 5.8125 12.125 C5.8125 12.455 5.8125 12.785 5.8125 13.125 C2.5125 13.125 -0.7875 13.125 -4.1875 13.125 C-3.8575 14.115 -3.5275 15.105 -3.1875 16.125 C-3.8475 16.125 -4.5075 16.125 -5.1875 16.125 C-5.1875 15.465 -5.1875 14.805 -5.1875 14.125 C-5.8475 14.125 -6.5075 14.125 -7.1875 14.125 C-7.26832094 12.16733719 -7.32660778 10.20873272 -7.375 8.25 C-7.40980469 7.15945312 -7.44460937 6.06890625 -7.48046875 4.9453125 C-7.38378906 4.01460938 -7.28710938 3.08390625 -7.1875 2.125 C-4.09861478 0.06574319 -3.47814073 -0.1140374 0 0 Z " fill="#D2B2CA" transform="translate(103.1875,67.875)"/>
<path d="M0 0 C1.69141656 0.08963062 3.37959602 0.24577676 5.0625 0.4375 C6.44115234 0.59025391 6.44115234 0.59025391 7.84765625 0.74609375 C8.55792969 0.82988281 9.26820312 0.91367187 10 1 C10.33 1.99 10.66 2.98 11 4 C7.7 4 4.4 4 1 4 C1 4.66 1 5.32 1 6 C3.64 6.33 6.28 6.66 9 7 C9 7.33 9 7.66 9 8 C6.03 8 3.06 8 0 8 C0 9.65 0 11.3 0 13 C-2.00519881 10.16913109 -2.08216415 8.14322623 -1.6875 4.8125 C-1 1 -1 1 0 0 Z " fill="#4245B2" transform="translate(17,56)"/>
<path d="M0 0 C2.97 0 5.94 0 9 0 C9 0.33 9 0.66 9 1 C6.36 1 3.72 1 1 1 C1 2.98 1 4.96 1 7 C6.58500567 6.80101292 6.58500567 6.80101292 11 4 C13.1640625 4.0234375 13.1640625 4.0234375 15.625 4.375 C16.85089844 4.54128906 16.85089844 4.54128906 18.1015625 4.7109375 C19.04128906 4.85402344 19.04128906 4.85402344 20 5 C13.60355623 9.26429585 7.46017494 9.27018742 0 9 C0 6.03 0 3.06 0 0 Z " fill="#E284A0" transform="translate(22,46)"/>
<path d="M0 0 C4.62 0 9.24 0 14 0 C13.67 2.97 13.34 5.94 13 9 C12.67 9 12.34 9 12 9 C11.67 7.35 11.34 5.7 11 4 C8.03 3.67 5.06 3.34 2 3 C2 5.64 2 8.28 2 11 C1.34 10.67 0.68 10.34 0 10 C0 6.7 0 3.4 0 0 Z " fill="#845282" transform="translate(83,45)"/>
<path d="M0 0 C2 3 2 3 1.625 5.1875 C1.41875 5.785625 1.2125 6.38375 1 7 C0.67 5.68 0.34 4.36 0 3 C-1.43410368 2.75045995 -2.87260072 2.52607358 -4.3125 2.3125 C-5.11300781 2.18488281 -5.91351563 2.05726562 -6.73828125 1.92578125 C-9.05523401 1.79325632 -9.05523401 1.79325632 -10.7734375 3.26171875 C-12.77217384 6.0943228 -12.29914233 8.64960592 -12 12 C-11.01 13.485 -11.01 13.485 -10 15 C-11.32 14.34 -12.64 13.68 -14 13 C-14.76736894 4.06441498 -14.76736894 4.06441498 -12.0625 0.3125 C-7.93806466 -1.45511515 -4.27597358 -1.40292257 0 0 Z " fill="#AAB7E5" transform="translate(110,43)"/>
<path d="M0 0 C2.97 0.33 5.94 0.66 9 1 C9.268125 1.78375 9.53625 2.5675 9.8125 3.375 C10.84814432 6.28114923 10.84814432 6.28114923 14 8 C13.34 10.31 12.68 12.62 12 15 C11.67 15 11.34 15 11 15 C10.855625 13.948125 10.71125 12.89625 10.5625 11.8125 C10.12473034 8.84539451 9.62195134 5.93205634 9 3 C8.01 3.495 8.01 3.495 7 4 C5.12620395 4.07033769 3.24998898 4.0843022 1.375 4.0625 C0.37210938 4.05347656 -0.63078125 4.04445313 -1.6640625 4.03515625 C-2.43492188 4.02355469 -3.20578125 4.01195312 -4 4 C-2.68 3.34 -1.36 2.68 0 2 C0 1.34 0 0.68 0 0 Z " fill="#A1B8EF" transform="translate(35,29)"/>
<path d="M0 0 C2.97 0 5.94 0 9 0 C10.35439668 2.70879335 10.06501451 5.00933268 10 8 C7.69 8 5.38 8 3 8 C2.67 8.66 2.34 9.32 2 10 C1.34 8.35 0.68 6.7 0 5 C2.64 4.67 5.28 4.34 8 4 C8 3.67 8 3.34 8 3 C6.865625 2.87625 5.73125 2.7525 4.5625 2.625 C3.386875 2.41875 2.21125 2.2125 1 2 C0.67 1.34 0.34 0.68 0 0 Z " fill="#19128E" transform="translate(20,68)"/>
<path d="M0 0 C0.66 0.99 1.32 1.98 2 3 C-2.455 3.495 -2.455 3.495 -7 4 C-7.66 6.31 -8.32 8.62 -9 11 C-9.66 10.67 -10.32 10.34 -11 10 C-11.31785906 6.50355037 -11.39644605 4.602598 -9.4375 1.625 C-6.11372447 -0.59085036 -3.91105046 -0.50698802 0 0 Z " fill="#E2ECFE" transform="translate(95,24)"/>
<path d="M0 0 C2.64 0.66 5.28 1.32 8 2 C6.02 2.99 6.02 2.99 4 4 C4.77030122 7.48809191 4.77030122 7.48809191 6 11 C6.99 11.33 7.98 11.66 9 12 C9.73046875 14.06640625 9.73046875 14.06640625 10.1875 16.5625 C10.34605469 17.38878906 10.50460938 18.21507813 10.66796875 19.06640625 C10.77753906 19.70449219 10.88710938 20.34257813 11 21 C10.34 21 9.68 21 9 21 C7.49373883 17.87797994 5.99606757 14.75191601 4.5 11.625 C4.07074219 10.73554687 3.64148437 9.84609375 3.19921875 8.9296875 C2.59013672 7.65351562 2.59013672 7.65351562 1.96875 6.3515625 C1.59169922 5.56604004 1.21464844 4.78051758 0.82617188 3.97119141 C0 2 0 2 0 0 Z " fill="#E48A98" transform="translate(31,75)"/>
<path d="M0 0 C0.66 0 1.32 0 2 0 C2.59732819 2.76264289 3 5.16032769 3 8 C5.31 8.33 7.62 8.66 10 9 C10 9.66 10 10.32 10 11 C2.67784643 11.36010591 2.67784643 11.36010591 0 9.9375 C-1.54340102 6.94716052 -1.2441554 4.29609795 -1 1 C-0.67 0.67 -0.34 0.34 0 0 Z " fill="#E6E8FA" transform="translate(98,47)"/>
<path d="M0 0 C0.99 0.33 1.98 0.66 3 1 C3 2.32 3 3.64 3 5 C3.66 5.33 4.32 5.66 5 6 C5 6.99 5 7.98 5 9 C2.36 9 -0.28 9 -3 9 C-2.30058404 5.85262818 -1.23921302 2.97411124 0 0 Z " fill="#E67B6E" transform="translate(103,46)"/>
<path d="M0 0 C0.99 0.495 0.99 0.495 2 1 C2.639375 0.835 3.27875 0.67 3.9375 0.5 C6 0 6 0 9 1 C8 4 8 4 7 5 C7 5.66 7 6.32 7 7 C6.01 7 5.02 7 4 7 C3.34 7.66 2.68 8.32 2 9 C0.50178941 5.62902617 0 3.79557881 0 0 Z " fill="#09026A" transform="translate(20,75)"/>
<path d="M0 0 C0.33 0 0.66 0 1 0 C1 3.3 1 6.6 1 10 C-2.3 10 -5.6 10 -9 10 C-9.66 7.03 -10.32 4.06 -11 1 C-10.34 1 -9.68 1 -9 1 C-9 1.99 -9 2.98 -9 4 C-8.34 4 -7.68 4 -7 4 C-7 5.32 -7 6.64 -7 8 C-4.69 8 -2.38 8 0 8 C0 5.36 0 2.72 0 0 Z " fill="#CE7588" transform="translate(106,87)"/>
<path d="M0 0 C0.33 0 0.66 0 1 0 C1.84839345 4.71329693 1.81462422 8.31591073 1 13 C1.30791692 14.671549 1.64386903 16.33805547 2 18 C2.08994383 20.67333058 2.04535622 23.32398293 2 26 C1.67 26 1.34 26 1 26 C0.69255859 24.31970703 0.69255859 24.31970703 0.37890625 22.60546875 C0.10688311 21.13279176 -0.16525849 19.66013664 -0.4375 18.1875 C-0.57220703 17.44951172 -0.70691406 16.71152344 -0.84570312 15.95117188 C-1.41419737 12.88684924 -2.01309651 9.96071047 -3 7 C-2.07796291 4.63477442 -1.08301035 2.29598193 0 0 Z " fill="#C3C8F7" transform="translate(82,29)"/>
<path d="M0 0 C1.98 0 3.96 0 6 0 C6.33 0.99 6.66 1.98 7 3 C7.66 3.66 8.32 4.32 9 5 C8.34 6.65 7.68 8.3 7 10 C6.01 9.67 5.02 9.34 4 9 C4.33 8.34 4.66 7.68 5 7 C4.34 6.67 3.68 6.34 3 6 C3 5.34 3 4.68 3 4 C3.66 4 4.32 4 5 4 C5 3.01 5 2.02 5 1 C3.35 1 1.7 1 0 1 C0 0.67 0 0.34 0 0 Z M-1 4 C0.70840281 5.63412443 1.93453047 6.86906094 3 9 C1.0625 8.6875 1.0625 8.6875 -1 8 C-1.33 7.01 -1.66 6.02 -2 5 C-1.67 4.67 -1.34 4.34 -1 4 Z " fill="#96B3EE" transform="translate(54,27)"/>
<path d="M0 0 C-2.98756368 1.99170912 -5.55424386 3.02907979 -8.9375 4.1875 C-9.97777344 4.55230469 -11.01804687 4.91710938 -12.08984375 5.29296875 C-14.95456052 5.98896034 -16.28981357 6.02529944 -19 5 C-18.236875 4.71125 -17.47375 4.4225 -16.6875 4.125 C-13.84970692 3.03730987 -13.84970692 3.03730987 -11 1 C-6.8830748 -0.7004691 -4.30609995 -1.26649998 0 0 Z " fill="#686CEF" transform="translate(75,42)"/>
<path d="M0 0 C2 3 2 3 3 7 C-0.3 6.34 -3.6 5.68 -7 5 C-7 3.68 -7 2.36 -7 1 C-2.25 1.875 -2.25 1.875 0 3 C0 2.01 0 1.02 0 0 Z " fill="#554BD1" transform="translate(75,79)"/>
<path d="M0 0 C2.97 0 5.94 0 9 0 C9.25394531 0.61488281 9.50789063 1.22976562 9.76953125 1.86328125 C10.11371094 2.67152344 10.45789063 3.47976562 10.8125 4.3125 C11.14894531 5.11300781 11.48539063 5.91351563 11.83203125 6.73828125 C12.98200704 8.96515745 14.13626961 10.34987767 16 12 C14.68 12 13.36 12 12 12 C12 11.34 12 10.68 12 10 C11.34 10 10.68 10 10 10 C7.70986347 6.5647952 7.82157027 5.014669 8 1 C5.36 1 2.72 1 0 1 C0 0.67 0 0.34 0 0 Z " fill="#E38188" transform="translate(85,48)"/>
<path d="M0 0 C2.475 0.495 2.475 0.495 5 1 C5.6875 4.3125 5.6875 4.3125 6 8 C4.5625 9.9375 4.5625 9.9375 3 11 C0 4.5 0 4.5 0 0 Z " fill="#311F82" transform="translate(25,88)"/>
<path d="M0 0 C3.45457866 0.40169519 4.49290349 1.71149673 6.6875 4.3125 C5.6975 5.7975 5.6975 5.7975 4.6875 7.3125 C4.3575 6.3225 4.0275 5.3325 3.6875 4.3125 C1.7075 3.6525 -0.2725 2.9925 -2.3125 2.3125 C-2.3125 6.6025 -2.3125 10.8925 -2.3125 15.3125 C-2.6425 15.3125 -2.9725 15.3125 -3.3125 15.3125 C-3.33935412 13.00006208 -3.35882841 10.6875373 -3.375 8.375 C-3.38660156 7.08722656 -3.39820312 5.79945312 -3.41015625 4.47265625 C-3.28566157 0.44400832 -3.28566157 0.44400832 0 0 Z " fill="#3F3DA0" transform="translate(79.3125,53.6875)"/>
<path d="M0 0 C6.75 -0.125 6.75 -0.125 9 1 C11.5689103 0.99132125 14.12186147 0.86897778 16.6875 0.7421875 C17.450625 0.82726562 18.21375 0.91234375 19 1 C19.66 1.99 20.32 2.98 21 4 C6.21867882 3.22095672 6.21867882 3.22095672 0 1 C0 0.67 0 0.34 0 0 Z " fill="#624ED0" transform="translate(32,75)"/>
<path d="M0 0 C0.33 0.66 0.66 1.32 1 2 C0.0625 4.625 0.0625 4.625 -1 7 C-0.34 7.33 0.32 7.66 1 8 C-1.31 8 -3.62 8 -6 8 C-4.52307692 2.33846154 -4.52307692 2.33846154 -1.875 0.625 C-0.946875 0.315625 -0.946875 0.315625 0 0 Z " fill="#E6ECFD" transform="translate(29,35)"/>
<path d="M0 0 C2.31 0 4.62 0 7 0 C6.6875 1.875 6.6875 1.875 6 4 C5.01 4.66 4.02 5.32 3 6 C1.5 4.6875 1.5 4.6875 0 3 C0 2.01 0 1.02 0 0 Z " fill="#E78982" transform="translate(88,28)"/>
<path d="M0 0 C2.64 0 5.28 0 8 0 C6.02 0.99 6.02 0.99 4 2 C4.66 3.32 5.32 4.64 6 6 C5.01 6.66 4.02 7.32 3 8 C2.01 5.36 1.02 2.72 0 0 Z " fill="#FA8988" transform="translate(34,78)"/>
<path d="M0 0 C1.65 0.33 3.3 0.66 5 1 C5 3.31 5 5.62 5 8 C4.01 8.495 4.01 8.495 3 9 C2.896875 8.38125 2.79375 7.7625 2.6875 7.125 C2.12474627 4.63473516 2.12474627 4.63473516 -1 3 C-0.67 2.01 -0.34 1.02 0 0 Z " fill="#1A075D" transform="translate(81,58)"/>
<path d="M0 0 C1.32 0 2.64 0 4 0 C4.66 1.32 5.32 2.64 6 4 C6.33 3.01 6.66 2.02 7 1 C7.66 2.32 8.32 3.64 9 5 C6.6875 5.6875 6.6875 5.6875 4 6 C1.46155991 4.18682851 1.00510975 3.01532925 0 0 Z " fill="#160E84" transform="translate(29,91)"/>
<path d="M0 0 C0.33 0 0.66 0 1 0 C1.48541424 7.40256709 1.48541424 7.40256709 -0.625 10 C-3.55382336 11.23318878 -5.85288821 11.2145758 -9 11 C-6 9 -6 9 -3 8 C-1.0549 5.08235 -0.54723683 3.37462715 0 0 Z " fill="#DBECFE" transform="translate(97,27)"/>
<path d="M0 0 C2.97 0 5.94 0 9 0 C9.25 2.3125 9.25 2.3125 9 5 C7.1875 6.8125 7.1875 6.8125 5 8 C4.01 8 3.02 8 2 8 C3 6 3 6 6 4 C6.33 3.01 6.66 2.02 7 1 C4.69 1 2.38 1 0 1 C0 0.67 0 0.34 0 0 Z " fill="#F5E2EC" transform="translate(88,27)"/>
<path d="M0 0 C2.49846022 1.01499946 3.57151976 1.48182172 5 3.8125 C4.94537695 6.57642646 4.49374619 9.07445293 4 11.8125 C3.67 11.8125 3.34 11.8125 3 11.8125 C2.87625 10.69875 2.7525 9.585 2.625 8.4375 C2.3534187 4.78146323 2.3534187 4.78146323 0 2.8125 C-2.57061311 2.16482207 -2.57061311 2.16482207 -5 1.8125 C-2 -0.1875 -2 -0.1875 0 0 Z " fill="#B7C6ED" transform="translate(95,22.1875)"/>
<path d="M0 0 C2.97903734 2.97903734 4 5.80285329 4 10 C2.68 10 1.36 10 0 10 C0 6.7 0 3.4 0 0 Z " fill="#CC87AF" transform="translate(23,87)"/>
<path d="M0 0 C3.3 0 6.6 0 10 0 C9.01 1.485 9.01 1.485 8 3 C4.375 3.1875 4.375 3.1875 1 3 C0.67 2.01 0.34 1.02 0 0 Z " fill="#E5E0F9" transform="translate(99,81)"/>
<path d="M0 0 C0.33 0 0.66 0 1 0 C1.33 3.3 1.66 6.6 2 10 C-1.47823115 11.15941038 -3.45895578 10.70820884 -7 10 C-5 9 -3 8 -1 7 C-0.59270772 4.67843403 -0.25561323 2.3431213 0 0 Z " fill="#F47972" transform="translate(93,74)"/>
<path d="M0 0 C0.33 0 0.66 0 1 0 C3.27571116 8.03501094 3.27571116 8.03501094 2.125 12.0625 C1.568125 13.0215625 1.568125 13.0215625 1 14 C0.87625 13.360625 0.7525 12.72125 0.625 12.0625 C0.41875 11.381875 0.2125 10.70125 0 10 C-0.66 9.67 -1.32 9.34 -2 9 C-1.34 6.03 -0.68 3.06 0 0 Z " fill="#CDD3F4" transform="translate(110,73)"/>
<path d="M0 0 C1.98 0 3.96 0 6 0 C6 1.65 6 3.3 6 5 C5.34 5 4.68 5 4 5 C3.34 4.34 2.68 3.68 2 3 C1.34 4.32 0.68 5.64 0 7 C0 4.69 0 2.38 0 0 Z " fill="#434AD3" transform="translate(77,69)"/>
<path d="M0 0 C0.66 0.99 1.32 1.98 2 3 C3.96361864 3.57748803 3.96361864 3.57748803 6.125 3.6875 C7.40375 3.790625 8.6825 3.89375 10 4 C10 4.33 10 4.66 10 5 C7.03 5 4.06 5 1 5 C1 6.65 1 8.3 1 10 C-0.80411967 7.24075815 -1.0127245 6.11027897 -0.625 2.75 C-0.41875 1.8425 -0.2125 0.935 0 0 Z " fill="#4E49A7" transform="translate(16,59)"/>
<path d="M0 0 C0.66 0.33 1.32 0.66 2 1 C1.34 3.97 0.68 6.94 0 10 C-0.66 9.67 -1.32 9.34 -2 9 C-2.25 3.375 -2.25 3.375 0 0 Z " fill="#D6E4FD" transform="translate(86,25)"/>
<path d="M0 0 C1.65 1.32 3.3 2.64 5 4 C4.34 5.65 3.68 7.3 3 9 C2.34 8.67 1.68 8.34 1 8 C0.40644386 5.35139573 0.25790731 2.70802678 0 0 Z " fill="#0F0966" transform="translate(20,75)"/>
<path d="M0 0 C0.99 0.33 1.98 0.66 3 1 C3 2.65 3 4.3 3 6 C1.35 6 -0.3 6 -2 6 C-1.34 4.02 -0.68 2.04 0 0 Z " fill="#EB8F88" transform="translate(103,46)"/>
<path d="M0 0 C1.32 0.66 2.64 1.32 4 2 C3.67 2.66 3.34 3.32 3 4 C0.6859378 4.73075648 -1.64828869 5.40138258 -4 6 C-2.68 4.02 -1.36 2.04 0 0 Z " fill="#D6E1FE" transform="translate(76,35)"/>
<path d="M0 0 C1.65 0.33 3.3 0.66 5 1 C4.67 1.99 4.34 2.98 4 4 C1.69 4 -0.62 4 -3 4 C-2.67 3.34 -2.34 2.68 -2 2 C-1.34 2 -0.68 2 0 2 C0 1.34 0 0.68 0 0 Z " fill="#160F8A" transform="translate(31,97)"/>
<path d="M0 0 C2.64 0.66 5.28 1.32 8 2 C8 2.33 8 2.66 8 3 C6.35 3 4.7 3 3 3 C2.67 3.99 2.34 4.98 2 6 C1.34 4.02 0.68 2.04 0 0 Z " fill="#D385AF" transform="translate(31,75)"/>
<path d="M0 0 C0.66 0.66 1.32 1.32 2 2 C2.66 1.67 3.32 1.34 4 1 C3.45276317 4.37462715 2.9451 6.08235 1 9 C0.67 6.03 0.34 3.06 0 0 Z " fill="#D2E1F8" transform="translate(109,46)"/>
<path d="M0 0 C-1.65 0.33 -3.3 0.66 -5 1 C-5 1.66 -5 2.32 -5 3 C-6.65 2.67 -8.3 2.34 -10 2 C-6.19832777 -0.53444815 -4.31588991 -1.33941411 0 0 Z " fill="#7B5DCD" transform="translate(39,54)"/>
<path d="" fill="#FFFFFF" transform="translate(0,0)"/>
<path d="" fill="#FFFFFF" transform="translate(0,0)"/>
<path d="" fill="#00FFFF" transform="translate(0,0)"/>
<path d="" fill="#FFFFFF" transform="translate(0,0)"/>
<path d="" fill="#FFFFFF" transform="translate(0,0)"/>
<path d="" fill="#FFFFFF" transform="translate(0,0)"/>
<path d="" fill="#FFFFFF" transform="translate(0,0)"/>
<path d="" fill="#FFFFFF" transform="translate(0,0)"/>
<path d="" fill="#FFFFFF" transform="translate(0,0)"/>
<path d="" fill="#FFFFFF" transform="translate(0,0)"/>
<path d="" fill="#FFFFFF" transform="translate(0,0)"/>
<path d="" fill="#FFFFFF" transform="translate(0,0)"/>
<path d="" fill="#FFFFFF" transform="translate(0,0)"/>
<path d="" fill="#FFFFFF" transform="translate(0,0)"/>
<path d="" fill="#FFFFFF" transform="translate(0,0)"/>
<path d="" fill="#FFFFFF" transform="translate(0,0)"/>
<path d="" fill="#FFFFFF" transform="translate(0,0)"/>
<path d="" fill="#FFFFFF" transform="translate(0,0)"/>
<path d="" fill="#FFFFFF" transform="translate(0,0)"/>
<path d="" fill="#FFFFFF" transform="translate(0,0)"/>
<path d="" fill="#FFFFFF" transform="translate(0,0)"/>
<path d="" fill="#FFFFFF" transform="translate(0,0)"/>
<path d="" fill="#FFFFFF" transform="translate(0,0)"/>
<path d="" fill="#FFFFFF" transform="translate(0,0)"/>
<path d="" fill="#FFFFFF" transform="translate(0,0)"/>
<path d="" fill="#FFFFFF" transform="translate(0,0)"/>
<path d="" fill="#FFFFFF" transform="translate(0,0)"/>
<path d="" fill="#FFFFFF" transform="translate(0,0)"/>
<path d="" fill="#FFFFFF" transform="translate(0,0)"/>
<path d="" fill="#FFFFFF" transform="translate(0,0)"/>
<path d="" fill="#FFFFFF" transform="translate(0,0)"/>
<path d="" fill="#FFFFFF" transform="translate(0,0)"/>
<path d="" fill="#FFFFFF" transform="translate(0,0)"/>
<path d="" fill="#FFFFFF" transform="translate(0,0)"/>
<path d="" fill="#FFFFFF" transform="translate(0,0)"/>
<path d="" fill="#FFFFFF" transform="translate(0,0)"/>
<path d="" fill="#FFFFFF" transform="translate(0,0)"/>
<path d="" fill="#FFFFFF" transform="translate(0,0)"/>
<path d="" fill="#FFFFFF" transform="translate(0,0)"/>
<path d="" fill="#FFFFFF" transform="translate(0,0)"/>
<path d="" fill="#FFFFFF" transform="translate(0,0)"/>
<path d="" fill="#FFFFFF" transform="translate(0,0)"/>
<path d="" fill="#FFFFFF" transform="translate(0,0)"/>
<path d="" fill="#FFFFFF" transform="translate(0,0)"/>
</svg>
