<?xml version="1.0" standalone="no"?>
<!DOCTYPE svg PUBLIC "-//W3C//DTD SVG 20010904//EN"
 "http://www.w3.org/TR/2001/REC-SVG-20010904/DTD/svg10.dtd">
<svg version="1.0" xmlns="http://www.w3.org/2000/svg"
 width="311.000000pt" height="350.000000pt" viewBox="0 0 311.000000 350.000000"
 preserveAspectRatio="xMidYMid meet">

<g transform="translate(0.000000,350.000000) scale(0.100000,-0.100000)"
fill="#000000" stroke="none">
<path d="M334 3170 c-82 -83 -150 -159 -152 -170 -3 -20 58 -121 162 -270 125
-177 267 -342 470 -545 280 -280 527 -477 811 -648 55 -33 106 -64 113 -70 34
-27 -311 -428 -512 -595 -44 -37 -87 -73 -94 -80 -23 -21 -206 -149 -263 -183
-30 -18 -99 -57 -154 -86 -95 -51 -98 -54 -55 -47 192 28 571 199 767 345 l42
32 83 -17 c244 -48 581 -61 783 -31 127 19 299 65 395 105 41 18 83 34 92 37
19 6 18 10 43 -177 18 -126 59 -315 79 -365 15 -35 66 -64 127 -72 l39 -6 0
460 c0 414 -2 469 -20 568 -25 137 -74 468 -94 640 -9 72 -18 148 -21 170 -10
81 -34 395 -46 595 -6 113 -15 214 -19 226 -7 19 -397 261 -406 252 -1 -2 -13
-49 -24 -103 -69 -316 -212 -732 -362 -1045 -90 -189 -228 -432 -244 -428 -40
9 -283 217 -460 393 -219 218 -328 344 -500 577 -115 155 -304 458 -393 628
-13 25 -27 49 -31 53 -4 4 -74 -60 -156 -143z m2436 -1050 c10 -344 33 -788
45 -874 l6 -38 -37 7 c-46 8 -193 57 -294 97 -89 35 -330 154 -349 173 -11 11
3 36 86 151 170 238 312 474 407 676 30 62 69 145 87 183 l34 70 2 -40 c1 -22
7 -204 13 -405z m-730 -795 c147 -76 580 -185 737 -185 37 0 43 -3 49 -24 10
-42 -1 -48 -85 -41 -237 19 -430 61 -677 145 -126 43 -130 47 -98 88 29 36 34
38 74 17z m-115 -254 c194 -51 287 -63 510 -68 156 -4 233 -1 300 10 93 15
105 12 105 -25 0 -20 -9 -23 -130 -43 -137 -22 -382 -30 -530 -16 -152 14
-490 81 -490 96 0 2 19 22 43 45 30 29 48 39 62 35 11 -4 70 -19 130 -34z"/>
<path d="M1571 3094 c-226 -61 -381 -293 -342 -513 24 -136 103 -252 216 -320
73 -44 141 -62 240 -62 294 0 515 279 441 558 -22 83 -57 143 -121 209 -118
120 -283 169 -434 128z"/>
<path d="M156 2409 c-87 -136 -107 -174 -100 -189 15 -32 241 -256 359 -354
242 -203 536 -394 834 -541 192 -95 216 -103 243 -78 32 28 118 144 118 159 0
7 -33 32 -72 55 -116 66 -419 269 -456 306 -8 7 -30 26 -50 41 -43 32 -66 52
-187 160 -168 150 -213 195 -409 412 -23 25 -66 74 -95 110 -30 36 -59 70 -65
77 -8 8 -40 -33 -120 -158z"/>
<path d="M580 1536 c0 -2 8 -10 18 -17 15 -13 16 -12 3 4 -13 16 -21 21 -21
13z"/>
</g>
</svg>
