<?xml version="1.0" encoding="UTF-8"?>
<svg version="1.1" xmlns="http://www.w3.org/2000/svg" width="512" height="512">
<path d="M0 0 C0.86296928 -0.00664781 1.72593856 -0.01329562 2.61505842 -0.02014488 C5.48205237 -0.03969551 8.34888941 -0.04519719 11.21594238 -0.05052185 C13.28146262 -0.06142689 15.34697892 -0.07309965 17.41249084 -0.08547974 C23.00535078 -0.11588595 28.59816973 -0.1329772 34.19109535 -0.14569592 C37.68798564 -0.15379644 41.18486431 -0.16397723 44.68174744 -0.17471123 C55.6311557 -0.20739395 66.58053552 -0.23131123 77.5299859 -0.24352509 C90.15550643 -0.25779427 102.78046937 -0.30173015 115.40580511 -0.37102658 C125.17760411 -0.4228076 134.94924442 -0.44769794 144.72117853 -0.45234722 C150.5527138 -0.45574362 156.3836838 -0.4705775 162.21507263 -0.51362801 C167.69828852 -0.55340442 173.18054492 -0.55977284 178.66386223 -0.54072762 C180.67259076 -0.53946261 182.68136862 -0.55011392 184.68995857 -0.57374191 C201.7466379 -0.76289617 201.7466379 -0.76289617 207.58666992 3.70254517 C209.4817276 5.57179356 209.4817276 5.57179356 210.96789551 7.28761292 C211.74262207 8.00948792 212.51734863 8.73136292 213.31555176 9.47511292 C213.8814502 10.07323792 214.44734863 10.67136292 215.03039551 11.28761292 C217.47573815 13.86049044 220.02319836 16.23274668 222.70227051 18.55714417 C226.96084136 22.25344789 231.0653438 26.09422238 235.15539551 29.97511292 C241.86670393 36.31731402 248.61846321 42.61144926 255.4161377 48.8608551 C263.42645551 56.22591131 271.41097667 63.61777272 279.35510254 71.05421448 C282.45546501 73.95390363 285.56573375 76.84111423 288.70227051 79.70167542 C289.29459473 80.24308167 289.88691895 80.78448792 290.49719238 81.34230042 C291.61042501 82.35823575 292.72615215 83.37144725 293.84484863 84.38136292 C295.24260762 85.65828338 296.60696877 86.97150712 297.96789551 88.28761292 C298.50968948 88.79717529 299.05148346 89.30673767 299.60969543 89.83174133 C301.7820636 93.75977619 301.35914263 97.69179739 301.30847168 102.10499573 C301.30890976 103.10044403 301.30934784 104.09589233 301.30979919 105.12150574 C301.30770936 108.41144938 301.28436861 111.7008833 301.26086426 114.99073792 C301.25526901 117.27188336 301.25099858 119.5530324 301.2480011 121.83418274 C301.23654678 127.83808851 301.2070743 133.84177656 301.17388916 139.84559631 C301.14320108 145.97207189 301.12949844 152.09858264 301.11437988 158.22511292 C301.08220537 170.24604191 301.03100172 182.26680931 300.96789551 194.28761292 C302.21425781 194.43384094 303.46062012 194.58006897 304.74475098 194.73072815 C321.0299077 196.64136548 335.91158867 205.60614809 347.96789551 216.28761292 C348.64078613 216.86640198 349.31367676 217.44519104 350.00695801 218.04151917 C366.01266363 232.80375363 375.22038571 255.04233507 376.31555176 276.57667542 C376.95037618 299.72157787 369.89914109 318.61913535 357.96789551 338.28761292 C358.45669189 338.77117249 358.94548828 339.25473206 359.44909668 339.75294495 C361.6872229 341.97013428 363.92132897 344.19133335 366.15539551 346.41261292 C366.92432129 347.17315979 367.69324707 347.93370667 368.48547363 348.71730042 C369.23635254 349.46495667 369.98723145 350.21261292 370.76086426 350.98292542 C371.49514648 351.71374329 372.22942871 352.44456116 372.98596191 353.19752502 C374.7078591 355.0133863 376.16071318 356.84269112 377.62805176 358.86183167 C379.75851446 361.60214924 379.75851446 361.60214924 382.98352051 361.54933167 C384.05086426 361.35983948 385.11820801 361.17034729 386.21789551 360.97511292 C392.99194739 360.14267587 398.1060091 360.37218348 403.69795227 364.59367371 C410.07262264 370.25553908 416.12202838 376.24025426 422.16711426 382.24855042 C422.73826273 382.81562336 423.3094112 383.3826963 423.8978672 383.96695328 C426.91511094 386.96348182 429.92917078 389.96317238 432.9407959 392.96534729 C436.03220002 396.04565688 439.13511683 399.11409633 442.24071026 402.18008995 C444.64703852 404.56017207 447.0443416 406.94919454 449.43937111 409.34064102 C450.57896659 410.47539926 451.72190743 411.60680908 452.86838341 412.73461533 C466.91810031 426.56945472 466.91810031 426.56945472 468.66711426 436.09620667 C468.63950729 444.64516484 467.71096346 450.73494948 461.96789551 457.28761292 C456.94701593 462.12508137 451.46161671 463.9700019 444.53039551 464.60011292 C433.18963297 463.60530918 425.53308065 456.29944462 418.22961426 448.16261292 C412.35416255 441.75922752 406.30583925 435.57117992 400.11242676 429.47511292 C399.26880585 428.64189514 398.42518494 427.80867737 397.55599976 426.95021057 C394.07982574 423.51849881 390.6008481 420.08984989 387.10827637 416.67481995 C384.51715932 414.13820513 381.93895151 411.589037 379.36242676 409.03761292 C378.18436211 407.89522156 378.18436211 407.89522156 376.98249817 406.72975159 C370.66197733 400.43970544 366.18765162 394.11114988 365.84289551 384.97511292 C365.96789551 381.28761292 365.96789551 381.28761292 366.7364502 377.86671448 C367.32621185 374.27716445 367.32621185 374.27716445 365.29309082 371.7046051 C364.46905762 370.92246643 363.64502441 370.14032776 362.79602051 369.33448792 C361.90398926 368.46823792 361.01195801 367.60198792 360.09289551 366.70948792 C359.14414551 365.82776917 358.19539551 364.94605042 357.21789551 364.03761292 C356.28461426 363.14042542 355.35133301 362.24323792 354.38977051 361.31886292 C352.65545598 359.65431966 350.91307039 357.99811739 349.16027832 356.3530426 C347.39743321 354.69227761 345.66776853 353.01226142 343.96789551 351.28761292 C343.34785645 351.78390198 342.72781738 352.28019104 342.08898926 352.79151917 C331.03236125 361.27309553 315.37693455 370.28761292 300.96789551 370.28761292 C300.97836914 371.60366516 300.98884277 372.91971741 300.99963379 374.27565002 C301.03602063 379.19017279 301.05886368 384.1046838 301.07775879 389.01930237 C301.08777395 391.14041654 301.10138997 393.26151705 301.11877441 395.38258362 C301.14322075 398.44340907 301.15442375 401.50405089 301.16320801 404.56495667 C301.17353058 405.50282516 301.18385315 406.44069366 301.19448853 407.40698242 C301.19660166 420.00021604 298.05845382 430.31218309 289.28039551 439.60011292 C278.06196615 450.15571041 265.33046319 451.60806105 250.42454529 451.5415802 C249.32766138 451.54470018 248.23077747 451.54782016 247.10065466 451.55103469 C243.45990985 451.55895166 239.81933464 451.55271575 236.17858887 451.54640198 C233.55430504 451.54911462 230.93002198 451.55267709 228.30574036 451.55702209 C221.93889146 451.56587918 215.57208992 451.56401069 209.20523923 451.55819681 C204.02779373 451.55366615 198.85036142 451.55307347 193.67291451 451.55524445 C192.93391952 451.55555091 192.19492454 451.55585738 191.43353577 451.55617313 C189.93194122 451.55681263 188.43034668 451.55746106 186.92875213 451.55811831 C172.87431883 451.56381071 158.81991168 451.55728067 144.76548267 451.54651758 C132.72380967 451.5375812 120.68217524 451.53913694 108.64050293 451.5483551 C94.63221447 451.55907384 80.6239489 451.56326344 66.61565691 451.55713058 C65.12012486 451.55649352 63.6245928 451.55586478 62.12906075 451.55524445 C61.02551995 451.55478162 61.02551995 451.55478162 59.89968539 451.55430944 C54.73200142 451.55258745 49.56433203 451.55548685 44.39665031 451.56020355 C37.43378866 451.56641954 30.47100082 451.56195295 23.50814629 451.55041504 C20.95685446 451.54777648 18.40555648 451.54851976 15.85426712 451.55294037 C12.36418361 451.5584289 8.874331 451.55152151 5.38426208 451.5415802 C4.38171463 451.54604164 3.37916718 451.55050309 2.34623951 451.55509973 C-10.96650213 451.48186261 -23.30103778 448.90244534 -33.40710449 439.66261292 C-40.39834521 432.102148 -44.15073227 422.96636064 -44.16632557 412.78222561 C-44.1686778 412.12750518 -44.17103003 411.47278475 -44.17345354 410.7982243 C-44.18013304 408.59499913 -44.17968563 406.39183308 -44.17927551 404.18859863 C-44.1825748 402.59668738 -44.1863005 401.00477696 -44.19041699 399.41286761 C-44.20043786 395.03073142 -44.20415393 390.64860894 -44.2068063 386.26646292 C-44.21070911 381.54302807 -44.2202875 376.81960407 -44.22901917 372.09617615 C-44.24878461 360.68501218 -44.25885006 349.27384732 -44.26774696 337.86267051 C-44.27212987 332.4891101 -44.27749669 327.11555067 -44.28273582 321.74199104 C-44.29974847 303.87913562 -44.31424255 286.01628082 -44.32148457 268.15341854 C-44.32339447 263.51756731 -44.3253148 258.88171608 -44.32727051 254.24586487 C-44.32775425 253.09364437 -44.32823799 251.94142388 -44.32873639 250.75428761 C-44.33703635 232.08984729 -44.36237256 213.42547107 -44.39485119 194.76105874 C-44.4279235 175.59925742 -44.4459335 156.43748868 -44.44912881 137.27565867 C-44.45129378 126.51680023 -44.4600406 115.75803526 -44.48558998 104.99920464 C-44.50729933 95.83622733 -44.51534623 86.67336618 -44.5056232 77.51036607 C-44.50107915 72.83659472 -44.50297086 68.16306304 -44.52238464 63.48932457 C-44.54002163 59.20627647 -44.5390143 54.92364279 -44.52348735 50.64059026 C-44.52111209 49.0954318 -44.52543062 47.55024461 -44.537316 46.00513005 C-44.62836953 33.38080074 -42.80969576 22.83374904 -34.03210449 13.28761292 C-24.24636014 3.38005432 -13.7389888 -0.01830699 0 0 Z M-21.34460449 25.60011292 C-21.7944873 26.13249573 -22.24437012 26.66487854 -22.70788574 27.21339417 C-27.70298816 35.03758114 -27.45892957 42.4048355 -27.41978455 51.41244507 C-27.42395921 52.97053797 -27.42943746 54.52862783 -27.43610436 56.08671206 C-27.45056053 60.36144608 -27.4463137 64.63598733 -27.43893754 68.91073191 C-27.43420854 73.52367694 -27.44671343 78.1365801 -27.45695496 82.74951172 C-27.47415416 91.78441714 -27.47498055 100.81925305 -27.46974205 109.8541706 C-27.46570083 117.1985099 -27.46714335 124.54282866 -27.47249031 131.88716698 C-27.47323873 132.93241787 -27.47398715 133.97766876 -27.47475826 135.05459392 C-27.47628974 137.17803187 -27.47782808 139.30146982 -27.47937322 141.42490777 C-27.49310259 161.34030694 -27.48765774 181.25566684 -27.47618801 201.17106511 C-27.46625751 219.38657508 -27.47919238 237.60198345 -27.5031222 255.81747774 C-27.52751176 274.52398349 -27.53712128 293.23044192 -27.53046948 311.93696326 C-27.52697664 322.43807567 -27.52921348 332.93910996 -27.5467205 343.44021034 C-27.56144076 352.38064301 -27.56208031 361.32094255 -27.54464959 370.2613726 C-27.53613537 374.82161854 -27.53400033 379.38162665 -27.54930115 383.9418602 C-27.56314583 388.11989803 -27.55838801 392.29749424 -27.53906191 396.47550651 C-27.53530087 397.9835393 -27.53822691 399.49160744 -27.54867356 400.99960873 C-27.60628551 409.95590472 -27.62078934 419.12671406 -21.34070295 426.18993407 C-14.29401214 432.86314418 -7.15981185 433.72850974 2.16467285 433.66856384 C3.28460821 433.67324381 4.40454357 433.67792379 5.55841637 433.68274558 C9.30700943 433.69470104 13.0552373 433.68523583 16.80383301 433.67579651 C19.4929918 433.67986196 22.18212552 433.68509526 24.87127686 433.69172668 C31.4146206 433.7050546 37.95786101 433.7021905 44.50120878 433.69348876 C49.81992661 433.68670891 55.13861551 433.6857968 60.45733643 433.68906021 C61.59355566 433.68974976 61.59355566 433.68974976 62.75272882 433.69045324 C64.29161597 433.69141243 65.83050311 433.69238507 67.36939025 433.69337101 C81.79376129 433.70192215 96.21807509 433.69209512 110.64243674 433.67596991 C123.01462353 433.66256698 135.38672587 433.66489515 147.75891113 433.6787262 C162.13226779 433.6947869 176.5055743 433.7010982 190.87893867 433.69188941 C192.41211064 433.69093377 193.94528261 433.68999066 195.47845459 433.68906021 C196.2327709 433.68859738 196.98708722 433.68813456 197.7642616 433.68765771 C203.07553969 433.68506929 208.38678593 433.68943562 213.69805908 433.69649887 C220.17224692 433.70491952 226.64632567 433.7026219 233.12050104 433.68665664 C236.42267289 433.67878144 239.72462572 433.6772889 243.02680206 433.6856041 C246.60842255 433.69379193 250.18953041 433.68353054 253.77111816 433.66856384 C254.81207327 433.67525601 255.85302837 433.68194817 256.92552757 433.68884313 C264.66560054 433.62603399 270.22914857 432.24733586 276.21789551 427.03761292 C276.86242676 426.49620667 277.50695801 425.95480042 278.17102051 425.39698792 C283.34154439 419.32724249 283.38244453 413.15853297 283.26086426 405.54151917 C283.25661942 404.53040573 283.25237457 403.5192923 283.2480011 402.47753906 C283.23129304 399.26811891 283.19365503 396.05934127 283.15539551 392.85011292 C283.14033851 390.66587723 283.12665189 388.48163165 283.11437988 386.29737854 C283.08141541 380.96057311 283.03129494 375.62413894 282.96789551 370.28761292 C281.58465088 370.11020569 281.58465088 370.11020569 280.17346191 369.92921448 C260.80091074 367.32659074 242.06250367 360.38222107 227.96789551 346.28761292 C225.7592172 346.19328306 223.5474803 346.1701886 221.33679199 346.17408752 C220.64414246 346.1739415 219.95149292 346.17379547 219.237854 346.17364502 C216.93820105 346.17434417 214.63862814 346.18213663 212.33898926 346.18995667 C210.74858138 346.19182084 209.15817294 346.19324474 207.56776428 346.19424438 C203.37393621 346.19806963 199.18014256 346.20789996 194.98632812 346.21894836 C190.71000637 346.22916235 186.43367906 346.23374198 182.15734863 346.23878479 C173.76084667 346.24952223 165.36437933 346.26711908 156.96789551 346.28761292 C156.96789551 340.34761292 156.96789551 334.40761292 156.96789551 328.28761292 C175.44789551 328.28761292 193.92789551 328.28761292 212.96789551 328.28761292 C210.32789551 321.68761292 207.68789551 315.08761292 204.96789551 308.28761292 C202.98789551 299.37761292 202.98789551 299.37761292 200.96789551 290.28761292 C186.44789551 290.28761292 171.92789551 290.28761292 156.96789551 290.28761292 C156.96789551 284.34761292 156.96789551 278.40761292 156.96789551 272.28761292 C171.48789551 272.28761292 186.00789551 272.28761292 200.96789551 272.28761292 C202.28789551 267.00761292 203.60789551 261.72761292 204.96789551 256.28761292 C206.57169794 251.8962491 208.18162144 247.59532826 209.96789551 243.28761292 C210.62789551 241.63761292 211.28789551 239.98761292 211.96789551 238.28761292 C193.81789551 238.28761292 175.66789551 238.28761292 156.96789551 238.28761292 C157.29789551 232.67761292 157.62789551 227.06761292 157.96789551 221.28761292 C159.99115967 221.29397766 162.01442383 221.30034241 164.09899902 221.30690002 C170.8007157 221.32287699 177.50191076 221.30036239 184.20350742 221.25914669 C188.26495802 221.23534101 192.32558972 221.22430775 196.38708496 221.24293518 C200.31039802 221.26045107 204.23224353 221.24380058 208.15537834 221.20393562 C209.64838064 221.19467594 211.14151084 221.19751271 212.63446236 221.21291924 C220.85620173 221.51076129 220.85620173 221.51076129 228.36782837 218.75630188 C230.09460063 217.02231481 231.49849309 215.23741364 232.96789551 213.28761292 C235.11650256 211.57067241 237.38101871 210.1098681 239.71789551 208.66261292 C240.62958496 208.09087341 240.62958496 208.09087341 241.55969238 207.50758362 C254.5710359 199.49837124 267.98250462 196.01222944 282.96789551 193.28761292 C282.96789551 163.91761292 282.96789551 134.54761292 282.96789551 104.28761292 C261.03955981 104.07781037 261.03955981 104.07781037 239.11096191 103.89967346 C234.83972168 103.8497467 234.83972168 103.8497467 232.83102417 103.82260132 C231.4481814 103.80660469 230.065266 103.79621383 228.68234253 103.79049683 C207.75941351 103.69266527 207.75941351 103.69266527 200.09289551 96.66261292 C199.39422363 96.05159729 198.69555176 95.44058167 197.97570801 94.81105042 C191.49139253 86.66150217 191.36454514 78.28014057 191.35852051 68.18995667 C191.3435141 66.74548512 191.32678185 65.30103057 191.30841064 63.8565979 C191.26499998 60.08375697 191.24479712 56.31114738 191.22967529 52.5381012 C191.21000846 48.67647266 191.16804978 44.81509053 191.12805176 40.95362854 C191.05303512 33.39835668 191.00257191 25.84318917 190.96789551 18.28761292 C164.89895183 18.19415811 138.83003328 18.123628 112.76095581 18.08036423 C100.65653889 18.05974188 88.55222608 18.03162739 76.44787598 17.9858551 C65.89732576 17.9459775 55.34685094 17.92017772 44.79622746 17.91125894 C39.2100955 17.9060458 33.62417925 17.89379954 28.03811646 17.86469269 C22.77847979 17.8375092 17.51914734 17.82917395 12.2594471 17.83518219 C10.33094695 17.83408328 8.40243644 17.82614699 6.47399712 17.81079102 C3.83585008 17.7908171 1.19884373 17.79570049 -1.43933105 17.80659485 C-2.57749787 17.7891178 -2.57749787 17.7891178 -3.73865795 17.77128768 C-10.51692838 17.846674 -16.9709308 20.19430384 -21.34460449 25.60011292 Z M207.96789551 30.28761292 C207.86629621 37.01355558 207.7963464 43.7392996 207.74816895 50.46583557 C207.72808034 52.75302018 207.70080423 55.04015359 207.6661377 57.3271637 C207.61749993 60.61879626 207.59489872 63.90974849 207.57727051 67.20167542 C207.55662537 68.22064911 207.53598022 69.2396228 207.51470947 70.28947449 C207.51282359 76.28526538 207.9291654 79.74654866 211.96789551 84.28761292 C215.31406442 86.51839219 216.3638351 86.53285329 220.26550293 86.5146637 C221.34639694 86.51451263 222.42729095 86.51436157 223.54093933 86.51420593 C224.70663956 86.50388336 225.87233978 86.49356079 227.07336426 86.48292542 C228.26770584 86.48009552 229.46204742 86.47726563 230.69258118 86.47434998 C234.51362048 86.46313968 238.33442685 86.43803328 242.15539551 86.41261292 C244.74328275 86.40258423 247.33117366 86.39345818 249.91906738 86.38526917 C256.26875646 86.36319756 262.61830935 86.32971152 268.96789551 86.28761292 C268.19679443 85.51723694 267.42569336 84.74686096 266.63122559 83.95314026 C264.86684654 82.18730559 263.10788854 80.41603635 261.35461426 78.63917542 C260.46387207 77.73940979 259.57312988 76.83964417 258.65539551 75.91261292 C257.7723877 75.01800354 256.88937988 74.12339417 255.97961426 73.20167542 C253.12093115 70.37708222 250.0990298 67.76180963 247.06286621 65.13087463 C243.53031414 62.02275575 240.13030298 58.77636097 236.71789551 55.53761292 C223.21692233 40.31872809 223.21692233 40.31872809 207.96789551 30.28761292 Z M240.96789551 229.28761292 C240.33109863 229.84190979 239.69430176 230.39620667 239.03820801 230.96730042 C226.15349978 242.93576273 218.88844982 261.53629141 217.80773926 278.85401917 C217.18171467 299.29508277 224.90369982 318.25213294 238.74914551 333.16261292 C252.73218871 346.5548233 270.87363169 353.99132474 290.19152832 353.76026917 C309.09101976 353.01562111 326.07860122 345.16839138 338.96789551 331.28761292 C339.56086426 330.71140198 340.15383301 330.13519104 340.76477051 329.54151917 C353.5289254 316.45578673 358.97073403 298.3863559 359.02941895 280.39942932 C358.4341638 259.96706033 349.34933739 241.98104706 334.71789551 227.97511292 C318.40923531 214.43692564 300.48197611 209.75704807 279.57775879 211.04396057 C264.86574201 212.41744914 251.8552397 219.61418863 240.96789551 229.28761292 Z M385.59289551 379.85011292 C383.65467038 382.25382283 383.65467038 382.25382283 384.03717041 385.56326294 C385.136125 389.96079291 387.08324398 392.2463367 390.23449707 395.31471252 C390.78256516 395.87168823 391.33063324 396.42866394 391.89530945 397.0025177 C393.70177773 398.83020906 395.52907195 400.63529018 397.35852051 402.43995667 C398.62401806 403.70695709 399.88855123 404.97492141 401.15216064 406.24380493 C403.79919131 408.89516218 406.45648129 411.53565043 409.1217041 414.16871643 C412.53808558 417.54525762 415.92928417 420.9458426 419.31341934 424.35466671 C421.91901209 426.9744343 424.53659457 429.5819456 427.15807343 432.18580818 C428.41352288 433.43540673 429.66540799 434.68859687 430.91364288 435.94540215 C432.65845119 437.69819411 434.41851941 439.43404945 436.18371582 441.16627502 C436.69716049 441.68826981 437.21060516 442.21026459 437.73960876 442.74807739 C440.02816148 444.96328713 441.49479703 446.21351293 444.68487549 446.71316528 C447.90484143 446.11296725 449.05601286 444.90760025 450.96789551 442.28761292 C451.57424484 439.938152 451.57424484 439.938152 450.96789551 437.28761292 C449.1669387 435.14361671 447.45446216 433.34833595 445.40539551 431.47511292 C442.05169965 428.32339623 438.81556779 425.17222458 435.8260498 421.66773987 C429.26133038 414.11738742 422.09961885 407.11671973 415.05187988 400.02149963 C413.2369474 398.18988338 411.42741448 396.35290186 409.62316895 394.51075745 C407.00783981 391.84092254 404.37667595 389.18767633 401.74133301 386.53761292 C400.93602142 385.70963196 400.13070984 384.881651 399.30099487 384.02857971 C398.54315704 383.27359192 397.78531921 382.51860413 397.0045166 381.74073792 C396.34390228 381.07203674 395.68328796 380.40333557 395.00265503 379.71437073 C391.58166476 377.31559852 389.00241428 377.60700846 385.59289551 379.85011292 Z " fill="#000000" transform="translate(44.0321044921875,23.712387084960938)"/>
<path d="M0 0 C1.64227821 -0.01073296 1.64227821 -0.01073296 3.31773376 -0.02168274 C6.93555467 -0.0385866 10.55213946 -0.0191556 14.16992188 0.00219727 C16.68428653 0.00136873 19.19865112 -0.00109006 21.7130127 -0.00511169 C26.98215059 -0.00797086 32.25096804 0.00621426 37.52001953 0.03417969 C43.6056057 0.06623051 49.69055098 0.06621503 55.77618265 0.04896492 C61.63834087 0.03308259 67.50026316 0.03994214 73.3624115 0.05690193 C75.8535052 0.06208721 78.34461734 0.06159778 80.83570862 0.05535698 C84.3166582 0.04991012 87.79651827 0.07026507 91.27734375 0.09765625 C92.82354652 0.08786743 92.82354652 0.08786743 94.40098572 0.07788086 C98.79212519 0.13666885 101.41945114 0.20510067 105.25500488 2.47694397 C108.08278944 5.71079535 108.2649464 8.34054422 108.27911377 12.47592163 C108.28482391 13.47410416 108.29053406 14.47228668 108.29641724 15.50071716 C108.29809402 17.14186241 108.29809402 17.14186241 108.29980469 18.81616211 C108.30725204 20.54578438 108.30725204 20.54578438 108.31484985 22.31034851 C108.32948201 26.1334187 108.33627489 29.9564474 108.34179688 33.77954102 C108.34609427 35.7613404 108.35039217 37.74313978 108.35477138 39.72493899 C108.36658127 45.24690891 108.37411942 50.76886877 108.37756658 56.29085004 C108.38204772 63.42963724 108.39959975 70.568233 108.42856717 77.70696199 C108.45018888 83.22722877 108.4602711 88.74744171 108.46160769 94.26775038 C108.4626553 97.56386377 108.47000008 100.85975612 108.48642731 104.1558342 C108.50344765 107.83312307 108.50161718 111.50994377 108.49511719 115.18725586 C108.50433197 116.27730423 108.51354675 117.3673526 108.52304077 118.49043274 C108.47056986 127.94814799 108.47056986 127.94814799 105.13867188 131.63110352 C102.16002624 133.43973397 99.94037149 133.88300543 96.47731018 133.89179993 C95.07894424 133.90242714 95.07894424 133.90242714 93.65232849 133.91326904 C92.63663284 133.91079163 91.62093719 133.90831421 90.57446289 133.90576172 C89.49926392 133.91087265 88.42406494 133.91598358 87.31628418 133.92124939 C83.75832571 133.93516159 80.20056058 133.9341874 76.64257812 133.93188477 C74.17162504 133.93577071 71.70067262 133.94010516 69.22972107 133.94487 C64.04887731 133.95233565 58.8681017 133.95203833 53.68725586 133.94677734 C47.04469186 133.94098139 40.40240656 133.95791536 33.75988865 133.98112202 C28.6564114 133.99584593 23.55300148 133.99673289 18.44950676 133.99361229 C16.00026841 133.99412614 13.55102634 133.99937588 11.10180855 134.00942421 C7.67844597 134.02174535 4.25562908 134.0150225 0.83227539 134.00341797 C-0.18139603 134.01106171 -1.19506744 134.01870544 -2.23945618 134.02658081 C-10.92298744 133.96144193 -10.92298744 133.96144193 -14.86132812 130.63110352 C-16.09599463 128.1617705 -15.99809826 126.51743129 -16.01522827 123.75468445 C-16.02382874 122.72421997 -16.0324292 121.69375549 -16.04129028 120.63206482 C-16.04555023 119.49696976 -16.04981018 118.36187469 -16.05419922 117.19238281 C-16.06237671 116.00043304 -16.0705542 114.80848328 -16.07897949 113.58041382 C-16.10386428 109.62206362 -16.12050692 105.66372086 -16.13476562 101.70532227 C-16.14012535 100.34276637 -16.14550286 98.98021055 -16.15089798 97.6176548 C-16.17252647 91.94987117 -16.19126325 86.28209039 -16.20252037 80.61427593 C-16.21876036 72.49104122 -16.25193879 64.36828478 -16.30892122 56.24523038 C-16.34761988 50.53390643 -16.36715292 44.82271042 -16.37244093 39.1112588 C-16.3760946 35.69986246 -16.38811576 32.28897622 -16.42054367 28.87772179 C-16.45204414 25.07077764 -16.4522539 21.26504723 -16.44482422 17.45800781 C-16.46122955 16.32898544 -16.47763489 15.19996307 -16.49453735 14.03672791 C-16.45756821 9.41952402 -16.34845011 6.47016074 -14.00369263 2.43136597 C-9.35559221 -0.23153347 -5.27399359 -0.05982196 0 0 Z M1.13867188 18.63110352 C1.13867188 50.64110352 1.13867188 82.65110352 1.13867188 115.63110352 C30.50867188 115.63110352 59.87867188 115.63110352 90.13867188 115.63110352 C90.13867188 83.62110352 90.13867188 51.61110352 90.13867188 18.63110352 C60.76867187 18.63110352 31.39867187 18.63110352 1.13867188 18.63110352 Z " fill="#000000" transform="translate(63.861328125,236.368896484375)"/>
<path d="M0 0 C76.89 0 153.78 0 233 0 C233 5.61 233 11.22 233 17 C231.10387355 18.89612645 228.32185273 18.12288039 225.79875606 18.12908131 C224.8989689 18.12616847 223.99918174 18.12325563 223.0721283 18.12025452 C221.64977044 18.12153615 221.64977044 18.12153615 220.19867808 18.12284368 C216.99563319 18.12450138 213.79263974 18.1189724 210.58959961 18.11352539 C208.3037669 18.11324356 206.0179341 18.11340118 203.73210144 18.1139679 C197.50507866 18.11425601 191.27807495 18.108357 185.05105662 18.10139394 C178.55141848 18.09516275 172.05177995 18.09455679 165.55213928 18.09336853 C154.63591164 18.09060881 143.71969108 18.08435325 132.8034668 18.07543945 C121.55769893 18.06626609 110.31193296 18.05918489 99.06616211 18.05493164 C98.02708173 18.05453756 98.02708173 18.05453756 96.96700983 18.05413551 C93.49197595 18.05283051 90.01694205 18.05156679 86.54190814 18.05032361 C57.69460064 18.03995008 28.84730082 18.02205654 0 18 C0 12.06 0 6.12 0 0 Z " fill="#000000" transform="translate(56,404)"/>
<path d="M0 0 C1.18464844 -0.00773437 2.36929688 -0.01546875 3.58984375 -0.0234375 C7.3442353 0.40732509 9.81015283 1.49807293 13.0625 3.375 C12.0725 6.675 11.0825 9.975 10.0625 13.375 C9.423125 13.045 8.78375 12.715 8.125 12.375 C4.04348952 11.04226188 0.31714843 10.72612505 -3.9375 11.375 C-6.69849695 13.53202886 -6.91830258 15.30232406 -7.8125 18.6875 C-7.9667611 23.23820243 -7.01759771 25.3748121 -4.9375 29.375 C-3.9533722 30.57740029 -3.9533722 30.57740029 -2.08203125 30.5078125 C2.41234745 30.49275595 6.6386669 30.28245294 11.0625 29.375 C11.7225 30.365 12.3825 31.355 13.0625 32.375 C13.27865967 31.79645264 13.49481934 31.21790527 13.7175293 30.62182617 C21.66952594 9.39326886 21.66952594 9.39326886 26.0625 0.375 C29.0325 0.375 32.0025 0.375 35.0625 0.375 C38.8229929 7.40009663 42.03687222 14.5222155 44.9375 21.9375 C45.2476001 22.72302246 45.5577002 23.50854492 45.87719727 24.31787109 C46.16264404 25.0598877 46.44809082 25.8019043 46.7421875 26.56640625 C46.99726074 27.22842041 47.25233398 27.89043457 47.51513672 28.57250977 C48.0625 30.375 48.0625 30.375 48.0625 33.375 C48.7225 33.375 49.3825 33.375 50.0625 33.375 C50.3925 31.725 50.7225 30.075 51.0625 28.375 C51.68125 28.684375 52.3 28.99375 52.9375 29.3125 C57.25052294 30.7789278 61.5384996 31.04119026 66.0625 31.375 C66.0625 30.055 66.0625 28.735 66.0625 27.375 C65.19625 27.106875 64.33 26.83875 63.4375 26.5625 C58.27677418 24.74668906 53.31019621 22.94583171 50.0625 18.375 C48.81658638 13.90336481 48.71567997 10.4154601 50.1875 6 C52.31420531 3.02261256 53.77746762 1.9538175 57.0625 0.375 C60.4375 0.01171875 60.4375 0.01171875 64.0625 0.0625 C65.25875 0.06636719 66.455 0.07023437 67.6875 0.07421875 C70.90165693 0.36066561 73.16789759 0.99896741 76.0625 2.375 C75.808004 3.85706495 75.53338238 5.33568615 75.25 6.8125 C75.02376953 8.04806641 75.02376953 8.04806641 74.79296875 9.30859375 C74.55191406 9.99050781 74.31085938 10.67242187 74.0625 11.375 C70.30787358 12.62654214 68.55952051 11.80329882 64.90234375 10.65234375 C64.29519531 10.56082031 63.68804687 10.46929687 63.0625 10.375 C62.4025 11.035 61.7425 11.695 61.0625 12.375 C61.96613281 12.82230469 62.86976563 13.26960938 63.80078125 13.73046875 C64.99255363 14.34043099 66.18393984 14.95114818 67.375 15.5625 C68.54675781 16.15417969 69.71851563 16.74585937 70.92578125 17.35546875 C74.23293564 19.48473253 75.52145319 20.79912026 77.0625 24.375 C77.89414325 29.17006017 77.77960714 33.14567347 75.3125 37.375 C70.97522082 41.23035927 67.90649845 41.61944066 62.109375 41.5703125 C61.44915344 41.5674826 60.78893188 41.56465271 60.10870361 41.56173706 C58.00978103 41.55058415 55.91129258 41.52548946 53.8125 41.5 C52.38542285 41.48996384 50.95833898 41.4808391 49.53125 41.47265625 C46.04152672 41.45066111 42.55205577 41.41616536 39.0625 41.375 C38.4025 38.405 37.7425 35.435 37.0625 32.375 C31.1225 32.87 31.1225 32.87 25.0625 33.375 C24.0725 36.015 23.0825 38.655 22.0625 41.375 C17.0625 41.375 12.0625 41.375 7.0625 41.375 C5.45761719 41.42720703 5.45761719 41.42720703 3.8203125 41.48046875 C2.02207031 41.52107422 2.02207031 41.52107422 0.1875 41.5625 C-1.60300781 41.61470703 -1.60300781 41.61470703 -3.4296875 41.66796875 C-8.50442559 41.24413205 -11.74416136 39.66778353 -15.1875 35.9375 C-19.50247941 29.6191373 -20.69812296 23.22654103 -19.50390625 15.609375 C-17.79224264 9.1495372 -15.15823639 5.69325334 -9.70703125 1.76953125 C-6.27982594 0.04384395 -3.82363851 -0.0249097 0 0 Z M30.0625 16.375 C29.4025 18.685 28.7425 20.995 28.0625 23.375 C29.7125 23.375 31.3625 23.375 33.0625 23.375 C32.48797254 19.44424356 32.48797254 19.44424356 30.0625 16.375 Z " fill="#000000" transform="translate(83.9375,90.625)"/>
<path d="M0 0 C1.11246094 -0.00515625 2.22492188 -0.0103125 3.37109375 -0.015625 C6.509509 0.24558949 8.73085425 0.91621546 11.5625 2.25 C11.5625 1.59 11.5625 0.93 11.5625 0.25 C22.1225 0.25 32.6825 0.25 43.5625 0.25 C43.5625 3.55 43.5625 6.85 43.5625 10.25 C39.9325 10.25 36.3025 10.25 32.5625 10.25 C32.5625 20.48 32.5625 30.71 32.5625 41.25 C29.2625 41.25 25.9625 41.25 22.5625 41.25 C22.5625 31.02 22.5625 20.79 22.5625 10.25 C18.6025 10.25 14.6425 10.25 10.5625 10.25 C10.2325 10.91 9.9025 11.57 9.5625 12.25 C5.2725 11.59 0.9825 10.93 -3.4375 10.25 C-2.74656873 13.46353555 -2.74656873 13.46353555 0.14453125 14.64453125 C1.74361328 15.34642578 1.74361328 15.34642578 3.375 16.0625 C8.25832338 18.42577303 11.46386336 20.00340841 13.5625 25.25 C14.39444212 29.75333887 13.93306047 32.53534766 11.8125 36.625 C8.69069011 40.26711154 6.91188437 41.13272845 2.1015625 41.55078125 C0.80992188 41.55464844 -0.48171875 41.55851562 -1.8125 41.5625 C-3.09898438 41.57925781 -4.38546875 41.59601563 -5.7109375 41.61328125 C-9.62899454 41.23133229 -12.06751614 40.22712676 -15.4375 38.25 C-14.7775 35.28 -14.1175 32.31 -13.4375 29.25 C-12.52226563 29.40597656 -11.60703125 29.56195313 -10.6640625 29.72265625 C-9.47554687 29.91730469 -8.28703125 30.11195313 -7.0625 30.3125 C-5.87914062 30.50972656 -4.69578125 30.70695312 -3.4765625 30.91015625 C-0.52299099 31.51934687 -0.52299099 31.51934687 1.5625 30.25 C0.86433576 27.03319066 0.86433576 27.03319066 -2.0546875 25.78515625 C-4.22126042 24.80578216 -6.38792664 23.82661447 -8.5546875 22.84765625 C-11.50571298 21.21219633 -12.84652062 20.19304035 -14.4375 17.25 C-15.29870395 12.47846462 -15.14084178 8.45572876 -12.6875 4.25 C-8.53694313 0.56061612 -5.54994498 -0.02566449 0 0 Z " fill="#000000" transform="translate(63.4375,161.75)"/>
<path d="M0 0 C4.3845966 3.32395984 6.30203459 6.98569783 7.5 12.3125 C8.33304486 18.63843438 8.04353956 24.45385782 4.8046875 30.07421875 C1.4197334 34.4857573 -2.46421779 37.10074477 -8 38 C-21.8330494 38.72231687 -21.8330494 38.72231687 -27 37 C-27 24.13 -27 11.26 -27 -2 C-18.47855289 -4.13036178 -7.84900185 -4.49665609 0 0 Z M-16 7 C-16 13.93 -16 20.86 -16 28 C-10.38061284 28.2311277 -10.38061284 28.2311277 -6 26 C-3.80610471 22.70915707 -3.30645682 20.90732442 -3 17 C-3.90796175 13.14116256 -4.85593169 10.48905407 -8 8 C-10.52174919 6.5527864 -10.52174919 6.5527864 -16 7 Z " fill="#000000" transform="translate(171,165)"/>
<path d="M0 0 C3.63 0 7.26 0 11 0 C11.02505615 0.87325928 11.0501123 1.74651855 11.07592773 2.64624023 C11.17087709 5.87602552 11.27012029 9.10564154 11.37231445 12.33520508 C11.41571434 13.73489199 11.45738564 15.13463359 11.49731445 16.53442383 C11.55489445 18.54261495 11.61914 20.55061149 11.68359375 22.55859375 C11.72025146 23.76829834 11.75690918 24.97800293 11.79467773 26.22436523 C11.68938266 28.90705456 11.68938266 28.90705456 13 30 C16 30.16666667 16 30.16666667 19 30 C20.85965075 28.14034925 20.24087549 25.05110881 20.31640625 22.55859375 C20.35830078 21.25341797 20.40019531 19.94824219 20.44335938 18.60351562 C20.48317608 17.2148467 20.52288825 15.82617478 20.5625 14.4375 C20.60567989 13.04490817 20.649294 11.65232972 20.69335938 10.25976562 C20.79985876 6.83995199 20.90186923 3.42006237 21 0 C24.63 0 28.26 0 32 0 C32.09969463 4.12582397 32.17185233 8.25117097 32.21972656 12.37792969 C32.2397063 13.77844473 32.2669002 15.17887782 32.30175781 16.57910156 C32.66277546 31.46577044 32.66277546 31.46577044 28 38 C23.27696529 42.02214592 18.26546463 41.49050019 12.328125 41.34765625 C7.83802104 40.87861957 6.13621853 40.22098119 3 37 C0.20647275 32.38256493 -0.3594646 28.99681086 -0.29296875 23.6328125 C-0.28660149 22.61343094 -0.28660149 22.61343094 -0.28010559 21.57345581 C-0.26344266 19.42355076 -0.22581716 17.27461701 -0.1875 15.125 C-0.172437 13.6588678 -0.15875143 12.19272076 -0.14648438 10.7265625 C-0.1135808 7.15073125 -0.06188663 3.57546059 0 0 Z " fill="#000000" transform="translate(108,162)"/>
<path d="M0 0 C8.91 0 17.82 0 27 0 C27 3.3 27 6.6 27 10 C21.72 10 16.44 10 11 10 C11 11.65 11 13.3 11 15 C15.62 15 20.24 15 25 15 C25 17.97 25 20.94 25 24 C20.38 24 15.76 24 11 24 C11 26.31 11 28.62 11 31 C16.61 31 22.22 31 28 31 C28 34.3 28 37.6 28 41 C18.76 41 9.52 41 0 41 C0 27.47 0 13.94 0 0 Z " fill="#000000" transform="translate(163,91)"/>
<path d="M0 0 C4.29 0 8.58 0 13 0 C14.98 3.96 16.96 7.92 19 12 C21.62196431 9.37803569 22.97572835 7.5047228 24.6875 4.3125 C25.450625 2.889375 26.21375 1.46625 27 0 C30.63 0 34.26 0 38 0 C37.22507577 3.87462117 36.83567648 5.69437331 35.00390625 8.8828125 C34.61009766 9.57503906 34.21628906 10.26726562 33.81054688 10.98046875 C33.39869141 11.68816406 32.98683594 12.39585937 32.5625 13.125 C32.15451172 13.84042969 31.74652344 14.55585938 31.32617188 15.29296875 C29.62519704 18.26204391 27.8994308 21.1508538 26 24 C25.6373883 25.92744369 25.6373883 25.92744369 25.5859375 28.01171875 C25.54726562 28.76904297 25.50859375 29.52636719 25.46875 30.30664062 C25.42234375 31.48516602 25.42234375 31.48516602 25.375 32.6875 C25.33632812 33.48478516 25.29765625 34.28207031 25.2578125 35.10351562 C25.16367506 37.06863475 25.08075368 39.0342854 25 41 C21.37 41 17.74 41 14 41 C14.03222656 39.94683594 14.06445312 38.89367187 14.09765625 37.80859375 C14.12230514 26.69064583 11.48846536 19.73850644 5.15771484 10.70214844 C0 3.11893716 0 3.11893716 0 0 Z " fill="#000000" transform="translate(174,162)"/>
</svg>
